{"glyphs":{"0":{"ha":861,"x_min":139,"x_max":722,"o":"m 139 632 q 175 785 139 718 q 278 888 211 851 q 431 924 344 924 q 583 888 517 924 q 686 785 650 851 q 722 632 722 718 l 722 271 q 686 118 722 185 q 583 15 650 51 q 431 -21 517 -21 q 278 15 344 -21 q 175 118 211 51 q 139 271 139 185 l 139 632 m 306 271 q 340 181 306 215 q 431 146 375 146 q 522 181 488 146 q 556 271 556 215 l 556 632 q 522 723 556 689 q 431 757 488 757 q 340 723 375 757 q 306 632 306 689 l 306 271 z "},"1":{"ha":538,"x_min":69,"x_max":399,"o":"m 232 901 l 232 903 l 399 903 l 399 0 l 232 0 l 232 664 l 69 664 l 232 901 z "},"2":{"ha":833,"x_min":111,"x_max":694,"o":"m 285 479 l 399 479 q 489 517 454 479 q 524 611 524 554 q 489 706 524 668 q 399 743 454 743 l 239 743 l 239 903 l 399 903 q 551 867 485 903 q 654 764 618 831 q 690 611 690 697 q 612 401 690 481 q 404 319 533 322 l 349 167 l 694 167 l 694 0 l 111 0 l 285 479 z "},"3":{"ha":840,"x_min":139,"x_max":715,"o":"m 139 160 l 424 160 q 514 197 479 160 q 549 292 549 235 q 515 383 549 349 q 424 417 481 417 l 194 417 l 194 576 l 382 576 l 386 576 q 438 601 419 578 q 456 658 456 625 q 436 717 456 693 q 382 742 417 742 l 139 742 l 139 901 l 382 901 q 513 867 458 901 q 594 778 567 833 q 622 660 622 722 q 590 533 622 593 q 683 435 650 497 q 715 292 715 374 q 679 139 715 206 q 576 36 643 72 q 424 0 510 0 l 139 0 l 139 160 z "},"4":{"ha":886,"x_min":139,"x_max":747,"o":"m 288 901 l 465 901 l 351 368 l 511 368 l 511 681 l 678 681 l 678 368 l 747 368 l 747 201 l 678 201 l 678 0 l 511 0 l 511 201 l 139 201 l 288 901 z "},"5":{"ha":785,"x_min":139,"x_max":674,"o":"m 139 167 l 382 167 q 473 201 439 167 q 507 292 507 236 q 473 383 507 349 q 382 417 439 417 l 139 417 l 139 901 l 597 901 l 597 742 l 306 742 l 306 583 l 382 583 q 535 547 468 583 q 638 444 601 511 q 674 292 674 378 q 638 139 674 206 q 535 36 601 72 q 382 0 468 0 l 139 0 l 139 167 z "},"6":{"ha":861,"x_min":139,"x_max":722,"o":"m 139 632 q 181 791 139 725 q 290 890 222 857 q 435 924 358 924 q 576 892 510 924 q 682 797 642 860 q 722 646 722 735 l 556 646 q 520 728 556 699 q 435 757 485 757 q 344 724 383 757 q 306 632 306 690 l 306 543 q 465 600 375 600 q 591 567 532 600 q 686 467 650 533 q 722 307 722 400 l 722 271 q 686 118 722 185 q 583 15 650 51 q 431 -21 517 -21 q 278 15 344 -21 q 175 118 211 51 q 139 271 139 185 l 139 632 m 306 271 q 340 181 306 215 q 431 146 375 146 q 522 181 488 146 q 556 271 556 215 l 556 307 q 522 398 556 364 q 431 432 488 432 q 340 398 375 432 q 306 307 306 364 l 306 271 z "},"7":{"ha":728,"x_min":69,"x_max":658,"o":"m 419 742 l 69 742 l 69 901 l 658 901 l 317 0 l 139 0 l 419 742 z "},"8":{"ha":861,"x_min":139,"x_max":722,"o":"m 139 632 q 175 785 139 718 q 278 888 211 851 q 431 924 344 924 q 583 888 517 924 q 686 785 650 851 q 722 632 722 718 l 722 588 q 694 451 722 511 q 722 315 722 392 l 722 271 q 686 118 722 185 q 583 15 650 51 q 431 -21 517 -21 q 278 15 344 -21 q 175 118 211 51 q 139 271 139 185 l 139 315 q 167 451 139 392 q 139 588 139 511 l 139 632 m 306 271 q 340 181 306 215 q 431 146 375 146 q 522 181 488 146 q 556 271 556 215 l 556 315 q 522 406 556 372 q 431 440 488 440 q 340 406 375 440 q 306 315 306 372 l 306 271 m 306 583 q 431 607 364 607 q 556 583 497 607 l 556 588 l 556 632 q 522 723 556 689 q 431 757 488 757 q 340 723 375 757 q 306 632 306 689 l 306 588 l 306 583 z "},"9":{"ha":861,"x_min":139,"x_max":722,"o":"m 722 271 q 681 112 722 178 q 571 13 639 46 q 426 -21 503 -21 q 285 11 351 -21 q 179 106 219 43 q 139 257 139 168 l 306 257 q 341 175 306 204 q 426 146 376 146 q 517 179 479 146 q 556 271 556 213 l 556 360 q 396 303 486 303 q 270 336 329 303 q 175 436 211 369 q 139 596 139 503 l 139 632 q 175 785 139 718 q 278 888 211 851 q 431 924 344 924 q 583 888 517 924 q 686 785 650 851 q 722 632 722 718 l 722 271 m 306 596 q 340 506 306 540 q 431 471 375 471 q 522 506 488 471 q 556 596 556 540 l 556 632 q 522 723 556 689 q 431 757 488 757 q 340 723 375 757 q 306 632 306 689 l 306 596 z "}," ":{"ha":417,"x_min":0,"x_max":0,"o":""},"A":{"ha":889,"x_min":69,"x_max":819,"o":"m 660 0 l 599 219 l 300 219 l 238 0 l 69 0 l 339 903 l 563 903 l 819 0 l 660 0 m 556 379 l 453 749 l 347 379 l 556 379 z "},"Á":{"ha":889,"x_min":69,"x_max":819,"o":"m 660 0 l 599 219 l 300 219 l 238 0 l 69 0 l 339 903 l 563 903 l 819 0 l 660 0 m 556 379 l 453 749 l 347 379 l 556 379 m 444 1125 l 604 1125 l 528 986 l 368 986 l 444 1125 z "},"Ă":{"ha":889,"x_min":69,"x_max":819,"o":"m 660 0 l 599 219 l 300 219 l 238 0 l 69 0 l 339 903 l 563 903 l 819 0 l 660 0 m 556 379 l 453 749 l 347 379 l 556 379 m 417 1113 q 425 1093 417 1101 q 444 1085 433 1085 q 464 1093 456 1085 q 472 1113 472 1101 l 582 1113 q 544 1010 582 1049 q 444 972 506 972 q 345 1010 383 972 q 307 1113 307 1049 l 417 1113 z "},"Â":{"ha":889,"x_min":69,"x_max":819,"o":"m 660 0 l 599 219 l 300 219 l 238 0 l 69 0 l 339 903 l 563 903 l 819 0 l 660 0 m 556 379 l 453 749 l 347 379 l 556 379 m 432 1111 l 457 1111 l 618 988 l 458 988 l 444 1000 l 431 988 l 271 988 l 432 1111 z "},"Ä":{"ha":889,"x_min":69,"x_max":819,"o":"m 660 0 l 599 219 l 300 219 l 238 0 l 69 0 l 339 903 l 563 903 l 819 0 l 660 0 m 556 379 l 453 749 l 347 379 l 556 379 m 556 988 q 497 1012 521 988 q 472 1071 472 1036 q 497 1131 472 1107 q 556 1154 521 1154 q 615 1131 592 1154 q 639 1071 639 1107 q 615 1012 639 1036 q 556 988 592 988 m 250 1071 q 274 1131 250 1107 q 333 1154 299 1154 q 393 1131 369 1154 q 417 1071 417 1107 q 393 1012 417 1036 q 333 988 369 988 q 274 1012 299 988 q 250 1071 250 1036 z "},"À":{"ha":889,"x_min":69,"x_max":819,"o":"m 660 0 l 599 219 l 300 219 l 238 0 l 69 0 l 339 903 l 563 903 l 819 0 l 660 0 m 556 379 l 453 749 l 347 379 l 556 379 m 361 986 l 285 1125 l 444 1125 l 521 986 l 361 986 z "},"Ā":{"ha":889,"x_min":69,"x_max":819,"o":"m 660 0 l 599 219 l 300 219 l 238 0 l 69 0 l 339 903 l 563 903 l 819 0 l 660 0 m 556 379 l 453 749 l 347 379 l 556 379 m 215 1125 l 674 1125 l 674 1014 l 215 1014 l 215 1125 z "},"Ą":{"ha":889,"x_min":69,"x_max":906,"o":"m 742 -167 l 906 -167 l 906 -278 l 572 -278 l 703 0 l 660 0 l 599 219 l 300 219 l 238 0 l 69 0 l 339 903 l 563 903 l 819 0 l 742 -167 m 556 379 l 453 749 l 347 379 l 556 379 z "},"Å":{"ha":889,"x_min":69,"x_max":819,"o":"m 660 0 l 599 219 l 300 219 l 238 0 l 69 0 l 339 903 l 563 903 l 819 0 l 660 0 m 556 379 l 453 749 l 347 379 l 556 379 m 444 969 q 360 1004 394 969 q 325 1089 325 1039 q 360 1174 325 1139 q 444 1208 394 1208 q 529 1174 494 1208 q 564 1089 564 1139 q 529 1004 564 1039 q 444 969 494 969 m 396 1089 q 410 1055 396 1069 q 444 1040 425 1040 q 478 1055 464 1040 q 493 1089 493 1069 q 478 1123 493 1108 q 444 1138 464 1138 q 410 1123 425 1138 q 396 1089 396 1108 z "},"Ã":{"ha":889,"x_min":69,"x_max":819,"o":"m 660 0 l 599 219 l 300 219 l 238 0 l 69 0 l 339 903 l 563 903 l 819 0 l 660 0 m 556 379 l 453 749 l 347 379 l 556 379 m 247 988 q 286 1090 247 1047 q 381 1132 325 1132 q 419 1124 403 1132 q 453 1103 435 1117 q 484 1084 471 1090 q 514 1078 497 1078 q 541 1091 531 1078 q 551 1125 551 1104 l 649 1125 q 610 1023 649 1065 q 514 981 571 981 q 468 990 488 981 q 425 1014 449 999 q 381 1035 396 1035 q 354 1021 364 1035 q 344 988 344 1007 l 247 988 z "},"Æ":{"ha":1104,"x_min":69,"x_max":979,"o":"m 367 901 l 535 901 l 535 903 l 701 903 l 701 901 l 979 901 l 979 735 l 701 735 l 701 533 l 910 533 l 910 367 l 701 367 l 701 167 l 979 167 l 979 0 l 535 0 l 535 219 l 310 219 l 238 0 l 69 0 l 367 901 m 535 379 l 535 735 l 481 735 l 363 379 l 535 379 z "},"B":{"ha":808,"x_min":139,"x_max":739,"o":"m 139 903 l 306 903 q 462 865 394 903 q 567 760 529 828 q 604 604 604 693 q 601 554 604 588 q 703 449 668 515 q 739 303 739 382 q 706 155 739 224 q 607 43 674 86 q 444 0 540 0 l 139 0 l 139 903 m 438 160 q 542 203 504 160 q 579 303 579 247 q 536 403 579 364 q 437 331 496 356 q 306 306 378 306 l 306 160 l 438 160 m 319 458 q 418 501 378 458 q 458 604 458 544 q 418 707 458 664 q 319 750 378 750 l 306 750 l 306 458 l 319 458 z "},"C":{"ha":785,"x_min":111,"x_max":715,"o":"m 549 0 q 319 56 418 0 q 166 215 221 113 q 111 451 111 317 q 166 688 111 585 q 320 847 221 790 q 549 903 419 903 l 715 903 l 715 743 l 563 743 q 413 706 478 743 q 313 602 349 668 q 278 451 278 536 q 313 300 278 367 q 413 197 349 233 q 563 160 478 160 l 715 160 l 715 0 l 549 0 z "},"Ć":{"ha":854,"x_min":111,"x_max":729,"o":"m 549 0 q 319 56 418 0 q 166 215 221 113 q 111 451 111 317 q 166 688 111 585 q 320 847 221 790 q 549 903 419 903 l 715 903 l 715 743 l 563 743 q 413 706 478 743 q 313 602 349 668 q 278 451 278 536 q 313 300 278 367 q 413 197 349 233 q 563 160 478 160 l 715 160 l 715 0 l 549 0 m 569 1124 l 729 1124 l 653 985 l 493 985 l 569 1124 z "},"Č":{"ha":854,"x_min":111,"x_max":743,"o":"m 549 0 q 319 56 418 0 q 166 215 221 113 q 111 451 111 317 q 166 688 111 585 q 320 847 221 790 q 549 903 419 903 l 715 903 l 715 743 l 563 743 q 413 706 478 743 q 313 602 349 668 q 278 451 278 536 q 313 300 278 367 q 413 197 349 233 q 563 160 478 160 l 715 160 l 715 0 l 549 0 m 582 999 l 557 999 l 396 1122 l 556 1122 l 569 1110 l 583 1122 l 743 1122 l 582 999 z "},"Ç":{"ha":854,"x_min":111,"x_max":715,"o":"m 549 0 q 319 56 418 0 q 166 215 221 113 q 111 451 111 317 q 166 688 111 585 q 320 847 221 790 q 549 903 419 903 l 715 903 l 715 743 l 563 743 q 413 706 478 743 q 313 602 349 668 q 278 451 278 536 q 313 300 278 367 q 413 197 349 233 q 563 160 478 160 l 715 160 l 715 0 l 549 0 m 540 -229 q 560 -221 551 -229 q 568 -201 568 -212 q 560 -182 568 -190 q 540 -174 551 -174 l 540 -64 q 642 -102 604 -64 q 681 -201 681 -140 q 642 -301 681 -262 q 540 -339 604 -339 l 540 -229 z "},"Ċ":{"ha":854,"x_min":111,"x_max":715,"o":"m 549 0 q 319 56 418 0 q 166 215 221 113 q 111 451 111 317 q 166 688 111 585 q 320 847 221 790 q 549 903 419 903 l 715 903 l 715 743 l 563 743 q 413 706 478 743 q 313 602 349 668 q 278 451 278 536 q 313 300 278 367 q 413 197 349 233 q 563 160 478 160 l 715 160 l 715 0 l 549 0 m 569 986 q 510 1010 535 986 q 486 1069 486 1035 q 510 1129 486 1106 q 569 1153 535 1153 q 629 1129 606 1153 q 653 1069 653 1106 q 629 1010 653 1035 q 569 986 606 986 z "},"D":{"ha":882,"x_min":139,"x_max":771,"o":"m 139 903 l 319 903 q 553 846 450 903 q 713 687 656 789 q 771 451 771 585 q 713 215 771 318 q 553 56 656 113 q 319 0 450 0 l 139 0 l 139 903 m 319 160 q 469 197 404 160 q 569 300 533 233 q 604 451 604 367 q 569 602 604 536 q 469 706 533 668 q 319 743 404 743 l 306 743 l 306 160 l 319 160 z "},"Ð":{"ha":910,"x_min":139,"x_max":799,"o":"m 361 903 q 590 847 490 903 q 744 688 689 790 q 799 451 799 585 q 744 215 799 317 q 590 56 689 113 q 361 0 492 0 l 139 0 l 139 903 l 361 903 m 347 160 q 497 197 432 160 q 597 300 561 233 q 632 451 632 367 q 597 602 632 536 q 497 706 561 668 q 347 743 432 743 l 306 743 l 306 533 l 458 533 l 458 367 l 306 367 l 306 160 l 347 160 z "},"Ď":{"ha":896,"x_min":132,"x_max":771,"o":"m 139 903 l 319 903 q 553 846 450 903 q 713 687 656 789 q 771 451 771 585 q 713 215 771 318 q 553 56 656 113 q 319 0 450 0 l 139 0 l 139 903 m 319 160 q 469 197 404 160 q 569 300 533 233 q 604 451 604 367 q 569 602 604 536 q 469 706 533 668 q 319 743 404 743 l 306 743 l 306 160 l 319 160 m 318 999 l 293 999 l 132 1122 l 292 1122 l 306 1110 l 319 1122 l 479 1122 l 318 999 z "},"Đ":{"ha":910,"x_min":139,"x_max":799,"o":"m 361 903 q 590 847 490 903 q 744 688 689 790 q 799 451 799 585 q 744 215 799 317 q 590 56 689 113 q 361 0 492 0 l 139 0 l 139 903 l 361 903 m 347 160 q 497 197 432 160 q 597 300 561 233 q 632 451 632 367 q 597 602 632 536 q 497 706 561 668 q 347 743 432 743 l 306 743 l 306 533 l 458 533 l 458 367 l 306 367 l 306 160 l 347 160 z "},"E":{"ha":722,"x_min":139,"x_max":597,"o":"m 597 903 l 597 743 l 306 743 l 306 531 l 528 531 l 528 371 l 306 371 l 306 160 l 597 160 l 597 0 l 139 0 l 139 903 l 597 903 z "},"É":{"ha":722,"x_min":139,"x_max":597,"o":"m 597 903 l 597 743 l 306 743 l 306 531 l 528 531 l 528 371 l 306 371 l 306 160 l 597 160 l 597 0 l 139 0 l 139 903 l 597 903 m 368 1124 l 528 1124 l 451 985 l 292 985 l 368 1124 z "},"Ě":{"ha":722,"x_min":139,"x_max":597,"o":"m 597 903 l 597 743 l 306 743 l 306 531 l 528 531 l 528 371 l 306 371 l 306 160 l 597 160 l 597 0 l 139 0 l 139 903 l 597 903 m 381 999 l 356 999 l 194 1122 l 354 1122 l 368 1110 l 382 1122 l 542 1122 l 381 999 z "},"Ê":{"ha":722,"x_min":139,"x_max":597,"o":"m 597 903 l 597 743 l 306 743 l 306 531 l 528 531 l 528 371 l 306 371 l 306 160 l 597 160 l 597 0 l 139 0 l 139 903 l 597 903 m 356 1110 l 381 1110 l 542 986 l 382 986 l 368 999 l 354 986 l 194 986 l 356 1110 z "},"Ë":{"ha":722,"x_min":139,"x_max":597,"o":"m 597 903 l 597 743 l 306 743 l 306 531 l 528 531 l 528 371 l 306 371 l 306 160 l 597 160 l 597 0 l 139 0 l 139 903 l 597 903 m 479 986 q 420 1010 444 986 q 396 1069 396 1035 q 420 1129 396 1106 q 479 1153 444 1153 q 539 1129 515 1153 q 563 1069 563 1106 q 539 1010 563 1035 q 479 986 515 986 m 174 1069 q 198 1129 174 1106 q 257 1153 222 1153 q 317 1129 293 1153 q 340 1069 340 1106 q 317 1010 340 1035 q 257 986 293 986 q 198 1010 222 986 q 174 1069 174 1035 z "},"Ė":{"ha":722,"x_min":139,"x_max":597,"o":"m 597 903 l 597 743 l 306 743 l 306 531 l 528 531 l 528 371 l 306 371 l 306 160 l 597 160 l 597 0 l 139 0 l 139 903 l 597 903 m 368 986 q 309 1010 333 986 q 285 1069 285 1035 q 309 1129 285 1106 q 368 1153 333 1153 q 428 1129 404 1153 q 451 1069 451 1106 q 428 1010 451 1035 q 368 986 404 986 z "},"È":{"ha":722,"x_min":139,"x_max":597,"o":"m 597 903 l 597 743 l 306 743 l 306 531 l 528 531 l 528 371 l 306 371 l 306 160 l 597 160 l 597 0 l 139 0 l 139 903 l 597 903 m 285 985 l 208 1124 l 368 1124 l 444 985 l 285 985 z "},"Ē":{"ha":722,"x_min":139,"x_max":597,"o":"m 597 903 l 597 743 l 306 743 l 306 531 l 528 531 l 528 371 l 306 371 l 306 160 l 597 160 l 597 0 l 139 0 l 139 903 l 597 903 m 139 1124 l 597 1124 l 597 1013 l 139 1013 l 139 1124 z "},"Ę":{"ha":722,"x_min":139,"x_max":683,"o":"m 597 903 l 597 743 l 306 743 l 306 531 l 528 531 l 528 371 l 306 371 l 306 160 l 597 160 l 597 0 l 519 -167 l 683 -167 l 683 -278 l 350 -278 l 481 0 l 139 0 l 139 903 l 597 903 z "},"Ẽ":{"ha":722,"x_min":139,"x_max":597,"o":"m 597 903 l 597 743 l 306 743 l 306 531 l 528 531 l 528 371 l 306 371 l 306 160 l 597 160 l 597 0 l 139 0 l 139 903 l 597 903 m 171 986 q 210 1088 171 1046 q 304 1131 249 1131 q 342 1123 326 1131 q 376 1101 358 1115 q 408 1083 394 1089 q 438 1076 421 1076 q 465 1090 454 1076 q 475 1124 475 1103 l 572 1124 q 533 1022 572 1064 q 438 979 494 979 q 392 988 411 979 q 349 1013 372 997 q 304 1033 319 1033 q 278 1019 288 1033 q 268 986 268 1006 l 171 986 z "},"F":{"ha":722,"x_min":139,"x_max":597,"o":"m 597 903 l 597 743 l 306 743 l 306 524 l 597 524 l 597 364 l 306 364 l 306 0 l 139 0 l 139 903 l 597 903 z "},"G":{"ha":840,"x_min":111,"x_max":729,"o":"m 549 0 q 319 56 418 0 q 166 215 221 113 q 111 451 111 317 q 166 688 111 585 q 320 847 221 790 q 549 903 419 903 l 715 903 l 715 743 l 563 743 q 413 706 478 743 q 313 602 349 668 q 278 451 278 536 q 313 300 278 367 q 413 197 349 233 q 563 160 478 160 l 563 458 l 729 458 l 729 0 l 549 0 z "},"Ğ":{"ha":840,"x_min":111,"x_max":729,"o":"m 549 0 q 319 56 418 0 q 166 215 221 113 q 111 451 111 317 q 166 688 111 585 q 320 847 221 790 q 549 903 419 903 l 715 903 l 715 743 l 563 743 q 413 706 478 743 q 313 602 349 668 q 278 451 278 536 q 313 300 278 367 q 413 197 349 233 q 563 160 478 160 l 563 458 l 729 458 l 729 0 l 549 0 m 535 1111 q 543 1092 535 1100 q 563 1083 551 1083 q 582 1092 574 1083 q 590 1111 590 1100 l 700 1111 q 662 1009 700 1047 q 563 971 624 971 q 463 1009 501 971 q 425 1111 425 1047 l 535 1111 z "},"Ģ":{"ha":840,"x_min":111,"x_max":729,"o":"m 549 0 q 319 56 418 0 q 166 215 221 113 q 111 451 111 317 q 166 688 111 585 q 320 847 221 790 q 549 903 419 903 l 715 903 l 715 743 l 563 743 q 413 706 478 743 q 313 602 349 668 q 278 451 278 536 q 313 300 278 367 q 413 197 349 233 q 563 160 478 160 l 563 458 l 729 458 l 729 0 l 549 0 m 499 -78 l 615 -78 l 515 -292 l 399 -292 l 499 -78 z "},"Ġ":{"ha":840,"x_min":111,"x_max":729,"o":"m 549 0 q 319 56 418 0 q 166 215 221 113 q 111 451 111 317 q 166 688 111 585 q 320 847 221 790 q 549 903 419 903 l 715 903 l 715 743 l 563 743 q 413 706 478 743 q 313 602 349 668 q 278 451 278 536 q 313 300 278 367 q 413 197 349 233 q 563 160 478 160 l 563 458 l 729 458 l 729 0 l 549 0 m 563 986 q 503 1010 528 986 q 479 1069 479 1035 q 503 1129 479 1106 q 563 1153 528 1153 q 622 1129 599 1153 q 646 1069 646 1106 q 622 1010 646 1035 q 563 986 599 986 z "},"H":{"ha":882,"x_min":139,"x_max":743,"o":"m 139 903 l 306 903 l 306 532 l 576 532 l 576 903 l 743 903 l 743 0 l 576 0 l 576 372 l 306 372 l 306 0 l 139 0 l 139 903 z "},"Ħ":{"ha":882,"x_min":42,"x_max":840,"o":"m 139 800 l 139 903 l 306 903 l 306 800 l 576 800 l 576 903 l 743 903 l 743 800 l 840 800 l 840 661 l 743 661 l 743 0 l 576 0 l 576 372 l 306 372 l 306 0 l 139 0 l 139 661 l 42 661 l 42 800 l 139 800 m 576 532 l 576 661 l 306 661 l 306 532 l 576 532 z "},"I":{"ha":417,"x_min":125,"x_max":292,"o":"m 125 903 l 292 903 l 292 0 l 125 0 l 125 903 z "},"Ĳ":{"ha":744,"x_min":139,"x_max":606,"o":"m 139 901 l 306 901 l 306 417 l 139 417 l 139 901 m 139 278 l 306 278 l 306 201 q 324 153 306 171 q 372 135 342 135 q 421 153 403 135 q 439 201 439 171 l 439 901 l 606 901 l 606 194 q 542 33 606 94 q 372 -28 478 -28 q 203 33 267 -28 q 139 194 139 94 l 139 278 z "},"Í":{"ha":417,"x_min":125,"x_max":368,"o":"m 125 903 l 292 903 l 292 0 l 125 0 l 125 903 m 208 1124 l 368 1124 l 292 985 l 132 985 l 208 1124 z "},"Î":{"ha":417,"x_min":35,"x_max":382,"o":"m 125 903 l 292 903 l 292 0 l 125 0 l 125 903 m 196 1110 l 221 1110 l 382 986 l 222 986 l 208 999 l 194 986 l 35 986 l 196 1110 z "},"Ï":{"ha":417,"x_min":14,"x_max":403,"o":"m 125 903 l 292 903 l 292 0 l 125 0 l 125 903 m 319 986 q 260 1010 285 986 q 236 1069 236 1035 q 260 1129 236 1106 q 319 1153 285 1153 q 379 1129 356 1153 q 403 1069 403 1106 q 379 1010 403 1035 q 319 986 356 986 m 14 1069 q 38 1129 14 1106 q 97 1153 63 1153 q 157 1129 133 1153 q 181 1069 181 1106 q 157 1010 181 1035 q 97 986 133 986 q 38 1010 63 986 q 14 1069 14 1035 z "},"İ":{"ha":417,"x_min":125,"x_max":292,"o":"m 125 903 l 292 903 l 292 0 l 125 0 l 125 903 m 208 986 q 149 1010 174 986 q 125 1069 125 1035 q 149 1129 125 1106 q 208 1153 174 1153 q 268 1129 244 1153 q 292 1069 292 1106 q 268 1010 292 1035 q 208 986 244 986 z "},"Ì":{"ha":417,"x_min":49,"x_max":292,"o":"m 125 903 l 292 903 l 292 0 l 125 0 l 125 903 m 125 985 l 49 1124 l 208 1124 l 285 985 l 125 985 z "},"Ī":{"ha":417,"x_min":21,"x_max":396,"o":"m 125 903 l 292 903 l 292 0 l 125 0 l 125 903 m 21 1111 l 396 1111 l 396 1000 l 21 1000 l 21 1111 z "},"Į":{"ha":417,"x_min":44,"x_max":378,"o":"m 125 903 l 292 903 l 292 0 l 214 -167 l 378 -167 l 378 -278 l 44 -278 l 175 0 l 125 0 l 125 903 z "},"Ĩ":{"ha":417,"x_min":11,"x_max":413,"o":"m 125 903 l 292 903 l 292 0 l 125 0 l 125 903 m 11 986 q 50 1088 11 1046 q 144 1131 89 1131 q 183 1123 167 1131 q 217 1101 199 1115 q 248 1083 235 1089 q 278 1076 261 1076 q 305 1090 294 1076 q 315 1124 315 1103 l 413 1124 q 374 1022 413 1064 q 278 979 335 979 q 232 988 251 979 q 189 1013 213 997 q 144 1033 160 1033 q 118 1019 128 1033 q 108 986 108 1006 l 11 986 z "},"J":{"ha":675,"x_min":69,"x_max":536,"o":"m 303 -28 q 133 33 197 -28 q 69 194 69 94 l 69 383 l 236 383 l 236 201 q 254 153 236 171 q 303 135 272 135 q 351 153 333 135 q 369 201 369 171 l 369 903 l 536 903 l 536 194 q 472 33 536 94 q 303 -28 408 -28 z "},"K":{"ha":819,"x_min":139,"x_max":750,"o":"m 306 903 l 306 442 l 361 442 l 553 903 l 718 903 l 529 449 l 750 0 l 581 0 l 440 282 l 306 282 l 306 0 l 139 0 l 139 903 l 306 903 z "},"Ķ":{"ha":819,"x_min":139,"x_max":750,"o":"m 306 903 l 306 442 l 361 442 l 553 903 l 718 903 l 529 449 l 750 0 l 581 0 l 440 282 l 306 282 l 306 0 l 139 0 l 139 903 l 306 903 m 364 -78 l 481 -78 l 381 -292 l 264 -292 l 364 -78 z "},"L":{"ha":743,"x_min":139,"x_max":674,"o":"m 139 903 l 306 903 l 306 167 l 674 167 l 674 0 l 139 0 l 139 903 z "},"Ĺ":{"ha":743,"x_min":139,"x_max":674,"o":"m 139 903 l 306 903 l 306 167 l 674 167 l 674 0 l 139 0 l 139 903 m 222 1124 l 382 1124 l 306 985 l 146 985 l 222 1124 z "},"Ľ":{"ha":743,"x_min":49,"x_max":674,"o":"m 139 903 l 306 903 l 306 167 l 674 167 l 674 0 l 139 0 l 139 903 m 235 999 l 210 999 l 49 1122 l 208 1122 l 222 1110 l 236 1122 l 396 1122 l 235 999 z "},"Ļ":{"ha":743,"x_min":139,"x_max":674,"o":"m 139 903 l 306 903 l 306 167 l 674 167 l 674 0 l 139 0 l 139 903 m 329 -78 l 446 -78 l 346 -292 l 229 -292 l 329 -78 z "},"Ŀ":{"ha":743,"x_min":139,"x_max":729,"o":"m 139 903 l 306 903 l 306 167 l 674 167 l 674 0 l 139 0 l 139 903 m 611 340 q 528 375 563 340 q 493 458 493 410 q 528 542 493 507 q 611 576 563 576 q 694 542 660 576 q 729 458 729 507 q 694 375 729 410 q 611 340 660 340 z "},"Ł":{"ha":743,"x_min":69,"x_max":674,"o":"m 69 419 l 139 472 l 139 903 l 306 903 l 306 599 l 451 708 l 451 517 l 306 406 l 306 167 l 674 167 l 674 0 l 139 0 l 139 279 l 69 226 l 69 419 z "},"M":{"ha":1161,"x_min":139,"x_max":1022,"o":"m 306 649 l 306 0 l 139 0 l 139 903 l 306 903 l 581 531 l 856 903 l 1022 903 l 1022 0 l 856 0 l 856 649 l 650 371 l 511 371 l 306 649 z "},"N":{"ha":882,"x_min":139,"x_max":743,"o":"m 306 647 l 306 0 l 139 0 l 139 903 l 306 903 l 576 531 l 576 903 l 743 903 l 743 0 l 576 0 l 576 371 l 507 371 l 306 647 z "},"Ń":{"ha":882,"x_min":139,"x_max":743,"o":"m 306 647 l 306 0 l 139 0 l 139 903 l 306 903 l 576 531 l 576 903 l 743 903 l 743 0 l 576 0 l 576 371 l 507 371 l 306 647 m 442 1125 l 601 1125 l 525 986 l 365 986 l 442 1125 z "},"Ň":{"ha":882,"x_min":139,"x_max":743,"o":"m 306 647 l 306 0 l 139 0 l 139 903 l 306 903 l 576 531 l 576 903 l 743 903 l 743 0 l 576 0 l 576 371 l 507 371 l 306 647 m 454 1000 l 429 1000 l 268 1124 l 428 1124 l 442 1111 l 456 1124 l 615 1124 l 454 1000 z "},"Ņ":{"ha":882,"x_min":139,"x_max":743,"o":"m 306 647 l 306 0 l 139 0 l 139 903 l 306 903 l 576 531 l 576 903 l 743 903 l 743 0 l 576 0 l 576 371 l 507 371 l 306 647 m 378 -78 l 494 -78 l 394 -292 l 278 -292 l 378 -78 z "},"Ñ":{"ha":882,"x_min":139,"x_max":743,"o":"m 306 647 l 306 0 l 139 0 l 139 903 l 306 903 l 576 531 l 576 903 l 743 903 l 743 0 l 576 0 l 576 371 l 507 371 l 306 647 m 244 988 q 283 1090 244 1047 q 378 1132 322 1132 q 416 1124 400 1132 q 450 1103 432 1117 q 481 1084 468 1090 q 511 1078 494 1078 q 538 1091 528 1078 q 549 1125 549 1104 l 646 1125 q 607 1023 646 1065 q 511 981 568 981 q 465 990 485 981 q 422 1014 446 999 q 378 1035 393 1035 q 351 1021 361 1035 q 342 988 342 1007 l 244 988 z "},"Ŋ":{"ha":882,"x_min":139,"x_max":743,"o":"m 306 647 l 306 0 l 139 0 l 139 903 l 306 903 l 306 901 l 576 535 l 576 901 l 743 901 l 743 -278 l 443 -278 l 443 -125 l 576 -125 l 576 369 l 511 369 l 306 647 z "},"O":{"ha":1167,"x_min":111,"x_max":1056,"o":"m 583 -22 q 347 41 456 -22 q 174 213 238 104 q 111 450 111 322 q 174 687 111 578 q 347 859 238 796 q 583 922 456 922 q 820 859 711 922 q 992 687 929 796 q 1056 450 1056 578 q 992 213 1056 322 q 820 41 929 104 q 583 -22 711 -22 m 285 450 q 325 300 285 368 q 433 192 365 232 q 583 151 501 151 q 733 192 664 151 q 842 301 801 232 q 882 450 882 369 q 842 601 882 532 q 733 709 801 669 q 583 749 665 749 q 433 708 501 749 q 325 600 365 668 q 285 450 285 532 z "},"Ó":{"ha":1167,"x_min":111,"x_max":1056,"o":"m 583 -22 q 347 41 456 -22 q 174 213 238 104 q 111 450 111 322 q 174 687 111 578 q 347 859 238 796 q 583 922 456 922 q 820 859 711 922 q 992 687 929 796 q 1056 450 1056 578 q 992 213 1056 322 q 820 41 929 104 q 583 -22 711 -22 m 285 450 q 325 300 285 368 q 433 192 365 232 q 583 151 501 151 q 733 192 664 151 q 842 301 801 232 q 882 450 882 369 q 842 601 882 532 q 733 709 801 669 q 583 749 665 749 q 433 708 501 749 q 325 600 365 668 q 285 450 285 532 m 583 1122 l 743 1122 l 667 983 l 507 983 l 583 1122 z "},"Ô":{"ha":1167,"x_min":111,"x_max":1056,"o":"m 583 -22 q 347 41 456 -22 q 174 213 238 104 q 111 450 111 322 q 174 687 111 578 q 347 859 238 796 q 583 922 456 922 q 820 859 711 922 q 992 687 929 796 q 1056 450 1056 578 q 992 213 1056 322 q 820 41 929 104 q 583 -22 711 -22 m 285 450 q 325 300 285 368 q 433 192 365 232 q 583 151 501 151 q 733 192 664 151 q 842 301 801 232 q 882 450 882 369 q 842 601 882 532 q 733 709 801 669 q 583 749 665 749 q 433 708 501 749 q 325 600 365 668 q 285 450 285 532 m 571 1108 l 596 1108 l 757 985 l 597 985 l 583 997 l 569 985 l 410 985 l 571 1108 z "},"Ö":{"ha":1167,"x_min":111,"x_max":1056,"o":"m 583 -22 q 347 41 456 -22 q 174 213 238 104 q 111 450 111 322 q 174 687 111 578 q 347 859 238 796 q 583 922 456 922 q 820 859 711 922 q 992 687 929 796 q 1056 450 1056 578 q 992 213 1056 322 q 820 41 929 104 q 583 -22 711 -22 m 285 450 q 325 300 285 368 q 433 192 365 232 q 583 151 501 151 q 733 192 664 151 q 842 301 801 232 q 882 450 882 369 q 842 601 882 532 q 733 709 801 669 q 583 749 665 749 q 433 708 501 749 q 325 600 365 668 q 285 450 285 532 m 694 985 q 635 1009 660 985 q 611 1068 611 1033 q 635 1128 611 1104 q 694 1151 660 1151 q 754 1128 731 1151 q 778 1068 778 1104 q 754 1009 778 1033 q 694 985 731 985 m 389 1068 q 413 1128 389 1104 q 472 1151 438 1151 q 532 1128 508 1151 q 556 1068 556 1104 q 532 1009 556 1033 q 472 985 508 985 q 413 1009 438 985 q 389 1068 389 1033 z "},"Ò":{"ha":1167,"x_min":111,"x_max":1056,"o":"m 583 -22 q 347 41 456 -22 q 174 213 238 104 q 111 450 111 322 q 174 687 111 578 q 347 859 238 796 q 583 922 456 922 q 820 859 711 922 q 992 687 929 796 q 1056 450 1056 578 q 992 213 1056 322 q 820 41 929 104 q 583 -22 711 -22 m 285 450 q 325 300 285 368 q 433 192 365 232 q 583 151 501 151 q 733 192 664 151 q 842 301 801 232 q 882 450 882 369 q 842 601 882 532 q 733 709 801 669 q 583 749 665 749 q 433 708 501 749 q 325 600 365 668 q 285 450 285 532 m 500 983 l 424 1122 l 583 1122 l 660 983 l 500 983 z "},"Ő":{"ha":1167,"x_min":111,"x_max":1056,"o":"m 583 -22 q 347 41 456 -22 q 174 213 238 104 q 111 450 111 322 q 174 687 111 578 q 347 859 238 796 q 583 922 456 922 q 820 859 711 922 q 992 687 929 796 q 1056 450 1056 578 q 992 213 1056 322 q 820 41 929 104 q 583 -22 711 -22 m 285 450 q 325 300 285 368 q 433 192 365 232 q 583 151 501 151 q 733 192 664 151 q 842 301 801 232 q 882 450 882 369 q 842 601 882 532 q 733 709 801 669 q 583 749 665 749 q 433 708 501 749 q 325 600 365 668 q 285 450 285 532 m 724 1233 l 854 1233 l 776 983 l 646 983 l 724 1233 m 474 1233 l 604 1233 l 526 983 l 396 983 l 474 1233 z "},"Ō":{"ha":1167,"x_min":111,"x_max":1056,"o":"m 583 -22 q 347 41 456 -22 q 174 213 238 104 q 111 450 111 322 q 174 687 111 578 q 347 859 238 796 q 583 922 456 922 q 820 859 711 922 q 992 687 929 796 q 1056 450 1056 578 q 992 213 1056 322 q 820 41 929 104 q 583 -22 711 -22 m 285 450 q 325 300 285 368 q 433 192 365 232 q 583 151 501 151 q 733 192 664 151 q 842 301 801 232 q 882 450 882 369 q 842 601 882 532 q 733 709 801 669 q 583 749 665 749 q 433 708 501 749 q 325 600 365 668 q 285 450 285 532 m 354 1122 l 813 1122 l 813 1011 l 354 1011 l 354 1122 z "},"Ø":{"ha":1194,"x_min":106,"x_max":1088,"o":"m 233 149 q 153 288 182 211 q 125 450 125 365 q 188 687 125 578 q 360 859 251 796 q 597 922 469 922 q 843 853 732 922 l 885 901 l 1088 901 l 960 753 q 1041 613 1013 690 q 1069 450 1069 535 q 1006 213 1069 322 q 834 41 943 104 q 597 -22 725 -22 q 350 47 463 -22 l 308 0 l 106 0 l 233 149 m 292 450 q 344 276 292 356 l 732 725 q 597 756 668 756 q 444 715 514 756 q 333 603 374 674 q 292 450 292 533 m 461 176 q 597 144 522 144 q 751 185 681 144 q 862 297 821 226 q 903 450 903 367 q 849 625 903 547 l 461 176 z "},"Õ":{"ha":1167,"x_min":111,"x_max":1056,"o":"m 583 -22 q 347 41 456 -22 q 174 213 238 104 q 111 450 111 322 q 174 687 111 578 q 347 859 238 796 q 583 922 456 922 q 820 859 711 922 q 992 687 929 796 q 1056 450 1056 578 q 992 213 1056 322 q 820 41 929 104 q 583 -22 711 -22 m 285 450 q 325 300 285 368 q 433 192 365 232 q 583 151 501 151 q 733 192 664 151 q 842 301 801 232 q 882 450 882 369 q 842 601 882 532 q 733 709 801 669 q 583 749 665 749 q 433 708 501 749 q 325 600 365 668 q 285 450 285 532 m 386 985 q 425 1087 386 1044 q 519 1129 464 1129 q 558 1122 542 1129 q 592 1100 574 1114 q 623 1081 610 1088 q 653 1075 636 1075 q 680 1088 669 1075 q 690 1122 690 1101 l 788 1122 q 749 1020 788 1063 q 653 978 710 978 q 607 987 626 978 q 564 1011 588 996 q 519 1032 535 1032 q 493 1018 503 1032 q 483 985 483 1004 l 386 985 z "},"Œ":{"ha":1146,"x_min":111,"x_max":1021,"o":"m 563 743 q 413 706 478 743 q 313 602 349 668 q 278 451 278 536 q 313 300 278 367 q 413 197 349 233 q 563 160 478 160 l 576 160 l 576 743 l 563 743 m 111 451 q 166 688 111 585 q 320 847 221 790 q 549 903 419 903 l 743 903 l 743 901 l 1021 901 l 1021 735 l 743 735 l 743 533 l 951 533 l 951 367 l 743 367 l 743 167 l 1021 167 l 1021 0 l 549 0 q 319 56 418 0 q 166 215 221 113 q 111 451 111 317 z "},"P":{"ha":840,"x_min":139,"x_max":743,"o":"m 444 903 q 601 865 533 903 q 706 759 668 828 q 743 600 743 690 q 706 441 743 510 q 601 335 668 372 q 444 297 533 297 l 306 297 l 306 0 l 139 0 l 139 903 l 444 903 m 438 457 q 538 497 500 457 q 576 600 576 538 q 538 703 576 663 q 438 743 500 743 l 306 743 l 306 457 l 438 457 z "},"Þ":{"ha":833,"x_min":139,"x_max":743,"o":"m 139 974 l 306 974 l 306 763 l 444 763 q 601 725 533 763 q 706 619 668 688 q 743 460 743 550 q 706 301 743 369 q 601 194 668 232 q 444 157 533 157 l 306 157 l 306 0 l 139 0 l 139 974 m 438 324 q 538 362 499 324 q 576 460 576 400 q 538 558 576 521 q 438 596 500 596 l 306 596 l 306 324 l 438 324 z "},"Q":{"ha":1215,"x_min":111,"x_max":1104,"o":"m 842 54 q 583 -22 724 -22 q 347 41 456 -22 q 174 213 238 104 q 111 450 111 322 q 174 687 111 578 q 347 859 238 796 q 583 922 456 922 q 820 859 711 922 q 992 687 929 796 q 1056 450 1056 578 q 1029 293 1056 368 q 954 158 1003 218 l 1104 0 l 894 0 l 842 54 m 285 450 q 325 300 285 368 q 433 192 365 232 q 583 151 501 151 q 717 183 656 151 l 572 331 l 790 331 l 833 286 q 882 450 882 361 q 842 601 882 532 q 733 709 801 669 q 583 749 665 749 q 433 708 501 749 q 325 600 365 668 q 285 450 285 532 z "},"R":{"ha":857,"x_min":139,"x_max":746,"o":"m 426 297 l 306 297 l 306 0 l 139 0 l 139 903 l 444 903 q 601 865 533 903 q 706 759 668 828 q 743 600 743 690 q 701 433 743 504 q 585 326 660 363 l 746 0 l 572 0 l 426 297 m 438 457 q 538 497 500 457 q 576 600 576 538 q 538 703 576 663 q 438 743 500 743 l 306 743 l 306 457 l 438 457 z "},"Ŕ":{"ha":857,"x_min":139,"x_max":746,"o":"m 426 297 l 306 297 l 306 0 l 139 0 l 139 903 l 444 903 q 601 865 533 903 q 706 759 668 828 q 743 600 743 690 q 701 433 743 504 q 585 326 660 363 l 746 0 l 572 0 l 426 297 m 438 457 q 538 497 500 457 q 576 600 576 538 q 538 703 576 663 q 438 743 500 743 l 306 743 l 306 457 l 438 457 m 401 1124 l 561 1124 l 485 985 l 325 985 l 401 1124 z "},"Ř":{"ha":857,"x_min":139,"x_max":746,"o":"m 426 297 l 306 297 l 306 0 l 139 0 l 139 903 l 444 903 q 601 865 533 903 q 706 759 668 828 q 743 600 743 690 q 701 433 743 504 q 585 326 660 363 l 746 0 l 572 0 l 426 297 m 438 457 q 538 497 500 457 q 576 600 576 538 q 538 703 576 663 q 438 743 500 743 l 306 743 l 306 457 l 438 457 m 414 999 l 389 999 l 228 1122 l 388 1122 l 401 1110 l 415 1122 l 575 1122 l 414 999 z "},"Ŗ":{"ha":857,"x_min":139,"x_max":746,"o":"m 426 297 l 306 297 l 306 0 l 139 0 l 139 903 l 444 903 q 601 865 533 903 q 706 759 668 828 q 743 600 743 690 q 701 433 743 504 q 585 326 660 363 l 746 0 l 572 0 l 426 297 m 438 457 q 538 497 500 457 q 576 600 576 538 q 538 703 576 663 q 438 743 500 743 l 306 743 l 306 457 l 438 457 m 379 -78 l 496 -78 l 396 -292 l 279 -292 l 379 -78 z "},"S":{"ha":778,"x_min":83,"x_max":694,"o":"m 163 160 l 382 160 q 488 198 449 160 q 528 300 528 236 q 491 394 528 360 q 393 432 454 429 l 393 310 l 383 310 q 219 349 288 310 q 117 455 151 389 q 83 599 83 521 q 117 747 83 678 q 219 860 151 817 q 383 903 288 903 l 546 903 l 546 743 l 396 743 q 290 704 329 743 q 250 601 250 665 q 287 507 250 542 q 385 469 324 472 l 385 592 l 394 592 q 558 552 490 592 q 660 447 626 513 q 694 303 694 381 q 660 155 694 224 q 558 43 626 86 q 394 0 490 0 l 163 0 l 163 160 z "},"Ś":{"ha":778,"x_min":83,"x_max":694,"o":"m 163 160 l 382 160 q 488 198 449 160 q 528 300 528 236 q 491 394 528 360 q 393 432 454 429 l 393 310 l 383 310 q 219 349 288 310 q 117 455 151 389 q 83 599 83 521 q 117 747 83 678 q 219 860 151 817 q 383 903 288 903 l 546 903 l 546 743 l 396 743 q 290 704 329 743 q 250 601 250 665 q 287 507 250 542 q 385 469 324 472 l 385 592 l 394 592 q 558 552 490 592 q 660 447 626 513 q 694 303 694 381 q 660 155 694 224 q 558 43 626 86 q 394 0 490 0 l 163 0 l 163 160 m 389 1125 l 549 1125 l 472 986 l 313 986 l 389 1125 z "},"Š":{"ha":778,"x_min":83,"x_max":694,"o":"m 163 160 l 382 160 q 488 198 449 160 q 528 300 528 236 q 491 394 528 360 q 393 432 454 429 l 393 310 l 383 310 q 219 349 288 310 q 117 455 151 389 q 83 599 83 521 q 117 747 83 678 q 219 860 151 817 q 383 903 288 903 l 546 903 l 546 743 l 396 743 q 290 704 329 743 q 250 601 250 665 q 287 507 250 542 q 385 469 324 472 l 385 592 l 394 592 q 558 552 490 592 q 660 447 626 513 q 694 303 694 381 q 660 155 694 224 q 558 43 626 86 q 394 0 490 0 l 163 0 l 163 160 m 401 1000 l 376 1000 l 215 1124 l 375 1124 l 389 1111 l 403 1124 l 563 1124 l 401 1000 z "},"Ş":{"ha":778,"x_min":83,"x_max":694,"o":"m 163 160 l 382 160 q 488 198 449 160 q 528 300 528 236 q 491 394 528 360 q 393 432 454 429 l 393 310 l 383 310 q 219 349 288 310 q 117 455 151 389 q 83 599 83 521 q 117 747 83 678 q 219 860 151 817 q 383 903 288 903 l 546 903 l 546 743 l 396 743 q 290 704 329 743 q 250 601 250 665 q 287 507 250 542 q 385 469 324 472 l 385 592 l 394 592 q 558 552 490 592 q 660 447 626 513 q 694 303 694 381 q 660 155 694 224 q 558 43 626 86 q 394 0 490 0 l 163 0 l 163 160 m 360 -229 q 379 -221 371 -229 q 388 -201 388 -212 q 379 -182 388 -190 q 360 -174 371 -174 l 360 -64 q 462 -102 424 -64 q 500 -201 500 -140 q 462 -301 500 -262 q 360 -339 424 -339 l 360 -229 z "},"Ș":{"ha":778,"x_min":83,"x_max":694,"o":"m 163 160 l 382 160 q 488 198 449 160 q 528 300 528 236 q 491 394 528 360 q 393 432 454 429 l 393 310 l 383 310 q 219 349 288 310 q 117 455 151 389 q 83 599 83 521 q 117 747 83 678 q 219 860 151 817 q 383 903 288 903 l 546 903 l 546 743 l 396 743 q 290 704 329 743 q 250 601 250 665 q 287 507 250 542 q 385 469 324 472 l 385 592 l 394 592 q 558 552 490 592 q 660 447 626 513 q 694 303 694 381 q 660 155 694 224 q 558 43 626 86 q 394 0 490 0 l 163 0 l 163 160 m 325 -78 l 442 -78 l 342 -292 l 225 -292 l 325 -78 z "},"ẞ":{"ha":854,"x_min":139,"x_max":785,"o":"m 381 743 q 326 720 347 744 q 306 660 306 696 l 306 0 l 139 0 l 139 660 q 206 836 139 769 q 381 903 272 903 l 774 903 l 631 561 q 743 455 701 524 q 785 303 785 386 q 745 150 785 219 q 637 40 706 81 q 485 0 568 0 l 403 0 l 403 160 l 478 160 q 581 203 543 160 q 618 303 618 246 q 582 399 618 358 q 482 439 546 439 l 414 439 l 542 743 l 381 743 z "},"T":{"ha":743,"x_min":69,"x_max":674,"o":"m 69 903 l 674 903 l 674 743 l 456 743 l 456 0 l 289 0 l 289 743 l 69 743 l 69 903 z "},"Ŧ":{"ha":743,"x_min":69,"x_max":674,"o":"m 289 453 l 289 743 l 69 743 l 69 903 l 674 903 l 674 743 l 456 743 l 456 453 l 588 453 l 588 314 l 456 314 l 456 0 l 289 0 l 289 314 l 157 314 l 157 453 l 289 453 z "},"Ť":{"ha":743,"x_min":69,"x_max":674,"o":"m 69 903 l 674 903 l 674 743 l 456 743 l 456 0 l 289 0 l 289 743 l 69 743 l 69 903 m 385 1000 l 360 1000 l 199 1124 l 358 1124 l 372 1111 l 386 1124 l 546 1124 l 385 1000 z "},"Ţ":{"ha":743,"x_min":69,"x_max":674,"o":"m 69 903 l 674 903 l 674 743 l 456 743 l 456 0 l 289 0 l 289 743 l 69 743 l 69 903 m 343 -229 q 363 -221 354 -229 q 371 -201 371 -212 q 363 -182 371 -190 q 343 -174 354 -174 l 343 -64 q 445 -102 407 -64 q 483 -201 483 -140 q 445 -301 483 -262 q 343 -339 407 -339 l 343 -229 z "},"Ț":{"ha":743,"x_min":69,"x_max":674,"o":"m 69 903 l 674 903 l 674 743 l 456 743 l 456 0 l 289 0 l 289 743 l 69 743 l 69 903 m 308 -78 l 425 -78 l 325 -292 l 208 -292 l 308 -78 z "},"U":{"ha":958,"x_min":139,"x_max":819,"o":"m 479 142 q 606 190 558 142 q 653 319 653 239 l 653 903 l 819 903 l 819 306 q 777 135 819 208 q 658 20 735 61 q 479 -21 581 -21 q 301 20 378 -21 q 181 135 224 61 q 139 306 139 208 l 139 903 l 306 903 l 306 319 q 353 190 306 239 q 479 142 400 142 z "},"Ú":{"ha":958,"x_min":139,"x_max":819,"o":"m 479 142 q 606 190 558 142 q 653 319 653 239 l 653 903 l 819 903 l 819 306 q 777 135 819 208 q 658 20 735 61 q 479 -21 581 -21 q 301 20 378 -21 q 181 135 224 61 q 139 306 139 208 l 139 903 l 306 903 l 306 319 q 353 190 306 239 q 479 142 400 142 m 479 1125 l 639 1125 l 563 986 l 403 986 l 479 1125 z "},"Û":{"ha":958,"x_min":139,"x_max":819,"o":"m 479 142 q 606 190 558 142 q 653 319 653 239 l 653 903 l 819 903 l 819 306 q 777 135 819 208 q 658 20 735 61 q 479 -21 581 -21 q 301 20 378 -21 q 181 135 224 61 q 139 306 139 208 l 139 903 l 306 903 l 306 319 q 353 190 306 239 q 479 142 400 142 m 467 1111 l 492 1111 l 653 988 l 493 988 l 479 1000 l 465 988 l 306 988 l 467 1111 z "},"Ü":{"ha":958,"x_min":139,"x_max":819,"o":"m 479 142 q 606 190 558 142 q 653 319 653 239 l 653 903 l 819 903 l 819 306 q 777 135 819 208 q 658 20 735 61 q 479 -21 581 -21 q 301 20 378 -21 q 181 135 224 61 q 139 306 139 208 l 139 903 l 306 903 l 306 319 q 353 190 306 239 q 479 142 400 142 m 590 988 q 531 1012 556 988 q 507 1071 507 1036 q 531 1131 507 1107 q 590 1154 556 1154 q 650 1131 626 1154 q 674 1071 674 1107 q 650 1012 674 1036 q 590 988 626 988 m 285 1071 q 309 1131 285 1107 q 368 1154 333 1154 q 428 1131 404 1154 q 451 1071 451 1107 q 428 1012 451 1036 q 368 988 404 988 q 309 1012 333 988 q 285 1071 285 1036 z "},"Ù":{"ha":958,"x_min":139,"x_max":819,"o":"m 479 142 q 606 190 558 142 q 653 319 653 239 l 653 903 l 819 903 l 819 306 q 777 135 819 208 q 658 20 735 61 q 479 -21 581 -21 q 301 20 378 -21 q 181 135 224 61 q 139 306 139 208 l 139 903 l 306 903 l 306 319 q 353 190 306 239 q 479 142 400 142 m 396 986 l 319 1125 l 479 1125 l 556 986 l 396 986 z "},"Ű":{"ha":958,"x_min":139,"x_max":819,"o":"m 479 142 q 606 190 558 142 q 653 319 653 239 l 653 903 l 819 903 l 819 306 q 777 135 819 208 q 658 20 735 61 q 479 -21 581 -21 q 301 20 378 -21 q 181 135 224 61 q 139 306 139 208 l 139 903 l 306 903 l 306 319 q 353 190 306 239 q 479 142 400 142 m 619 1236 l 750 1236 l 672 986 l 542 986 l 619 1236 m 369 1236 l 500 1236 l 422 986 l 292 986 l 369 1236 z "},"Ū":{"ha":958,"x_min":139,"x_max":819,"o":"m 479 142 q 606 190 558 142 q 653 319 653 239 l 653 903 l 819 903 l 819 306 q 777 135 819 208 q 658 20 735 61 q 479 -21 581 -21 q 301 20 378 -21 q 181 135 224 61 q 139 306 139 208 l 139 903 l 306 903 l 306 319 q 353 190 306 239 q 479 142 400 142 m 250 1125 l 708 1125 l 708 1014 l 250 1014 l 250 1125 z "},"Ų":{"ha":958,"x_min":139,"x_max":819,"o":"m 479 142 q 606 190 558 142 q 653 319 653 239 l 653 903 l 819 903 l 819 306 q 763 113 819 194 q 610 0 707 32 l 532 -167 l 696 -167 l 696 -278 l 363 -278 l 483 -21 l 479 -21 q 301 20 378 -21 q 181 135 224 61 q 139 306 139 208 l 139 903 l 306 903 l 306 319 q 353 190 306 239 q 479 142 400 142 z "},"Ů":{"ha":958,"x_min":139,"x_max":819,"o":"m 479 142 q 606 190 558 142 q 653 319 653 239 l 653 903 l 819 903 l 819 306 q 777 135 819 208 q 658 20 735 61 q 479 -21 581 -21 q 301 20 378 -21 q 181 135 224 61 q 139 306 139 208 l 139 903 l 306 903 l 306 319 q 353 190 306 239 q 479 142 400 142 m 479 969 q 394 1004 429 969 q 360 1089 360 1039 q 394 1174 360 1139 q 479 1208 429 1208 q 564 1174 529 1208 q 599 1089 599 1139 q 564 1004 599 1039 q 479 969 529 969 m 431 1089 q 445 1055 431 1069 q 479 1040 460 1040 q 513 1055 499 1040 q 528 1089 528 1069 q 513 1123 528 1108 q 479 1138 499 1138 q 445 1123 460 1138 q 431 1089 431 1108 z "},"Ũ":{"ha":958,"x_min":139,"x_max":819,"o":"m 479 142 q 606 190 558 142 q 653 319 653 239 l 653 903 l 819 903 l 819 306 q 777 135 819 208 q 658 20 735 61 q 479 -21 581 -21 q 301 20 378 -21 q 181 135 224 61 q 139 306 139 208 l 139 903 l 306 903 l 306 319 q 353 190 306 239 q 479 142 400 142 m 282 988 q 321 1090 282 1047 q 415 1132 360 1132 q 453 1124 438 1132 q 488 1103 469 1117 q 519 1084 506 1090 q 549 1078 532 1078 q 576 1091 565 1078 q 586 1125 586 1104 l 683 1125 q 644 1023 683 1065 q 549 981 606 981 q 503 990 522 981 q 460 1014 483 999 q 415 1035 431 1035 q 389 1021 399 1035 q 379 988 379 1007 l 282 988 z "},"V":{"ha":889,"x_min":69,"x_max":819,"o":"m 563 0 l 339 0 l 69 903 l 238 903 l 453 154 l 660 903 l 819 903 l 563 0 z "},"W":{"ha":1222,"x_min":69,"x_max":1153,"o":"m 69 903 l 238 903 l 458 156 l 542 439 l 389 903 l 550 903 l 615 689 l 679 903 l 833 903 l 690 449 l 779 156 l 993 903 l 1153 903 l 882 0 l 686 0 l 615 214 l 549 0 l 353 0 l 69 903 z "},"Ẃ":{"ha":1222,"x_min":69,"x_max":1153,"o":"m 69 903 l 238 903 l 458 156 l 542 439 l 389 903 l 550 903 l 615 689 l 679 903 l 833 903 l 690 449 l 779 156 l 993 903 l 1153 903 l 882 0 l 686 0 l 615 214 l 549 0 l 353 0 l 69 903 m 611 1125 l 771 1125 l 694 986 l 535 986 l 611 1125 z "},"Ŵ":{"ha":1222,"x_min":69,"x_max":1153,"o":"m 69 903 l 238 903 l 458 156 l 542 439 l 389 903 l 550 903 l 615 689 l 679 903 l 833 903 l 690 449 l 779 156 l 993 903 l 1153 903 l 882 0 l 686 0 l 615 214 l 549 0 l 353 0 l 69 903 m 599 1111 l 624 1111 l 785 988 l 625 988 l 611 1000 l 597 988 l 438 988 l 599 1111 z "},"Ẅ":{"ha":1222,"x_min":69,"x_max":1153,"o":"m 69 903 l 238 903 l 458 156 l 542 439 l 389 903 l 550 903 l 615 689 l 679 903 l 833 903 l 690 449 l 779 156 l 993 903 l 1153 903 l 882 0 l 686 0 l 615 214 l 549 0 l 353 0 l 69 903 m 722 988 q 663 1012 688 988 q 639 1071 639 1036 q 663 1131 639 1107 q 722 1154 688 1154 q 782 1131 758 1154 q 806 1071 806 1107 q 782 1012 806 1036 q 722 988 758 988 m 417 1071 q 441 1131 417 1107 q 500 1154 465 1154 q 560 1131 536 1154 q 583 1071 583 1107 q 560 1012 583 1036 q 500 988 536 988 q 441 1012 465 988 q 417 1071 417 1036 z "},"Ẁ":{"ha":1222,"x_min":69,"x_max":1153,"o":"m 69 903 l 238 903 l 458 156 l 542 439 l 389 903 l 550 903 l 615 689 l 679 903 l 833 903 l 690 449 l 779 156 l 993 903 l 1153 903 l 882 0 l 686 0 l 615 214 l 549 0 l 353 0 l 69 903 m 528 986 l 451 1125 l 611 1125 l 688 986 l 528 986 z "},"X":{"ha":747,"x_min":69,"x_max":678,"o":"m 282 451 l 69 903 l 239 903 l 372 621 l 508 903 l 678 903 l 461 458 l 678 0 l 508 0 l 374 286 l 239 0 l 69 0 l 282 451 z "},"Y":{"ha":718,"x_min":56,"x_max":663,"o":"m 276 451 l 56 903 l 225 903 l 360 628 l 493 903 l 663 903 l 443 451 l 443 0 l 276 0 l 276 451 z "},"Ý":{"ha":718,"x_min":56,"x_max":663,"o":"m 276 451 l 56 903 l 225 903 l 360 628 l 493 903 l 663 903 l 443 451 l 443 0 l 276 0 l 276 451 m 360 1125 l 519 1125 l 443 986 l 283 986 l 360 1125 z "},"Ŷ":{"ha":718,"x_min":56,"x_max":663,"o":"m 276 451 l 56 903 l 225 903 l 360 628 l 493 903 l 663 903 l 443 451 l 443 0 l 276 0 l 276 451 m 347 1111 l 372 1111 l 533 988 l 374 988 l 360 1000 l 346 988 l 186 988 l 347 1111 z "},"Ÿ":{"ha":718,"x_min":56,"x_max":663,"o":"m 276 451 l 56 903 l 225 903 l 360 628 l 493 903 l 663 903 l 443 451 l 443 0 l 276 0 l 276 451 m 471 988 q 412 1012 436 988 q 388 1071 388 1036 q 412 1131 388 1107 q 471 1154 436 1154 q 531 1131 507 1154 q 554 1071 554 1107 q 531 1012 554 1036 q 471 988 507 988 m 165 1071 q 190 1131 165 1107 q 249 1154 214 1154 q 308 1131 285 1154 q 332 1071 332 1107 q 308 1012 332 1036 q 249 988 285 988 q 190 1012 214 988 q 165 1071 165 1036 z "},"Ỳ":{"ha":718,"x_min":56,"x_max":663,"o":"m 276 451 l 56 903 l 225 903 l 360 628 l 493 903 l 663 903 l 443 451 l 443 0 l 276 0 l 276 451 m 276 986 l 200 1125 l 360 1125 l 436 986 l 276 986 z "},"Ỹ":{"ha":718,"x_min":56,"x_max":663,"o":"m 276 451 l 56 903 l 225 903 l 360 628 l 493 903 l 663 903 l 443 451 l 443 0 l 276 0 l 276 451 m 163 988 q 201 1090 163 1047 q 296 1132 240 1132 q 334 1124 318 1132 q 368 1103 350 1117 q 399 1084 386 1090 q 429 1078 413 1078 q 456 1091 446 1078 q 467 1125 467 1104 l 564 1125 q 525 1023 564 1065 q 429 981 486 981 q 383 990 403 981 q 340 1014 364 999 q 296 1035 311 1035 q 269 1021 279 1035 q 260 988 260 1007 l 163 988 z "},"Z":{"ha":756,"x_min":69,"x_max":686,"o":"m 428 736 l 83 736 l 83 903 l 686 903 l 328 167 l 686 167 l 686 0 l 69 0 l 428 736 z "},"Ź":{"ha":756,"x_min":69,"x_max":686,"o":"m 428 736 l 83 736 l 83 903 l 686 903 l 328 167 l 686 167 l 686 0 l 69 0 l 428 736 m 378 1125 l 538 1125 l 461 986 l 301 986 l 378 1125 z "},"Ž":{"ha":756,"x_min":69,"x_max":686,"o":"m 428 736 l 83 736 l 83 903 l 686 903 l 328 167 l 686 167 l 686 0 l 69 0 l 428 736 m 390 1000 l 365 1000 l 204 1124 l 364 1124 l 378 1111 l 392 1124 l 551 1124 l 390 1000 z "},"Ż":{"ha":756,"x_min":69,"x_max":686,"o":"m 428 736 l 83 736 l 83 903 l 686 903 l 328 167 l 686 167 l 686 0 l 69 0 l 428 736 m 378 988 q 319 1012 343 988 q 294 1071 294 1036 q 319 1131 294 1107 q 378 1154 343 1154 q 438 1131 414 1154 q 461 1071 461 1107 q 438 1012 461 1036 q 378 988 414 988 z "},"a":{"ha":750,"x_min":111,"x_max":639,"o":"m 486 361 q 442 510 486 457 q 332 563 399 563 l 111 563 l 111 722 l 332 722 q 490 680 419 722 q 599 556 560 638 q 639 361 639 475 l 639 0 l 111 0 l 111 431 l 382 431 l 382 292 l 257 292 l 257 146 l 486 146 l 486 361 z "},"á":{"ha":750,"x_min":111,"x_max":639,"o":"m 486 361 q 442 510 486 457 q 332 563 399 563 l 111 563 l 111 722 l 332 722 q 490 680 419 722 q 599 556 560 638 q 639 361 639 475 l 639 0 l 111 0 l 111 431 l 382 431 l 382 292 l 257 292 l 257 146 l 486 146 l 486 361 m 332 944 l 492 944 l 415 806 l 256 806 l 332 944 z "},"ă":{"ha":750,"x_min":111,"x_max":639,"o":"m 486 361 q 442 510 486 457 q 332 563 399 563 l 111 563 l 111 722 l 332 722 q 490 680 419 722 q 599 556 560 638 q 639 361 639 475 l 639 0 l 111 0 l 111 431 l 382 431 l 382 292 l 257 292 l 257 146 l 486 146 l 486 361 m 304 932 q 313 913 304 921 q 332 904 321 904 q 351 913 343 904 q 360 932 360 921 l 469 932 q 431 830 469 868 q 332 792 393 792 q 233 830 271 792 q 194 932 194 868 l 304 932 z "},"â":{"ha":750,"x_min":111,"x_max":639,"o":"m 486 361 q 442 510 486 457 q 332 563 399 563 l 111 563 l 111 722 l 332 722 q 490 680 419 722 q 599 556 560 638 q 639 361 639 475 l 639 0 l 111 0 l 111 431 l 382 431 l 382 292 l 257 292 l 257 146 l 486 146 l 486 361 m 319 931 l 344 931 l 506 807 l 346 807 l 332 819 l 318 807 l 158 807 l 319 931 z "},"ä":{"ha":750,"x_min":111,"x_max":639,"o":"m 486 361 q 442 510 486 457 q 332 563 399 563 l 111 563 l 111 722 l 332 722 q 490 680 419 722 q 599 556 560 638 q 639 361 639 475 l 639 0 l 111 0 l 111 431 l 382 431 l 382 292 l 257 292 l 257 146 l 486 146 l 486 361 m 443 807 q 384 831 408 807 q 360 890 360 856 q 384 950 360 926 q 443 974 408 974 q 503 950 479 974 q 526 890 526 926 q 503 831 526 856 q 443 807 479 807 m 138 890 q 162 950 138 926 q 221 974 186 974 q 281 950 257 974 q 304 890 304 926 q 281 831 304 856 q 221 807 257 807 q 162 831 186 807 q 138 890 138 856 z "},"à":{"ha":750,"x_min":111,"x_max":639,"o":"m 486 361 q 442 510 486 457 q 332 563 399 563 l 111 563 l 111 722 l 332 722 q 490 680 419 722 q 599 556 560 638 q 639 361 639 475 l 639 0 l 111 0 l 111 431 l 382 431 l 382 292 l 257 292 l 257 146 l 486 146 l 486 361 m 249 806 l 172 944 l 332 944 l 408 806 l 249 806 z "},"ā":{"ha":750,"x_min":103,"x_max":639,"o":"m 486 361 q 442 510 486 457 q 332 563 399 563 l 111 563 l 111 722 l 332 722 q 490 680 419 722 q 599 556 560 638 q 639 361 639 475 l 639 0 l 111 0 l 111 431 l 382 431 l 382 292 l 257 292 l 257 146 l 486 146 l 486 361 m 103 944 l 561 944 l 561 833 l 103 833 l 103 944 z "},"ą":{"ha":750,"x_min":111,"x_max":725,"o":"m 486 361 q 442 510 486 457 q 332 563 399 563 l 111 563 l 111 722 l 332 722 q 490 680 419 722 q 599 556 560 638 q 639 361 639 475 l 639 0 l 561 -167 l 725 -167 l 725 -278 l 392 -278 l 522 0 l 111 0 l 111 431 l 382 431 l 382 292 l 257 292 l 257 146 l 486 146 l 486 361 z "},"å":{"ha":750,"x_min":111,"x_max":639,"o":"m 486 361 q 442 510 486 457 q 332 563 399 563 l 111 563 l 111 722 l 332 722 q 490 680 419 722 q 599 556 560 638 q 639 361 639 475 l 639 0 l 111 0 l 111 431 l 382 431 l 382 292 l 257 292 l 257 146 l 486 146 l 486 361 m 332 789 q 247 824 282 789 q 213 908 213 858 q 247 993 213 958 q 332 1028 282 1028 q 417 993 382 1028 q 451 908 451 958 q 417 824 451 858 q 332 789 382 789 m 283 908 q 298 874 283 889 q 332 860 313 860 q 366 874 351 860 q 381 908 381 889 q 366 942 381 928 q 332 957 351 957 q 298 942 313 957 q 283 908 283 928 z "},"ã":{"ha":750,"x_min":111,"x_max":639,"o":"m 486 361 q 442 510 486 457 q 332 563 399 563 l 111 563 l 111 722 l 332 722 q 490 680 419 722 q 599 556 560 638 q 639 361 639 475 l 639 0 l 111 0 l 111 431 l 382 431 l 382 292 l 257 292 l 257 146 l 486 146 l 486 361 m 135 807 q 174 909 135 867 q 268 951 213 951 q 306 944 290 951 q 340 922 322 936 q 372 903 358 910 q 401 897 385 897 q 428 910 418 897 q 439 944 439 924 l 536 944 q 497 842 536 885 q 401 800 458 800 q 356 809 375 800 q 313 833 336 818 q 268 854 283 854 q 242 840 251 854 q 232 807 232 826 l 135 807 z "},"æ":{"ha":1097,"x_min":111,"x_max":986,"o":"m 472 364 q 428 510 471 458 q 318 563 385 563 l 111 563 l 111 722 l 318 722 q 448 695 389 722 q 549 615 507 668 q 649 695 590 668 q 779 722 708 722 l 986 722 l 986 292 l 729 292 l 729 431 l 840 431 l 840 563 l 779 563 q 669 510 713 563 q 625 364 626 458 l 625 361 l 625 358 q 669 210 626 261 q 779 160 713 160 l 903 160 l 903 0 l 779 0 q 649 27 708 0 q 549 106 590 54 q 448 27 507 54 q 318 0 389 0 l 111 0 l 111 431 l 368 431 l 368 292 l 257 292 l 257 160 l 318 160 q 428 210 385 160 q 472 358 471 261 l 472 361 l 472 364 z "},"b":{"ha":778,"x_min":125,"x_max":694,"o":"m 381 153 q 490 208 446 153 q 535 361 535 263 q 490 513 535 457 q 381 569 446 569 l 285 569 l 285 153 l 381 153 m 125 1000 l 285 1000 l 285 722 l 381 722 q 540 681 468 722 q 653 558 611 639 q 694 364 694 476 q 654 168 694 250 q 542 43 614 86 q 381 0 471 0 l 125 0 l 125 1000 z "},"c":{"ha":611,"x_min":83,"x_max":528,"o":"m 528 0 l 390 0 q 231 43 300 0 q 122 168 161 86 q 83 365 83 250 q 124 558 83 478 q 233 681 164 639 q 390 722 303 722 l 528 722 l 528 569 l 390 569 q 281 513 325 569 q 236 361 236 457 q 281 208 236 263 q 390 153 325 153 l 528 153 l 528 0 z "},"ć":{"ha":611,"x_min":83,"x_max":550,"o":"m 528 0 l 390 0 q 231 43 300 0 q 122 168 161 86 q 83 365 83 250 q 124 558 83 478 q 233 681 164 639 q 390 722 303 722 l 528 722 l 528 569 l 390 569 q 281 513 325 569 q 236 361 236 457 q 281 208 236 263 q 390 153 325 153 l 528 153 l 528 0 m 390 944 l 550 944 l 474 806 l 314 806 l 390 944 z "},"č":{"ha":611,"x_min":83,"x_max":564,"o":"m 528 0 l 390 0 q 231 43 300 0 q 122 168 161 86 q 83 365 83 250 q 124 558 83 478 q 233 681 164 639 q 390 722 303 722 l 528 722 l 528 569 l 390 569 q 281 513 325 569 q 236 361 236 457 q 281 208 236 263 q 390 153 325 153 l 528 153 l 528 0 m 403 819 l 378 819 l 217 943 l 376 943 l 390 931 l 404 943 l 564 943 l 403 819 z "},"ç":{"ha":611,"x_min":83,"x_max":528,"o":"m 528 0 l 390 0 q 231 43 300 0 q 122 168 161 86 q 83 365 83 250 q 124 558 83 478 q 233 681 164 639 q 390 722 303 722 l 528 722 l 528 569 l 390 569 q 281 513 325 569 q 236 361 236 457 q 281 208 236 263 q 390 153 325 153 l 528 153 l 528 0 m 361 -229 q 381 -221 372 -229 q 389 -201 389 -212 q 381 -182 389 -190 q 361 -174 372 -174 l 361 -64 q 463 -102 425 -64 q 501 -201 501 -140 q 463 -301 501 -262 q 361 -339 425 -339 l 361 -229 z "},"ċ":{"ha":611,"x_min":83,"x_max":528,"o":"m 528 0 l 390 0 q 231 43 300 0 q 122 168 161 86 q 83 365 83 250 q 124 558 83 478 q 233 681 164 639 q 390 722 303 722 l 528 722 l 528 569 l 390 569 q 281 513 325 569 q 236 361 236 457 q 281 208 236 263 q 390 153 325 153 l 528 153 l 528 0 m 390 807 q 331 831 356 807 q 307 890 307 856 q 331 950 307 926 q 390 974 356 974 q 450 950 426 974 q 474 890 474 926 q 450 831 474 856 q 390 807 426 807 z "},"d":{"ha":778,"x_min":83,"x_max":653,"o":"m 390 569 q 281 515 325 569 q 236 361 236 460 q 281 209 236 265 q 390 153 325 153 l 493 153 l 493 569 l 390 569 m 83 361 q 122 556 83 475 q 231 680 161 638 q 390 722 301 722 l 493 722 l 493 1000 l 653 1000 l 653 0 l 390 0 q 233 42 303 0 q 123 166 163 85 q 83 361 83 247 z "},"ð":{"ha":826,"x_min":82,"x_max":744,"o":"m 722 440 q 744 324 744 382 q 699 158 744 235 q 578 38 654 82 q 413 -7 501 -7 q 247 38 324 -7 q 126 158 171 82 q 82 324 82 235 q 126 489 82 413 q 247 610 171 565 q 413 656 324 656 q 485 647 450 656 l 417 806 l 156 806 l 156 903 l 376 903 l 314 1049 l 465 1049 l 528 903 l 697 903 l 697 806 l 568 806 l 724 440 l 722 440 m 236 324 q 260 235 236 276 q 324 171 283 194 q 413 147 365 147 q 538 199 486 147 q 589 324 589 250 q 538 449 589 397 q 413 500 486 500 q 288 449 339 500 q 236 324 236 397 z "},"ď":{"ha":993,"x_min":83,"x_max":924,"o":"m 390 569 q 281 515 325 569 q 236 361 236 460 q 281 209 236 265 q 390 153 325 153 l 493 153 l 493 569 l 390 569 m 83 361 q 122 556 83 475 q 231 680 161 638 q 390 722 301 722 l 493 722 l 493 1000 l 653 1000 l 653 0 l 390 0 q 233 42 303 0 q 123 166 163 85 q 83 361 83 247 m 924 1111 l 924 828 l 785 828 l 785 1111 l 924 1111 z "},"đ":{"ha":785,"x_min":83,"x_max":729,"o":"m 729 806 l 653 806 l 653 0 l 390 0 q 233 42 303 0 q 123 166 163 85 q 83 361 83 247 q 122 556 83 475 q 231 680 161 638 q 390 722 301 722 l 493 722 l 493 806 l 229 806 l 229 903 l 493 903 l 493 1000 l 653 1000 l 653 903 l 729 903 l 729 806 m 236 361 q 281 209 236 265 q 390 153 325 153 l 493 153 l 493 569 l 390 569 q 281 515 325 569 q 236 361 236 460 z "},"e":{"ha":743,"x_min":83,"x_max":632,"o":"m 83 365 q 124 558 83 478 q 233 681 164 639 q 390 722 303 722 l 632 722 l 632 292 l 340 292 l 340 431 l 486 431 l 486 563 l 390 563 q 280 510 324 563 q 236 361 236 457 q 280 211 236 263 q 390 160 324 160 l 550 160 l 550 0 l 390 0 q 231 43 300 0 q 122 168 161 86 q 83 365 83 250 z "},"é":{"ha":743,"x_min":83,"x_max":632,"o":"m 83 365 q 124 558 83 478 q 233 681 164 639 q 390 722 303 722 l 632 722 l 632 292 l 340 292 l 340 431 l 486 431 l 486 563 l 390 563 q 280 510 324 563 q 236 361 236 457 q 280 211 236 263 q 390 160 324 160 l 550 160 l 550 0 l 390 0 q 231 43 300 0 q 122 168 161 86 q 83 365 83 250 m 444 944 l 604 944 l 528 806 l 368 806 l 444 944 z "},"ě":{"ha":743,"x_min":83,"x_max":632,"o":"m 83 365 q 124 558 83 478 q 233 681 164 639 q 390 722 303 722 l 632 722 l 632 292 l 340 292 l 340 431 l 486 431 l 486 563 l 390 563 q 280 510 324 563 q 236 361 236 457 q 280 211 236 263 q 390 160 324 160 l 550 160 l 550 0 l 390 0 q 231 43 300 0 q 122 168 161 86 q 83 365 83 250 m 457 819 l 432 819 l 271 943 l 431 943 l 444 931 l 458 943 l 618 943 l 457 819 z "},"ê":{"ha":743,"x_min":83,"x_max":632,"o":"m 83 365 q 124 558 83 478 q 233 681 164 639 q 390 722 303 722 l 632 722 l 632 292 l 340 292 l 340 431 l 486 431 l 486 563 l 390 563 q 280 510 324 563 q 236 361 236 457 q 280 211 236 263 q 390 160 324 160 l 550 160 l 550 0 l 390 0 q 231 43 300 0 q 122 168 161 86 q 83 365 83 250 m 432 931 l 457 931 l 618 807 l 458 807 l 444 819 l 431 807 l 271 807 l 432 931 z "},"ë":{"ha":743,"x_min":83,"x_max":639,"o":"m 83 365 q 124 558 83 478 q 233 681 164 639 q 390 722 303 722 l 632 722 l 632 292 l 340 292 l 340 431 l 486 431 l 486 563 l 390 563 q 280 510 324 563 q 236 361 236 457 q 280 211 236 263 q 390 160 324 160 l 550 160 l 550 0 l 390 0 q 231 43 300 0 q 122 168 161 86 q 83 365 83 250 m 556 807 q 497 831 521 807 q 472 890 472 856 q 497 950 472 926 q 556 974 521 974 q 615 950 592 974 q 639 890 639 926 q 615 831 639 856 q 556 807 592 807 m 250 890 q 274 950 250 926 q 333 974 299 974 q 393 950 369 974 q 417 890 417 926 q 393 831 417 856 q 333 807 369 807 q 274 831 299 807 q 250 890 250 856 z "},"ė":{"ha":743,"x_min":83,"x_max":632,"o":"m 83 365 q 124 558 83 478 q 233 681 164 639 q 390 722 303 722 l 632 722 l 632 292 l 340 292 l 340 431 l 486 431 l 486 563 l 390 563 q 280 510 324 563 q 236 361 236 457 q 280 211 236 263 q 390 160 324 160 l 550 160 l 550 0 l 390 0 q 231 43 300 0 q 122 168 161 86 q 83 365 83 250 m 444 807 q 385 831 410 807 q 361 890 361 856 q 385 950 361 926 q 444 974 410 974 q 504 950 481 974 q 528 890 528 926 q 504 831 528 856 q 444 807 481 807 z "},"è":{"ha":743,"x_min":83,"x_max":632,"o":"m 83 365 q 124 558 83 478 q 233 681 164 639 q 390 722 303 722 l 632 722 l 632 292 l 340 292 l 340 431 l 486 431 l 486 563 l 390 563 q 280 510 324 563 q 236 361 236 457 q 280 211 236 263 q 390 160 324 160 l 550 160 l 550 0 l 390 0 q 231 43 300 0 q 122 168 161 86 q 83 365 83 250 m 361 806 l 285 944 l 444 944 l 521 806 l 361 806 z "},"ē":{"ha":743,"x_min":83,"x_max":674,"o":"m 83 365 q 124 558 83 478 q 233 681 164 639 q 390 722 303 722 l 632 722 l 632 292 l 340 292 l 340 431 l 486 431 l 486 563 l 390 563 q 280 510 324 563 q 236 361 236 457 q 280 211 236 263 q 390 160 324 160 l 550 160 l 550 0 l 390 0 q 231 43 300 0 q 122 168 161 86 q 83 365 83 250 m 215 944 l 674 944 l 674 833 l 215 833 l 215 944 z "},"ę":{"ha":743,"x_min":83,"x_max":635,"o":"m 83 365 q 124 558 83 478 q 233 681 164 639 q 390 722 303 722 l 632 722 l 632 292 l 340 292 l 340 431 l 486 431 l 486 563 l 390 563 q 280 510 324 563 q 236 361 236 457 q 280 211 236 263 q 390 160 324 160 l 550 160 l 550 0 l 549 0 l 471 -167 l 635 -167 l 635 -278 l 301 -278 l 432 0 l 390 0 q 231 43 300 0 q 122 168 161 86 q 83 365 83 250 z "},"ẽ":{"ha":743,"x_min":83,"x_max":649,"o":"m 83 365 q 124 558 83 478 q 233 681 164 639 q 390 722 303 722 l 632 722 l 632 292 l 340 292 l 340 431 l 486 431 l 486 563 l 390 563 q 280 510 324 563 q 236 361 236 457 q 280 211 236 263 q 390 160 324 160 l 550 160 l 550 0 l 390 0 q 231 43 300 0 q 122 168 161 86 q 83 365 83 250 m 247 807 q 286 909 247 867 q 381 951 325 951 q 419 944 403 951 q 453 922 435 936 q 484 903 471 910 q 514 897 497 897 q 541 910 531 897 q 551 944 551 924 l 649 944 q 610 842 649 885 q 514 800 571 800 q 468 809 488 800 q 425 833 449 818 q 381 854 396 854 q 354 840 364 854 q 344 807 344 826 l 247 807 z "},"f":{"ha":528,"x_min":125,"x_max":444,"o":"m 285 833 l 285 722 l 444 722 l 444 569 l 285 569 l 285 0 l 125 0 l 125 986 l 444 986 l 444 833 l 285 833 z "},"g":{"ha":847,"x_min":83,"x_max":750,"o":"m 236 479 q 281 390 236 425 q 390 354 325 354 q 500 390 456 354 q 544 479 544 425 q 500 569 544 533 q 390 604 456 604 q 281 569 325 604 q 236 479 236 533 m 83 479 q 119 611 83 549 q 225 712 156 674 q 390 750 294 750 q 600 682 517 750 l 600 861 l 739 861 l 739 583 l 676 583 q 697 479 697 533 q 661 347 697 410 q 556 247 625 285 q 390 208 486 208 q 347 211 375 208 l 347 139 l 750 139 l 750 31 q 674 -168 750 -92 q 456 -243 597 -244 l 239 -243 l 239 -104 l 456 -104 q 563 -76 525 -104 q 608 0 600 -49 l 100 0 l 100 139 l 194 139 l 194 265 q 112 360 140 303 q 83 479 83 417 z "},"ğ":{"ha":847,"x_min":83,"x_max":750,"o":"m 236 479 q 281 390 236 425 q 390 354 325 354 q 500 390 456 354 q 544 479 544 425 q 500 569 544 533 q 390 604 456 604 q 281 569 325 604 q 236 479 236 533 m 83 479 q 119 611 83 549 q 225 712 156 674 q 390 750 294 750 q 600 682 517 750 l 600 861 l 739 861 l 739 583 l 676 583 q 697 479 697 533 q 661 347 697 410 q 556 247 625 285 q 390 208 486 208 q 347 211 375 208 l 347 139 l 750 139 l 750 31 q 674 -168 750 -92 q 456 -243 597 -244 l 239 -243 l 239 -104 l 456 -104 q 563 -76 525 -104 q 608 0 600 -49 l 100 0 l 100 139 l 194 139 l 194 265 q 112 360 140 303 q 83 479 83 417 m 369 947 q 378 928 369 936 q 397 919 386 919 q 417 928 408 919 q 425 947 425 936 l 535 947 q 497 845 535 883 q 397 807 458 807 q 298 845 336 807 q 260 947 260 883 l 369 947 z "},"ģ":{"ha":847,"x_min":83,"x_max":750,"o":"m 236 479 q 281 390 236 425 q 390 354 325 354 q 500 390 456 354 q 544 479 544 425 q 500 569 544 533 q 390 604 456 604 q 281 569 325 604 q 236 479 236 533 m 83 479 q 119 611 83 549 q 225 712 156 674 q 390 750 294 750 q 600 682 517 750 l 600 861 l 739 861 l 739 583 l 676 583 q 697 479 697 533 q 661 347 697 410 q 556 247 625 285 q 390 208 486 208 q 347 211 375 208 l 347 139 l 750 139 l 750 31 q 674 -168 750 -92 q 456 -243 597 -244 l 239 -243 l 239 -104 l 456 -104 q 563 -76 525 -104 q 608 0 600 -49 l 100 0 l 100 139 l 194 139 l 194 265 q 112 360 140 303 q 83 479 83 417 m 536 1128 l 460 975 l 460 831 l 321 831 l 321 975 l 397 1128 l 536 1128 z "},"ġ":{"ha":847,"x_min":83,"x_max":750,"o":"m 236 479 q 281 390 236 425 q 390 354 325 354 q 500 390 456 354 q 544 479 544 425 q 500 569 544 533 q 390 604 456 604 q 281 569 325 604 q 236 479 236 533 m 83 479 q 119 611 83 549 q 225 712 156 674 q 390 750 294 750 q 600 682 517 750 l 600 861 l 739 861 l 739 583 l 676 583 q 697 479 697 533 q 661 347 697 410 q 556 247 625 285 q 390 208 486 208 q 347 211 375 208 l 347 139 l 750 139 l 750 31 q 674 -168 750 -92 q 456 -243 597 -244 l 239 -243 l 239 -104 l 456 -104 q 563 -76 525 -104 q 608 0 600 -49 l 100 0 l 100 139 l 194 139 l 194 265 q 112 360 140 303 q 83 479 83 417 m 390 835 q 331 859 356 835 q 307 918 307 883 q 331 978 307 954 q 390 1001 356 1001 q 450 978 426 1001 q 474 918 474 954 q 450 859 474 883 q 390 835 426 835 z "},"h":{"ha":750,"x_min":125,"x_max":639,"o":"m 125 986 l 285 986 l 285 722 l 401 722 q 522 691 467 722 q 608 606 576 660 q 639 488 639 553 l 639 0 l 479 0 l 479 488 q 456 546 479 522 q 401 569 433 569 l 285 569 l 285 0 l 125 0 l 125 986 z "},"ħ":{"ha":750,"x_min":56,"x_max":639,"o":"m 556 806 l 285 806 l 285 722 l 401 722 q 522 691 467 722 q 608 606 576 660 q 639 488 639 553 l 639 0 l 479 0 l 479 488 q 456 546 479 522 q 401 569 433 569 l 285 569 l 285 0 l 125 0 l 125 806 l 56 806 l 56 903 l 125 903 l 125 986 l 285 986 l 285 903 l 556 903 l 556 806 z "},"i":{"ha":410,"x_min":122,"x_max":289,"o":"m 125 722 l 285 722 l 285 0 l 125 0 l 125 722 m 206 807 q 147 831 171 807 q 122 890 122 856 q 147 950 122 926 q 206 974 171 974 q 265 950 242 974 q 289 890 289 926 q 265 831 289 856 q 206 807 242 807 z "},"ı":{"ha":410,"x_min":125,"x_max":285,"o":"m 125 722 l 285 722 l 285 0 l 125 0 l 125 722 z "},"í":{"ha":410,"x_min":125,"x_max":365,"o":"m 125 722 l 285 722 l 285 0 l 125 0 l 125 722 m 206 944 l 365 944 l 289 806 l 129 806 l 206 944 z "},"î":{"ha":410,"x_min":32,"x_max":379,"o":"m 125 722 l 285 722 l 285 0 l 125 0 l 125 722 m 193 932 l 218 932 l 379 794 l 32 794 l 193 932 z "},"ï":{"ha":410,"x_min":11,"x_max":400,"o":"m 125 722 l 285 722 l 285 0 l 125 0 l 125 722 m 317 807 q 258 831 282 807 q 233 890 233 856 q 258 950 233 926 q 317 974 282 974 q 376 950 353 974 q 400 890 400 926 q 376 831 400 856 q 317 807 353 807 m 11 890 q 35 950 11 926 q 94 974 60 974 q 154 950 131 974 q 178 890 178 926 q 154 831 178 856 q 94 807 131 807 q 35 831 60 807 q 11 890 11 856 z "},"ì":{"ha":410,"x_min":46,"x_max":285,"o":"m 125 722 l 285 722 l 285 0 l 125 0 l 125 722 m 122 806 l 46 944 l 206 944 l 282 806 l 122 806 z "},"ī":{"ha":410,"x_min":18,"x_max":393,"o":"m 125 722 l 285 722 l 285 0 l 125 0 l 125 722 m 18 932 l 393 932 l 393 821 l 18 821 l 18 932 z "},"į":{"ha":410,"x_min":38,"x_max":371,"o":"m 125 722 l 285 722 l 285 0 l 207 -167 l 371 -167 l 371 -278 l 38 -278 l 168 0 l 125 0 l 125 722 m 122 890 q 147 950 122 926 q 206 974 171 974 q 265 950 242 974 q 289 890 289 926 q 265 831 289 856 q 206 807 242 807 q 147 831 171 807 q 122 890 122 856 z "},"ĩ":{"ha":410,"x_min":8,"x_max":410,"o":"m 125 722 l 285 722 l 285 0 l 125 0 l 125 722 m 8 807 q 47 909 8 867 q 142 951 86 951 q 180 944 164 951 q 214 922 196 936 q 245 903 232 910 q 275 897 258 897 q 302 910 292 897 q 313 944 313 924 l 410 944 q 371 842 410 885 q 275 800 332 800 q 229 809 249 800 q 186 833 210 818 q 142 854 157 854 q 115 840 125 854 q 106 807 106 826 l 8 807 z "},"j":{"ha":403,"x_min":-21,"x_max":285,"o":"m -21 -125 l 118 -125 l 118 722 l 278 722 l 278 -278 l -21 -278 l -21 -125 m 201 807 q 142 831 167 807 q 118 890 118 856 q 142 950 118 926 q 201 974 167 974 q 261 950 238 974 q 285 890 285 926 q 261 831 285 856 q 201 807 238 807 z "},"ȷ":{"ha":403,"x_min":-21,"x_max":278,"o":"m -21 -125 l 118 -125 l 118 722 l 278 722 l 278 -278 l -21 -278 l -21 -125 z "},"k":{"ha":785,"x_min":125,"x_max":701,"o":"m 653 722 l 504 413 l 701 0 l 540 0 l 407 278 l 285 278 l 285 0 l 125 0 l 125 986 l 285 986 l 285 431 l 351 431 l 492 722 l 653 722 z "},"ķ":{"ha":785,"x_min":125,"x_max":701,"o":"m 653 722 l 504 413 l 701 0 l 540 0 l 407 278 l 285 278 l 285 0 l 125 0 l 125 986 l 285 986 l 285 431 l 351 431 l 492 722 l 653 722 m 329 -78 l 446 -78 l 346 -292 l 229 -292 l 329 -78 z "},"l":{"ha":542,"x_min":125,"x_max":444,"o":"m 125 0 l 125 986 l 285 986 l 285 153 l 444 153 l 444 0 l 125 0 z "},"ĺ":{"ha":542,"x_min":125,"x_max":444,"o":"m 125 0 l 125 986 l 285 986 l 285 153 l 444 153 l 444 0 l 125 0 m 208 1208 l 368 1208 l 292 1069 l 132 1069 l 208 1208 z "},"ľ":{"ha":542,"x_min":35,"x_max":444,"o":"m 125 0 l 125 986 l 285 986 l 285 153 l 444 153 l 444 0 l 125 0 m 221 1083 l 196 1083 l 35 1207 l 194 1207 l 208 1194 l 222 1207 l 382 1207 l 221 1083 z "},"ļ":{"ha":542,"x_min":121,"x_max":444,"o":"m 125 0 l 125 986 l 285 986 l 285 153 l 444 153 l 444 0 l 125 0 m 221 -78 l 338 -78 l 238 -292 l 121 -292 l 221 -78 z "},"ŀ":{"ha":569,"x_min":125,"x_max":604,"o":"m 125 0 l 125 986 l 285 986 l 285 153 l 444 153 l 444 0 l 125 0 m 486 340 q 403 375 438 340 q 368 458 368 410 q 403 542 368 507 q 486 576 438 576 q 569 542 535 576 q 604 458 604 507 q 569 375 604 410 q 486 340 535 340 z "},"ł":{"ha":536,"x_min":69,"x_max":444,"o":"m 69 385 l 125 426 l 125 986 l 285 986 l 285 547 l 396 632 l 396 510 l 285 425 l 285 153 l 444 153 l 444 0 l 125 0 l 125 303 l 69 261 l 69 385 z "},"m":{"ha":1063,"x_min":111,"x_max":951,"o":"m 451 569 l 271 569 l 271 0 l 111 0 l 111 722 l 714 722 q 834 691 779 722 q 920 606 889 660 q 951 488 951 553 l 951 0 l 792 0 l 792 488 q 769 546 792 522 q 714 569 746 569 l 611 569 l 611 0 l 451 0 l 451 569 z "},"n":{"ha":750,"x_min":111,"x_max":639,"o":"m 111 722 l 401 722 q 522 691 467 722 q 608 606 576 660 q 639 488 639 553 l 639 0 l 479 0 l 479 488 q 456 546 479 522 q 401 569 433 569 l 271 569 l 271 0 l 111 0 l 111 722 z "},"ń":{"ha":750,"x_min":111,"x_max":639,"o":"m 111 722 l 401 722 q 522 691 467 722 q 608 606 576 660 q 639 488 639 553 l 639 0 l 479 0 l 479 488 q 456 546 479 522 q 401 569 433 569 l 271 569 l 271 0 l 111 0 l 111 722 m 361 944 l 521 944 l 444 806 l 285 806 l 361 944 z "},"ň":{"ha":750,"x_min":111,"x_max":639,"o":"m 111 722 l 401 722 q 522 691 467 722 q 608 606 576 660 q 639 488 639 553 l 639 0 l 479 0 l 479 488 q 456 546 479 522 q 401 569 433 569 l 271 569 l 271 0 l 111 0 l 111 722 m 374 819 l 349 819 l 188 943 l 347 943 l 361 931 l 375 943 l 535 943 l 374 819 z "},"ņ":{"ha":750,"x_min":111,"x_max":639,"o":"m 111 722 l 401 722 q 522 691 467 722 q 608 606 576 660 q 639 488 639 553 l 639 0 l 479 0 l 479 488 q 456 546 479 522 q 401 569 433 569 l 271 569 l 271 0 l 111 0 l 111 722 m 311 -78 l 428 -78 l 328 -292 l 211 -292 l 311 -78 z "},"ñ":{"ha":750,"x_min":111,"x_max":639,"o":"m 111 722 l 401 722 q 522 691 467 722 q 608 606 576 660 q 639 488 639 553 l 639 0 l 479 0 l 479 488 q 456 546 479 522 q 401 569 433 569 l 271 569 l 271 0 l 111 0 l 111 722 m 164 807 q 203 909 164 867 q 297 951 242 951 q 335 944 319 951 q 369 922 351 936 q 401 903 388 910 q 431 897 414 897 q 458 910 447 897 q 468 944 468 924 l 565 944 q 526 842 565 885 q 431 800 488 800 q 385 809 404 800 q 342 833 365 818 q 297 854 313 854 q 271 840 281 854 q 261 807 261 826 l 164 807 z "},"ŋ":{"ha":750,"x_min":111,"x_max":639,"o":"m 340 -125 l 479 -125 l 479 488 q 456 546 479 522 q 401 569 433 569 l 271 569 l 271 0 l 111 0 l 111 722 l 401 722 q 522 691 467 722 q 608 606 576 660 q 639 488 639 553 l 639 -278 l 340 -278 l 340 -125 z "},"o":{"ha":903,"x_min":83,"x_max":819,"o":"m 451 153 q 556 181 508 153 q 632 256 604 208 q 660 361 660 304 q 632 466 660 418 q 556 542 604 514 q 451 569 508 569 q 347 542 394 569 q 271 466 299 514 q 243 361 243 418 q 271 256 243 304 q 347 181 299 208 q 451 153 394 153 m 83 361 q 133 546 83 461 q 267 680 182 631 q 451 729 351 729 q 636 680 551 729 q 770 546 721 631 q 819 361 819 461 q 770 176 819 261 q 636 42 721 92 q 451 -7 551 -7 q 267 42 351 -7 q 133 176 182 92 q 83 361 83 261 z "},"ó":{"ha":903,"x_min":83,"x_max":819,"o":"m 451 153 q 556 181 508 153 q 632 256 604 208 q 660 361 660 304 q 632 466 660 418 q 556 542 604 514 q 451 569 508 569 q 347 542 394 569 q 271 466 299 514 q 243 361 243 418 q 271 256 243 304 q 347 181 299 208 q 451 153 394 153 m 83 361 q 133 546 83 461 q 267 680 182 631 q 451 729 351 729 q 636 680 551 729 q 770 546 721 631 q 819 361 819 461 q 770 176 819 261 q 636 42 721 92 q 451 -7 551 -7 q 267 42 351 -7 q 133 176 182 92 q 83 361 83 261 m 451 944 l 611 944 l 535 806 l 375 806 l 451 944 z "},"ô":{"ha":903,"x_min":83,"x_max":819,"o":"m 451 153 q 556 181 508 153 q 632 256 604 208 q 660 361 660 304 q 632 466 660 418 q 556 542 604 514 q 451 569 508 569 q 347 542 394 569 q 271 466 299 514 q 243 361 243 418 q 271 256 243 304 q 347 181 299 208 q 451 153 394 153 m 83 361 q 133 546 83 461 q 267 680 182 631 q 451 729 351 729 q 636 680 551 729 q 770 546 721 631 q 819 361 819 461 q 770 176 819 261 q 636 42 721 92 q 451 -7 551 -7 q 267 42 351 -7 q 133 176 182 92 q 83 361 83 261 m 439 931 l 464 931 l 625 807 l 465 807 l 451 819 l 438 807 l 278 807 l 439 931 z "},"ö":{"ha":903,"x_min":83,"x_max":819,"o":"m 451 153 q 556 181 508 153 q 632 256 604 208 q 660 361 660 304 q 632 466 660 418 q 556 542 604 514 q 451 569 508 569 q 347 542 394 569 q 271 466 299 514 q 243 361 243 418 q 271 256 243 304 q 347 181 299 208 q 451 153 394 153 m 83 361 q 133 546 83 461 q 267 680 182 631 q 451 729 351 729 q 636 680 551 729 q 770 546 721 631 q 819 361 819 461 q 770 176 819 261 q 636 42 721 92 q 451 -7 551 -7 q 267 42 351 -7 q 133 176 182 92 q 83 361 83 261 m 563 807 q 503 831 528 807 q 479 890 479 856 q 503 950 479 926 q 563 974 528 974 q 622 950 599 974 q 646 890 646 926 q 622 831 646 856 q 563 807 599 807 m 257 890 q 281 950 257 926 q 340 974 306 974 q 400 950 376 974 q 424 890 424 926 q 400 831 424 856 q 340 807 376 807 q 281 831 306 807 q 257 890 257 856 z "},"ò":{"ha":903,"x_min":83,"x_max":819,"o":"m 451 153 q 556 181 508 153 q 632 256 604 208 q 660 361 660 304 q 632 466 660 418 q 556 542 604 514 q 451 569 508 569 q 347 542 394 569 q 271 466 299 514 q 243 361 243 418 q 271 256 243 304 q 347 181 299 208 q 451 153 394 153 m 83 361 q 133 546 83 461 q 267 680 182 631 q 451 729 351 729 q 636 680 551 729 q 770 546 721 631 q 819 361 819 461 q 770 176 819 261 q 636 42 721 92 q 451 -7 551 -7 q 267 42 351 -7 q 133 176 182 92 q 83 361 83 261 m 368 806 l 292 944 l 451 944 l 528 806 l 368 806 z "},"ő":{"ha":903,"x_min":83,"x_max":819,"o":"m 451 153 q 556 181 508 153 q 632 256 604 208 q 660 361 660 304 q 632 466 660 418 q 556 542 604 514 q 451 569 508 569 q 347 542 394 569 q 271 466 299 514 q 243 361 243 418 q 271 256 243 304 q 347 181 299 208 q 451 153 394 153 m 83 361 q 133 546 83 461 q 267 680 182 631 q 451 729 351 729 q 636 680 551 729 q 770 546 721 631 q 819 361 819 461 q 770 176 819 261 q 636 42 721 92 q 451 -7 551 -7 q 267 42 351 -7 q 133 176 182 92 q 83 361 83 261 m 592 1056 l 722 1056 l 644 806 l 514 806 l 592 1056 m 342 1056 l 472 1056 l 394 806 l 264 806 l 342 1056 z "},"ō":{"ha":903,"x_min":83,"x_max":819,"o":"m 451 153 q 556 181 508 153 q 632 256 604 208 q 660 361 660 304 q 632 466 660 418 q 556 542 604 514 q 451 569 508 569 q 347 542 394 569 q 271 466 299 514 q 243 361 243 418 q 271 256 243 304 q 347 181 299 208 q 451 153 394 153 m 83 361 q 133 546 83 461 q 267 680 182 631 q 451 729 351 729 q 636 680 551 729 q 770 546 721 631 q 819 361 819 461 q 770 176 819 261 q 636 42 721 92 q 451 -7 551 -7 q 267 42 351 -7 q 133 176 182 92 q 83 361 83 261 m 222 944 l 681 944 l 681 833 l 222 833 l 222 944 z "},"ø":{"ha":903,"x_min":83,"x_max":819,"o":"m 451 -7 q 269 42 356 -7 l 238 0 l 113 0 l 190 101 q 112 219 140 153 q 83 361 83 286 q 133 546 83 461 q 267 680 182 631 q 451 729 351 729 q 633 681 547 729 l 665 722 l 790 722 l 713 621 q 791 503 763 569 q 819 361 819 436 q 770 176 819 261 q 636 42 721 92 q 451 -7 551 -7 m 229 361 q 281 219 229 279 l 544 564 q 451 583 499 583 q 340 553 390 583 q 259 473 289 524 q 229 361 229 422 m 358 158 q 451 139 404 139 q 563 169 513 139 q 644 249 614 199 q 674 361 674 300 q 622 503 674 443 l 358 158 z "},"õ":{"ha":903,"x_min":83,"x_max":819,"o":"m 451 153 q 556 181 508 153 q 632 256 604 208 q 660 361 660 304 q 632 466 660 418 q 556 542 604 514 q 451 569 508 569 q 347 542 394 569 q 271 466 299 514 q 243 361 243 418 q 271 256 243 304 q 347 181 299 208 q 451 153 394 153 m 83 361 q 133 546 83 461 q 267 680 182 631 q 451 729 351 729 q 636 680 551 729 q 770 546 721 631 q 819 361 819 461 q 770 176 819 261 q 636 42 721 92 q 451 -7 551 -7 q 267 42 351 -7 q 133 176 182 92 q 83 361 83 261 m 254 807 q 293 909 254 867 q 388 951 332 951 q 426 944 410 951 q 460 922 442 936 q 491 903 478 910 q 521 897 504 897 q 548 910 538 897 q 558 944 558 924 l 656 944 q 617 842 656 885 q 521 800 578 800 q 475 809 494 800 q 432 833 456 818 q 388 854 403 854 q 361 840 371 854 q 351 807 351 826 l 254 807 z "},"œ":{"ha":1224,"x_min":83,"x_max":1113,"o":"m 410 153 q 529 212 483 153 q 576 358 575 271 l 576 361 l 576 364 q 529 510 575 451 q 410 569 483 569 q 289 510 335 569 q 243 361 243 450 q 289 213 243 272 q 410 153 335 153 m 83 361 q 124 547 83 463 q 240 680 165 631 q 410 729 314 729 q 546 699 485 729 q 650 613 607 668 q 752 694 692 667 q 883 722 813 722 l 1113 722 l 1113 292 l 833 292 l 833 431 l 967 431 l 967 563 l 883 563 q 773 510 817 563 q 729 361 729 457 q 773 211 729 263 q 883 160 817 160 l 1029 160 l 1029 0 l 883 0 q 751 28 811 0 q 650 110 690 56 q 546 24 607 54 q 410 -7 485 -7 q 240 42 314 -7 q 124 176 165 92 q 83 361 83 260 z "},"p":{"ha":778,"x_min":125,"x_max":694,"o":"m 388 153 q 497 208 453 153 q 542 361 542 263 q 497 513 542 457 q 388 569 453 569 l 285 569 l 285 153 l 388 153 m 125 722 l 388 722 q 545 680 475 722 q 655 556 615 638 q 694 361 694 475 q 656 166 694 247 q 547 42 617 85 q 388 0 476 0 l 285 0 l 285 -278 l 125 -278 l 125 722 z "},"þ":{"ha":778,"x_min":125,"x_max":694,"o":"m 388 160 q 498 211 454 160 q 542 361 542 263 q 498 510 542 457 q 388 563 454 563 l 285 563 l 285 160 l 388 160 m 125 986 l 285 986 l 285 722 l 388 722 q 545 680 475 722 q 655 556 615 638 q 694 361 694 475 q 656 166 694 247 q 547 42 617 85 q 388 0 476 0 l 285 0 l 285 -278 l 125 -278 l 125 986 z "},"q":{"ha":792,"x_min":97,"x_max":667,"o":"m 411 569 q 301 515 346 569 q 257 361 257 460 q 301 209 257 265 q 411 153 346 153 l 507 153 l 507 569 l 411 569 m 97 358 q 138 554 97 472 q 249 679 178 636 q 411 722 321 722 l 667 722 l 667 -278 l 507 -278 l 507 0 l 411 0 q 252 42 324 0 q 139 165 181 83 q 97 358 97 246 z "},"r":{"ha":528,"x_min":125,"x_max":444,"o":"m 285 569 l 285 0 l 125 0 l 125 722 l 444 722 l 444 569 l 285 569 z "},"ŕ":{"ha":528,"x_min":125,"x_max":444,"o":"m 285 569 l 285 0 l 125 0 l 125 722 l 444 722 l 444 569 l 285 569 m 268 944 l 428 944 l 351 806 l 192 806 l 268 944 z "},"ř":{"ha":528,"x_min":94,"x_max":444,"o":"m 285 569 l 285 0 l 125 0 l 125 722 l 444 722 l 444 569 l 285 569 m 281 819 l 256 819 l 94 943 l 254 943 l 268 931 l 282 943 l 442 943 l 281 819 z "},"ŗ":{"ha":528,"x_min":38,"x_max":444,"o":"m 285 569 l 285 0 l 125 0 l 125 722 l 444 722 l 444 569 l 285 569 m 138 -78 l 254 -78 l 154 -292 l 38 -292 l 138 -78 z "},"s":{"ha":729,"x_min":83,"x_max":646,"o":"m 236 486 q 265 419 236 442 q 331 396 293 396 l 361 396 l 361 472 l 413 472 q 526 444 472 472 q 613 361 579 415 q 646 236 646 307 q 613 111 646 165 q 526 28 579 57 q 413 0 472 0 l 118 0 l 118 146 l 399 146 q 465 169 436 146 q 493 236 493 192 q 465 303 493 281 q 399 326 436 326 l 368 326 l 368 250 l 317 250 q 203 278 257 250 q 117 361 150 307 q 83 486 83 415 q 117 611 83 557 q 203 694 150 665 q 317 722 257 722 l 542 722 l 542 576 l 331 576 q 265 553 293 576 q 236 486 236 531 z "},"ś":{"ha":729,"x_min":83,"x_max":646,"o":"m 236 486 q 265 419 236 442 q 331 396 293 396 l 361 396 l 361 472 l 413 472 q 526 444 472 472 q 613 361 579 415 q 646 236 646 307 q 613 111 646 165 q 526 28 579 57 q 413 0 472 0 l 118 0 l 118 146 l 399 146 q 465 169 436 146 q 493 236 493 192 q 465 303 493 281 q 399 326 436 326 l 368 326 l 368 250 l 317 250 q 203 278 257 250 q 117 361 150 307 q 83 486 83 415 q 117 611 83 557 q 203 694 150 665 q 317 722 257 722 l 542 722 l 542 576 l 331 576 q 265 553 293 576 q 236 486 236 531 m 360 944 l 519 944 l 443 806 l 283 806 l 360 944 z "},"š":{"ha":729,"x_min":83,"x_max":646,"o":"m 236 486 q 265 419 236 442 q 331 396 293 396 l 361 396 l 361 472 l 413 472 q 526 444 472 472 q 613 361 579 415 q 646 236 646 307 q 613 111 646 165 q 526 28 579 57 q 413 0 472 0 l 118 0 l 118 146 l 399 146 q 465 169 436 146 q 493 236 493 192 q 465 303 493 281 q 399 326 436 326 l 368 326 l 368 250 l 317 250 q 203 278 257 250 q 117 361 150 307 q 83 486 83 415 q 117 611 83 557 q 203 694 150 665 q 317 722 257 722 l 542 722 l 542 576 l 331 576 q 265 553 293 576 q 236 486 236 531 m 372 819 l 347 819 l 186 943 l 346 943 l 360 931 l 374 943 l 533 943 l 372 819 z "},"ş":{"ha":729,"x_min":83,"x_max":646,"o":"m 236 486 q 265 419 236 442 q 331 396 293 396 l 361 396 l 361 472 l 413 472 q 526 444 472 472 q 613 361 579 415 q 646 236 646 307 q 613 111 646 165 q 526 28 579 57 q 413 0 472 0 l 118 0 l 118 146 l 399 146 q 465 169 436 146 q 493 236 493 192 q 465 303 493 281 q 399 326 436 326 l 368 326 l 368 250 l 317 250 q 203 278 257 250 q 117 361 150 307 q 83 486 83 415 q 117 611 83 557 q 203 694 150 665 q 317 722 257 722 l 542 722 l 542 576 l 331 576 q 265 553 293 576 q 236 486 236 531 m 331 -229 q 350 -221 342 -229 q 358 -201 358 -212 q 350 -182 358 -190 q 331 -174 342 -174 l 331 -64 q 433 -102 394 -64 q 471 -201 471 -140 q 433 -301 471 -262 q 331 -339 394 -339 l 331 -229 z "},"ș":{"ha":729,"x_min":83,"x_max":646,"o":"m 236 486 q 265 419 236 442 q 331 396 293 396 l 361 396 l 361 472 l 413 472 q 526 444 472 472 q 613 361 579 415 q 646 236 646 307 q 613 111 646 165 q 526 28 579 57 q 413 0 472 0 l 118 0 l 118 146 l 399 146 q 465 169 436 146 q 493 236 493 192 q 465 303 493 281 q 399 326 436 326 l 368 326 l 368 250 l 317 250 q 203 278 257 250 q 117 361 150 307 q 83 486 83 415 q 117 611 83 557 q 203 694 150 665 q 317 722 257 722 l 542 722 l 542 576 l 331 576 q 265 553 293 576 q 236 486 236 531 m 296 -78 l 413 -78 l 313 -292 l 196 -292 l 296 -78 z "},"ß":{"ha":958,"x_min":83,"x_max":847,"o":"m 472 153 l 563 153 q 653 193 618 153 q 688 292 688 233 q 653 386 688 349 q 563 424 618 424 l 454 424 l 549 749 l 382 749 l 382 0 l 222 0 l 222 431 l 83 431 l 83 583 l 222 583 l 222 901 l 751 901 l 654 565 q 797 469 746 542 q 847 292 847 397 q 770 79 847 158 q 563 0 693 0 l 472 0 l 472 153 z "},"t":{"ha":681,"x_min":97,"x_max":569,"o":"m 194 722 l 194 901 l 354 901 l 354 722 l 569 722 l 569 569 l 354 569 l 354 235 q 376 176 354 200 q 431 153 399 153 l 569 153 l 569 0 l 431 0 q 258 67 322 0 q 194 235 194 133 l 194 569 l 97 569 l 97 722 l 194 722 z "},"ŧ":{"ha":694,"x_min":97,"x_max":569,"o":"m 556 361 l 354 361 l 354 235 q 376 176 354 200 q 431 153 399 153 l 569 153 l 569 0 l 431 0 q 258 67 322 0 q 194 235 194 133 l 194 361 l 125 361 l 125 458 l 194 458 l 194 569 l 97 569 l 97 722 l 194 722 l 194 901 l 354 901 l 354 722 l 569 722 l 569 569 l 354 569 l 354 458 l 556 458 l 556 361 z "},"ť":{"ha":681,"x_min":97,"x_max":569,"o":"m 194 722 l 194 901 l 354 901 l 354 722 l 569 722 l 569 569 l 354 569 l 354 235 q 376 176 354 200 q 431 153 399 153 l 569 153 l 569 0 l 431 0 q 258 67 322 0 q 194 235 194 133 l 194 569 l 97 569 l 97 722 l 194 722 m 283 999 l 258 999 l 97 1122 l 257 1122 l 271 1110 l 285 1122 l 444 1122 l 283 999 z "},"ţ":{"ha":681,"x_min":97,"x_max":569,"o":"m 194 722 l 194 901 l 354 901 l 354 722 l 569 722 l 569 569 l 354 569 l 354 235 q 376 176 354 200 q 431 153 399 153 l 569 153 l 569 0 l 431 0 q 258 67 322 0 q 194 235 194 133 l 194 569 l 97 569 l 97 722 l 194 722 m 401 -229 q 421 -221 413 -229 q 429 -201 429 -212 q 421 -182 429 -190 q 401 -174 413 -174 l 401 -64 q 503 -102 465 -64 q 542 -201 542 -140 q 503 -301 542 -262 q 401 -339 465 -339 l 401 -229 z "},"ț":{"ha":681,"x_min":97,"x_max":569,"o":"m 194 722 l 194 901 l 354 901 l 354 722 l 569 722 l 569 569 l 354 569 l 354 235 q 376 176 354 200 q 431 153 399 153 l 569 153 l 569 0 l 431 0 q 258 67 322 0 q 194 235 194 133 l 194 569 l 97 569 l 97 722 l 194 722 m 367 -78 l 483 -78 l 383 -292 l 267 -292 l 367 -78 z "},"u":{"ha":750,"x_min":111,"x_max":639,"o":"m 639 0 l 349 0 q 228 31 283 0 q 142 116 174 63 q 111 235 111 169 l 111 722 l 271 722 l 271 235 q 294 176 271 200 q 349 153 317 153 l 479 153 l 479 722 l 639 722 l 639 0 z "},"ú":{"ha":750,"x_min":111,"x_max":639,"o":"m 639 0 l 349 0 q 228 31 283 0 q 142 116 174 63 q 111 235 111 169 l 111 722 l 271 722 l 271 235 q 294 176 271 200 q 349 153 317 153 l 479 153 l 479 722 l 639 722 l 639 0 m 368 931 l 528 931 l 451 792 l 292 792 l 368 931 z "},"û":{"ha":750,"x_min":111,"x_max":639,"o":"m 639 0 l 349 0 q 228 31 283 0 q 142 116 174 63 q 111 235 111 169 l 111 722 l 271 722 l 271 235 q 294 176 271 200 q 349 153 317 153 l 479 153 l 479 722 l 639 722 l 639 0 m 356 917 l 381 917 l 542 793 l 382 793 l 368 806 l 354 793 l 194 793 l 356 917 z "},"ü":{"ha":750,"x_min":111,"x_max":639,"o":"m 639 0 l 349 0 q 228 31 283 0 q 142 116 174 63 q 111 235 111 169 l 111 722 l 271 722 l 271 235 q 294 176 271 200 q 349 153 317 153 l 479 153 l 479 722 l 639 722 l 639 0 m 479 793 q 420 817 444 793 q 396 876 396 842 q 420 936 396 913 q 479 960 444 960 q 539 936 515 960 q 563 876 563 913 q 539 817 563 842 q 479 793 515 793 m 174 876 q 198 936 174 913 q 257 960 222 960 q 317 936 293 960 q 340 876 340 913 q 317 817 340 842 q 257 793 293 793 q 198 817 222 793 q 174 876 174 842 z "},"ù":{"ha":750,"x_min":111,"x_max":639,"o":"m 639 0 l 349 0 q 228 31 283 0 q 142 116 174 63 q 111 235 111 169 l 111 722 l 271 722 l 271 235 q 294 176 271 200 q 349 153 317 153 l 479 153 l 479 722 l 639 722 l 639 0 m 285 792 l 208 931 l 368 931 l 444 792 l 285 792 z "},"ű":{"ha":750,"x_min":111,"x_max":639,"o":"m 639 0 l 349 0 q 228 31 283 0 q 142 116 174 63 q 111 235 111 169 l 111 722 l 271 722 l 271 235 q 294 176 271 200 q 349 153 317 153 l 479 153 l 479 722 l 639 722 l 639 0 m 508 1042 l 639 1042 l 561 792 l 431 792 l 508 1042 m 258 1042 l 389 1042 l 311 792 l 181 792 l 258 1042 z "},"ū":{"ha":750,"x_min":111,"x_max":639,"o":"m 639 0 l 349 0 q 228 31 283 0 q 142 116 174 63 q 111 235 111 169 l 111 722 l 271 722 l 271 235 q 294 176 271 200 q 349 153 317 153 l 479 153 l 479 722 l 639 722 l 639 0 m 139 931 l 597 931 l 597 819 l 139 819 l 139 931 z "},"ų":{"ha":750,"x_min":111,"x_max":725,"o":"m 639 0 l 561 -167 l 725 -167 l 725 -278 l 392 -278 l 522 0 l 349 0 q 228 31 283 0 q 142 116 174 63 q 111 235 111 169 l 111 722 l 271 722 l 271 235 q 294 176 271 200 q 349 153 317 153 l 479 153 l 479 722 l 639 722 l 639 0 z "},"ů":{"ha":750,"x_min":111,"x_max":639,"o":"m 639 0 l 349 0 q 228 31 283 0 q 142 116 174 63 q 111 235 111 169 l 111 722 l 271 722 l 271 235 q 294 176 271 200 q 349 153 317 153 l 479 153 l 479 722 l 639 722 l 639 0 m 368 775 q 283 810 318 775 q 249 894 249 844 q 283 979 249 944 q 368 1014 318 1014 q 453 979 418 1014 q 488 894 488 944 q 453 810 488 844 q 368 775 418 775 m 319 894 q 334 860 319 875 q 368 846 349 846 q 402 860 388 846 q 417 894 417 875 q 402 928 417 914 q 368 943 388 943 q 334 928 349 943 q 319 894 319 914 z "},"ũ":{"ha":750,"x_min":111,"x_max":639,"o":"m 639 0 l 349 0 q 228 31 283 0 q 142 116 174 63 q 111 235 111 169 l 111 722 l 271 722 l 271 235 q 294 176 271 200 q 349 153 317 153 l 479 153 l 479 722 l 639 722 l 639 0 m 171 793 q 210 895 171 853 q 304 938 249 938 q 342 930 326 938 q 376 908 358 922 q 408 890 394 896 q 438 883 421 883 q 465 897 454 883 q 475 931 475 910 l 572 931 q 533 828 572 871 q 438 786 494 786 q 392 795 411 786 q 349 819 372 804 q 304 840 319 840 q 278 826 288 840 q 268 793 268 813 l 171 793 z "},"v":{"ha":775,"x_min":69,"x_max":706,"o":"m 706 722 l 465 0 l 297 0 l 69 722 l 229 722 l 379 249 l 538 722 l 706 722 z "},"w":{"ha":1139,"x_min":83,"x_max":1056,"o":"m 243 722 l 367 260 l 507 722 l 624 722 l 760 256 l 889 722 l 1056 722 l 846 0 l 696 0 l 567 446 l 432 0 l 283 0 l 83 722 l 243 722 z "},"ẃ":{"ha":1139,"x_min":83,"x_max":1056,"o":"m 243 722 l 367 260 l 507 722 l 624 722 l 760 256 l 889 722 l 1056 722 l 846 0 l 696 0 l 567 446 l 432 0 l 283 0 l 83 722 l 243 722 m 569 944 l 729 944 l 653 806 l 493 806 l 569 944 z "},"ŵ":{"ha":1139,"x_min":83,"x_max":1056,"o":"m 243 722 l 367 260 l 507 722 l 624 722 l 760 256 l 889 722 l 1056 722 l 846 0 l 696 0 l 567 446 l 432 0 l 283 0 l 83 722 l 243 722 m 557 931 l 582 931 l 743 807 l 583 807 l 569 819 l 556 807 l 396 807 l 557 931 z "},"ẅ":{"ha":1139,"x_min":83,"x_max":1056,"o":"m 243 722 l 367 260 l 507 722 l 624 722 l 760 256 l 889 722 l 1056 722 l 846 0 l 696 0 l 567 446 l 432 0 l 283 0 l 83 722 l 243 722 m 681 807 q 622 831 646 807 q 597 890 597 856 q 622 950 597 926 q 681 974 646 974 q 740 950 717 974 q 764 890 764 926 q 740 831 764 856 q 681 807 717 807 m 375 890 q 399 950 375 926 q 458 974 424 974 q 518 950 494 974 q 542 890 542 926 q 518 831 542 856 q 458 807 494 807 q 399 831 424 807 q 375 890 375 856 z "},"ẁ":{"ha":1139,"x_min":83,"x_max":1056,"o":"m 243 722 l 367 260 l 507 722 l 624 722 l 760 256 l 889 722 l 1056 722 l 846 0 l 696 0 l 567 446 l 432 0 l 283 0 l 83 722 l 243 722 m 486 806 l 410 944 l 569 944 l 646 806 l 486 806 z "},"x":{"ha":714,"x_min":83,"x_max":631,"o":"m 631 722 l 457 361 l 631 0 l 469 0 l 357 235 l 244 0 l 83 0 l 257 361 l 83 722 l 244 722 l 357 488 l 469 722 l 631 722 z "},"y":{"ha":775,"x_min":69,"x_max":706,"o":"m 706 722 l 458 10 l 458 -278 l 158 -278 l 158 -125 l 306 -125 l 306 15 l 69 722 l 232 722 l 381 246 l 538 722 l 706 722 z "},"ý":{"ha":775,"x_min":69,"x_max":706,"o":"m 706 722 l 458 10 l 458 -278 l 158 -278 l 158 -125 l 306 -125 l 306 15 l 69 722 l 232 722 l 381 246 l 538 722 l 706 722 m 388 944 l 547 944 l 471 806 l 311 806 l 388 944 z "},"ŷ":{"ha":775,"x_min":69,"x_max":706,"o":"m 706 722 l 458 10 l 458 -278 l 158 -278 l 158 -125 l 306 -125 l 306 15 l 69 722 l 232 722 l 381 246 l 538 722 l 706 722 m 375 931 l 400 931 l 561 807 l 401 807 l 388 819 l 374 807 l 214 807 l 375 931 z "},"ÿ":{"ha":775,"x_min":69,"x_max":706,"o":"m 706 722 l 458 10 l 458 -278 l 158 -278 l 158 -125 l 306 -125 l 306 15 l 69 722 l 232 722 l 381 246 l 538 722 l 706 722 m 499 807 q 440 831 464 807 q 415 890 415 856 q 440 950 415 926 q 499 974 464 974 q 558 950 535 974 q 582 890 582 926 q 558 831 582 856 q 499 807 535 807 m 193 890 q 217 950 193 926 q 276 974 242 974 q 336 950 313 974 q 360 890 360 926 q 336 831 360 856 q 276 807 313 807 q 217 831 242 807 q 193 890 193 856 z "},"ỳ":{"ha":775,"x_min":69,"x_max":706,"o":"m 706 722 l 458 10 l 458 -278 l 158 -278 l 158 -125 l 306 -125 l 306 15 l 69 722 l 232 722 l 381 246 l 538 722 l 706 722 m 304 806 l 228 944 l 388 944 l 464 806 l 304 806 z "},"ỹ":{"ha":775,"x_min":69,"x_max":706,"o":"m 706 722 l 458 10 l 458 -278 l 158 -278 l 158 -125 l 306 -125 l 306 15 l 69 722 l 232 722 l 381 246 l 538 722 l 706 722 m 190 807 q 229 909 190 867 q 324 951 268 951 q 362 944 346 951 q 396 922 378 936 q 427 903 414 910 q 457 897 440 897 q 484 910 474 897 q 494 944 494 924 l 592 944 q 553 842 592 885 q 457 800 514 800 q 411 809 431 800 q 368 833 392 818 q 324 854 339 854 q 297 840 307 854 q 288 807 288 826 l 190 807 z "},"z":{"ha":688,"x_min":83,"x_max":604,"o":"m 328 153 l 590 153 l 590 0 l 83 0 l 360 569 l 97 569 l 97 722 l 604 722 l 328 153 z "},"ź":{"ha":688,"x_min":83,"x_max":604,"o":"m 328 153 l 590 153 l 590 0 l 83 0 l 360 569 l 97 569 l 97 722 l 604 722 l 328 153 m 344 944 l 504 944 l 428 806 l 268 806 l 344 944 z "},"ž":{"ha":688,"x_min":83,"x_max":604,"o":"m 328 153 l 590 153 l 590 0 l 83 0 l 360 569 l 97 569 l 97 722 l 604 722 l 328 153 m 357 819 l 332 819 l 171 943 l 331 943 l 344 931 l 358 943 l 518 943 l 357 819 z "},"ż":{"ha":688,"x_min":83,"x_max":604,"o":"m 328 153 l 590 153 l 590 0 l 83 0 l 360 569 l 97 569 l 97 722 l 604 722 l 328 153 m 344 807 q 285 831 310 807 q 261 890 261 856 q 285 950 261 926 q 344 974 310 974 q 404 950 381 974 q 428 890 428 926 q 404 831 428 856 q 344 807 381 807 z "},"А":{"ha":889,"x_min":69,"x_max":819,"o":"m 660 0 l 599 219 l 300 219 l 238 0 l 69 0 l 339 903 l 563 903 l 819 0 l 660 0 m 556 379 l 453 749 l 347 379 l 556 379 z "},"Б":{"ha":871,"x_min":167,"x_max":760,"o":"m 167 903 l 694 903 l 694 743 l 333 743 l 333 606 l 458 606 q 622 563 554 606 q 725 451 690 521 q 760 303 760 382 q 725 154 760 224 q 622 42 690 85 q 458 0 554 0 l 167 0 l 167 903 m 451 160 q 556 203 518 160 q 593 303 593 247 q 556 402 593 358 q 451 446 518 446 l 333 446 l 333 160 l 451 160 z "},"В":{"ha":808,"x_min":153,"x_max":753,"o":"m 153 903 l 319 903 q 476 865 408 903 q 581 760 543 828 q 618 604 618 693 q 615 554 618 588 q 717 449 682 515 q 753 303 753 382 q 720 155 753 224 q 621 43 688 86 q 458 0 554 0 l 153 0 l 153 903 m 451 160 q 556 203 518 160 q 593 303 593 247 q 550 403 593 364 q 451 331 510 356 q 319 306 392 306 l 319 160 l 451 160 m 333 458 q 432 501 392 458 q 472 604 472 544 q 432 707 472 664 q 333 750 392 750 l 319 750 l 319 458 l 333 458 z "},"Г":{"ha":750,"x_min":153,"x_max":681,"o":"m 153 903 l 319 903 l 319 901 l 681 901 l 681 742 l 319 742 l 319 0 l 153 0 l 153 903 z "},"Ґ":{"ha":736,"x_min":139,"x_max":667,"o":"m 667 1042 l 667 743 l 306 743 l 306 0 l 139 0 l 139 903 l 500 903 l 500 1042 l 667 1042 z "},"Д":{"ha":1083,"x_min":125,"x_max":958,"o":"m 861 160 l 958 160 l 958 -139 l 792 -139 l 792 0 l 292 0 l 292 -139 l 125 -139 l 125 160 l 246 160 q 268 317 260 218 l 315 903 l 861 903 l 861 160 m 694 160 l 694 743 l 463 743 l 428 311 q 407 160 422 221 l 694 160 z "},"Е":{"ha":722,"x_min":139,"x_max":597,"o":"m 597 903 l 597 743 l 306 743 l 306 531 l 528 531 l 528 371 l 306 371 l 306 160 l 597 160 l 597 0 l 139 0 l 139 903 l 597 903 z "},"Ё":{"ha":722,"x_min":139,"x_max":597,"o":"m 597 903 l 597 743 l 306 743 l 306 531 l 528 531 l 528 371 l 306 371 l 306 160 l 597 160 l 597 0 l 139 0 l 139 903 l 597 903 m 479 986 q 420 1010 444 986 q 396 1069 396 1035 q 420 1129 396 1106 q 479 1153 444 1153 q 539 1129 515 1153 q 563 1069 563 1106 q 539 1010 563 1035 q 479 986 515 986 m 174 1069 q 198 1129 174 1106 q 257 1153 222 1153 q 317 1129 293 1153 q 340 1069 340 1106 q 317 1010 340 1035 q 257 986 293 986 q 198 1010 222 986 q 174 1069 174 1035 z "},"Ж":{"ha":1194,"x_min":69,"x_max":1125,"o":"m 69 0 l 274 539 l 101 901 l 271 901 l 443 539 l 514 539 l 514 903 l 681 903 l 681 539 l 751 539 l 924 901 l 1093 901 l 921 539 l 1125 0 l 963 0 l 817 379 l 681 379 l 681 0 l 514 0 l 514 379 l 378 379 l 232 0 l 69 0 z "},"З":{"ha":903,"x_min":125,"x_max":764,"o":"m 410 0 q 262 36 326 0 q 161 137 197 72 q 125 285 125 201 l 292 285 q 324 194 292 229 q 410 160 356 160 l 489 160 q 569 194 540 160 q 597 275 597 229 q 569 347 597 319 q 489 375 542 375 l 319 375 l 319 535 l 489 535 q 569 563 542 535 q 597 635 597 590 q 569 712 597 681 q 489 743 540 743 l 410 743 q 323 711 354 743 q 292 625 292 679 l 125 625 q 161 772 125 708 q 262 869 197 835 q 410 903 326 903 l 489 903 q 639 865 576 903 q 733 767 701 828 q 764 635 764 706 q 694 456 764 528 q 764 275 764 382 q 733 141 764 204 q 639 39 701 78 q 489 0 576 0 l 410 0 z "},"И":{"ha":882,"x_min":125,"x_max":729,"o":"m 563 0 l 563 647 l 361 371 l 292 371 l 292 0 l 125 0 l 125 903 l 292 903 l 292 531 l 563 903 l 729 903 l 729 0 l 563 0 z "},"Й":{"ha":882,"x_min":125,"x_max":729,"o":"m 563 0 l 563 647 l 361 371 l 292 371 l 292 0 l 125 0 l 125 903 l 292 903 l 292 531 l 563 903 l 729 903 l 729 0 l 563 0 m 401 1139 q 413 1070 401 1099 q 443 1042 425 1042 q 473 1070 461 1042 q 485 1139 485 1099 l 624 1139 q 572 1021 624 1069 q 443 972 519 972 q 315 1021 367 972 q 263 1139 263 1069 l 401 1139 z "},"К":{"ha":861,"x_min":139,"x_max":736,"o":"m 428 379 l 306 379 l 306 0 l 139 0 l 139 903 l 306 903 l 306 539 l 363 539 l 535 901 l 704 901 l 532 539 l 736 0 l 574 0 l 428 379 z "},"Л":{"ha":986,"x_min":69,"x_max":847,"o":"m 681 903 l 847 903 l 847 0 l 681 0 l 681 742 l 432 742 l 418 356 q 330 89 413 178 q 104 0 247 0 l 69 0 l 69 160 l 97 160 q 208 207 169 160 q 251 356 247 254 l 271 901 l 681 901 l 681 903 z "},"М":{"ha":1161,"x_min":139,"x_max":1022,"o":"m 306 649 l 306 0 l 139 0 l 139 903 l 306 903 l 581 531 l 856 903 l 1022 903 l 1022 0 l 856 0 l 856 649 l 650 371 l 511 371 l 306 649 z "},"Н":{"ha":882,"x_min":139,"x_max":743,"o":"m 139 903 l 306 903 l 306 532 l 576 532 l 576 903 l 743 903 l 743 0 l 576 0 l 576 372 l 306 372 l 306 0 l 139 0 l 139 903 z "},"О":{"ha":1167,"x_min":111,"x_max":1056,"o":"m 583 -22 q 347 41 456 -22 q 174 213 238 104 q 111 450 111 322 q 174 687 111 578 q 347 859 238 796 q 583 922 456 922 q 820 859 711 922 q 992 687 929 796 q 1056 450 1056 578 q 992 213 1056 322 q 820 41 929 104 q 583 -22 711 -22 m 285 450 q 325 300 285 368 q 433 192 365 232 q 583 151 501 151 q 733 192 664 151 q 842 301 801 232 q 882 450 882 369 q 842 601 882 532 q 733 709 801 669 q 583 749 665 749 q 433 708 501 749 q 325 600 365 668 q 285 450 285 532 z "},"П":{"ha":875,"x_min":139,"x_max":736,"o":"m 139 903 l 736 903 l 736 0 l 569 0 l 569 743 l 306 743 l 306 0 l 139 0 l 139 903 z "},"Р":{"ha":840,"x_min":139,"x_max":743,"o":"m 444 903 q 601 865 533 903 q 706 759 668 828 q 743 600 743 690 q 706 441 743 510 q 601 335 668 372 q 444 297 533 297 l 306 297 l 306 0 l 139 0 l 139 903 l 444 903 m 438 457 q 538 497 500 457 q 576 600 576 538 q 538 703 576 663 q 438 743 500 743 l 306 743 l 306 457 l 438 457 z "},"С":{"ha":854,"x_min":111,"x_max":715,"o":"m 549 0 q 319 56 418 0 q 166 215 221 113 q 111 451 111 317 q 166 688 111 585 q 320 847 221 790 q 549 903 419 903 l 715 903 l 715 743 l 563 743 q 413 706 478 743 q 313 602 349 668 q 278 451 278 536 q 313 300 278 367 q 413 197 349 233 q 563 160 478 160 l 715 160 l 715 0 l 549 0 z "},"Т":{"ha":743,"x_min":69,"x_max":674,"o":"m 69 903 l 674 903 l 674 743 l 456 743 l 456 0 l 289 0 l 289 743 l 69 743 l 69 903 z "},"У":{"ha":958,"x_min":69,"x_max":889,"o":"m 211 158 l 308 158 q 368 174 342 158 l 69 900 l 229 900 l 464 335 l 721 900 l 889 900 l 646 354 l 626 310 q 538 129 572 189 q 451 34 503 69 q 315 -1 399 -1 l 211 -1 l 211 158 z "},"Ў":{"ha":958,"x_min":69,"x_max":889,"o":"m 211 158 l 308 158 q 368 174 342 158 l 69 900 l 229 900 l 464 335 l 721 900 l 889 900 l 646 354 l 626 310 q 538 129 572 189 q 451 34 503 69 q 315 -1 399 -1 l 211 -1 l 211 158 m 439 1139 q 451 1070 439 1099 q 481 1042 463 1042 q 510 1070 499 1042 q 522 1139 522 1099 l 661 1139 q 609 1021 661 1069 q 481 972 557 972 q 352 1021 404 972 q 300 1139 300 1069 l 439 1139 z "},"Ф":{"ha":1167,"x_min":111,"x_max":1056,"o":"m 1056 453 q 1006 248 1056 332 q 876 122 957 164 q 701 81 794 81 l 681 81 l 681 0 l 514 0 l 514 81 l 465 81 q 291 122 372 81 q 160 248 210 164 q 111 453 111 332 q 161 651 111 567 q 292 781 211 736 q 465 825 374 825 l 514 825 l 514 903 l 681 903 l 681 825 l 701 825 q 874 781 793 825 q 1006 651 956 736 q 1056 453 1056 567 m 278 453 q 308 334 278 382 q 382 263 338 286 q 472 240 426 240 l 514 240 l 514 665 l 472 665 q 383 640 428 665 q 308 566 338 614 q 278 453 278 518 m 694 240 q 785 263 740 240 q 859 334 829 286 q 889 453 889 382 q 859 566 889 518 q 784 640 829 614 q 694 665 739 665 l 681 665 l 681 240 l 694 240 z "},"Х":{"ha":747,"x_min":69,"x_max":678,"o":"m 282 451 l 69 903 l 239 903 l 372 621 l 508 903 l 678 903 l 461 458 l 678 0 l 508 0 l 374 286 l 239 0 l 69 0 l 282 451 z "},"Ч":{"ha":829,"x_min":69,"x_max":690,"o":"m 524 310 l 307 310 q 187 341 242 310 q 101 426 132 372 q 69 544 69 479 l 69 903 l 236 903 l 236 551 q 259 493 236 517 q 314 469 282 469 l 524 469 l 524 903 l 690 903 l 690 0 l 524 0 l 524 310 z "},"Ц":{"ha":958,"x_min":139,"x_max":833,"o":"m 139 903 l 306 903 l 306 160 l 569 160 l 569 903 l 736 903 l 736 160 l 833 160 l 833 -139 l 667 -139 l 667 0 l 139 0 l 139 903 z "},"Ш":{"ha":1228,"x_min":139,"x_max":1089,"o":"m 139 903 l 306 903 l 306 160 l 531 160 l 531 903 l 697 903 l 697 160 l 922 160 l 922 903 l 1089 903 l 1089 0 l 139 0 l 139 903 z "},"Щ":{"ha":1325,"x_min":153,"x_max":1200,"o":"m 153 903 l 319 903 l 319 160 l 544 160 l 544 903 l 711 903 l 711 160 l 936 160 l 936 903 l 1103 903 l 1103 160 l 1200 160 l 1200 -139 l 1033 -139 l 1033 0 l 153 0 l 153 903 z "},"Ь":{"ha":871,"x_min":139,"x_max":746,"o":"m 139 903 l 306 903 l 306 606 l 444 606 q 608 563 540 606 q 711 451 676 521 q 746 303 746 382 q 711 154 746 224 q 608 42 676 85 q 444 0 540 0 l 139 0 l 139 903 m 438 160 q 542 203 504 160 q 579 303 579 247 q 542 402 579 358 q 438 446 504 446 l 306 446 l 306 160 l 438 160 z "},"Ы":{"ha":1176,"x_min":139,"x_max":1038,"o":"m 139 903 l 306 903 l 306 606 l 444 606 q 608 563 540 606 q 711 451 676 521 q 746 303 746 382 q 711 154 746 224 q 608 42 676 85 q 444 0 540 0 l 139 0 l 139 903 m 438 160 q 542 203 504 160 q 579 303 579 247 q 542 402 579 358 q 438 446 504 446 l 306 446 l 306 160 l 438 160 m 871 903 l 1038 903 l 1038 0 l 871 0 l 871 903 z "},"Ъ":{"ha":989,"x_min":125,"x_max":864,"o":"m 125 903 l 438 903 l 438 606 l 563 606 q 726 563 658 606 q 829 451 794 521 q 864 303 864 382 q 829 154 864 224 q 726 42 794 85 q 563 0 658 0 l 271 0 l 271 743 l 125 743 l 125 903 m 556 160 q 660 203 622 160 q 697 303 697 247 q 660 402 697 358 q 556 446 622 446 l 438 446 l 438 160 l 556 160 z "},"Є":{"ha":1124,"x_min":111,"x_max":1026,"o":"m 1026 285 q 854 63 975 149 q 583 -22 733 -22 q 347 41 456 -22 q 174 213 238 104 q 111 450 111 322 q 174 687 111 578 q 347 859 238 796 q 583 922 456 922 q 854 837 733 922 q 1026 615 975 751 l 832 615 q 726 713 792 676 q 583 749 660 749 q 401 688 481 749 q 296 531 322 626 l 754 531 l 754 371 l 296 371 q 402 213 322 275 q 583 151 482 151 q 726 188 660 151 q 832 285 792 224 l 1026 285 z "},"Э":{"ha":1124,"x_min":97,"x_max":1013,"o":"m 292 285 q 398 188 332 224 q 540 151 464 151 q 722 213 642 151 q 828 371 801 275 l 369 371 l 369 531 l 828 531 q 722 688 801 626 q 540 749 643 749 q 398 713 464 749 q 292 615 332 676 l 97 615 q 269 837 149 751 q 540 922 390 922 q 777 859 668 922 q 949 687 886 796 q 1013 450 1013 578 q 949 213 1013 322 q 777 41 886 104 q 540 -22 668 -22 q 269 63 390 -22 q 97 285 149 149 l 292 285 z "},"І":{"ha":417,"x_min":125,"x_max":292,"o":"m 125 903 l 292 903 l 292 0 l 125 0 l 125 903 z "},"Ї":{"ha":417,"x_min":14,"x_max":403,"o":"m 125 903 l 292 903 l 292 0 l 125 0 l 125 903 m 319 986 q 260 1010 285 986 q 236 1069 236 1035 q 260 1129 236 1106 q 319 1153 285 1153 q 379 1129 356 1153 q 403 1069 403 1106 q 379 1010 403 1035 q 319 986 356 986 m 14 1069 q 38 1129 14 1106 q 97 1153 63 1153 q 157 1129 133 1153 q 181 1069 181 1106 q 157 1010 181 1035 q 97 986 133 986 q 38 1010 63 986 q 14 1069 14 1035 z "},"Ю":{"ha":1389,"x_min":139,"x_max":1319,"o":"m 875 -22 q 671 29 765 -22 q 515 170 576 81 q 436 371 453 260 l 306 371 l 306 -1 l 139 -1 l 139 901 l 306 901 l 306 531 l 436 531 q 516 731 454 642 q 672 872 578 821 q 875 922 765 922 q 1100 859 999 922 q 1260 688 1201 796 q 1319 450 1319 581 q 1260 212 1319 319 q 1099 41 1201 104 q 875 -22 997 -22 m 604 450 q 640 299 604 368 q 738 191 676 231 q 875 151 800 151 q 1012 191 950 151 q 1110 299 1074 231 q 1146 450 1146 368 q 1110 601 1146 532 q 1012 709 1074 669 q 875 749 950 749 q 738 709 800 749 q 640 601 676 669 q 604 450 604 532 z "},"Я":{"ha":892,"x_min":139,"x_max":753,"o":"m 139 0 l 300 325 q 183 432 225 361 q 142 599 142 503 q 179 758 142 689 q 284 864 217 826 q 440 901 351 901 l 586 901 l 586 903 l 753 903 l 753 0 l 586 0 l 586 296 l 458 296 l 313 0 l 139 0 m 308 599 q 347 496 308 536 q 447 456 385 456 l 586 456 l 586 742 l 447 742 q 347 701 385 742 q 308 599 308 661 z "},"а":{"ha":750,"x_min":111,"x_max":639,"o":"m 486 361 q 442 510 486 457 q 332 563 399 563 l 111 563 l 111 722 l 332 722 q 490 680 419 722 q 599 556 560 638 q 639 361 639 475 l 639 0 l 111 0 l 111 431 l 382 431 l 382 292 l 257 292 l 257 146 l 486 146 l 486 361 z "},"б":{"ha":903,"x_min":83,"x_max":819,"o":"m 83 594 q 155 853 83 761 q 347 960 226 944 l 433 971 q 558 1075 558 986 l 558 1103 l 718 1103 l 718 1075 q 660 906 718 964 q 463 826 601 849 l 368 811 q 272 749 300 800 q 243 594 243 697 l 243 588 q 451 688 310 688 q 637 642 553 688 q 770 516 721 596 q 819 340 819 436 q 770 165 819 244 q 637 39 721 85 q 451 -7 553 -7 q 267 40 351 -7 q 133 166 182 86 q 83 340 83 246 l 83 594 m 243 340 q 271 246 243 289 q 347 178 299 203 q 451 153 394 153 q 556 178 508 153 q 632 246 604 203 q 660 340 660 289 q 632 435 660 392 q 556 503 604 478 q 451 528 508 528 q 347 503 394 528 q 271 435 299 478 q 243 340 243 392 z "},"в":{"ha":826,"x_min":111,"x_max":729,"o":"m 618 486 q 611 435 618 463 q 697 352 664 403 q 729 236 729 301 q 693 112 729 165 q 599 29 657 58 q 482 0 542 0 l 111 0 l 111 722 l 385 722 q 502 691 449 722 q 587 606 556 660 q 618 486 618 551 m 482 139 q 548 165 519 139 q 576 236 576 192 q 532 314 576 289 q 385 264 467 264 l 271 264 l 271 139 l 482 139 m 385 389 q 453 415 426 389 q 479 486 479 440 q 453 558 479 532 q 385 583 426 583 l 271 583 l 271 389 l 385 389 z "},"г":{"ha":674,"x_min":125,"x_max":563,"o":"m 285 569 l 285 0 l 125 0 l 125 722 l 563 722 l 563 569 l 285 569 z "},"ґ":{"ha":701,"x_min":125,"x_max":590,"o":"m 285 0 l 125 0 l 125 722 l 431 722 l 431 861 l 590 861 l 590 569 l 285 569 l 285 0 z "},"д":{"ha":993,"x_min":69,"x_max":924,"o":"m 924 -139 l 764 -139 l 764 0 l 229 0 l 229 -139 l 69 -139 l 69 153 l 204 153 q 226 317 218 214 l 258 722 l 778 722 l 778 153 l 924 153 l 924 -139 m 618 153 l 618 569 l 406 569 l 386 311 q 364 153 378 211 l 618 153 z "},"е":{"ha":757,"x_min":97,"x_max":646,"o":"m 97 365 q 138 558 97 478 q 247 681 178 639 q 404 722 317 722 l 646 722 l 646 292 l 354 292 l 354 431 l 500 431 l 500 563 l 404 563 q 294 510 338 563 q 250 361 250 457 q 294 211 250 263 q 404 160 338 160 l 564 160 l 564 0 l 404 0 q 244 43 314 0 q 136 168 175 86 q 97 365 97 250 z "},"ё":{"ha":757,"x_min":97,"x_max":653,"o":"m 97 365 q 138 558 97 478 q 247 681 178 639 q 404 722 317 722 l 646 722 l 646 292 l 354 292 l 354 431 l 500 431 l 500 563 l 404 563 q 294 510 338 563 q 250 361 250 457 q 294 211 250 263 q 404 160 338 160 l 564 160 l 564 0 l 404 0 q 244 43 314 0 q 136 168 175 86 q 97 365 97 250 m 569 807 q 510 831 535 807 q 486 890 486 856 q 510 950 486 926 q 569 974 535 974 q 629 950 606 974 q 653 890 653 926 q 629 831 653 856 q 569 807 606 807 m 264 890 q 288 950 264 926 q 347 974 313 974 q 407 950 383 974 q 431 890 431 926 q 407 831 431 856 q 347 807 383 807 q 288 831 313 807 q 264 890 264 856 z "},"ж":{"ha":1188,"x_min":111,"x_max":1076,"o":"m 429 431 l 514 431 l 514 722 l 674 722 l 674 431 l 758 431 l 867 722 l 1028 722 l 908 400 l 1076 0 l 915 0 l 803 278 l 674 278 l 674 0 l 514 0 l 514 278 l 385 278 l 272 0 l 111 0 l 279 400 l 160 722 l 321 722 l 429 431 z "},"з":{"ha":789,"x_min":83,"x_max":706,"o":"m 436 722 q 583 689 522 722 q 674 601 643 656 q 706 486 706 547 q 658 361 706 411 q 706 236 706 310 q 674 121 706 175 q 583 33 643 67 q 436 0 522 0 l 368 0 q 160 69 238 0 q 83 271 83 138 l 243 271 q 272 181 243 210 q 361 153 300 153 l 458 153 q 524 175 501 153 q 546 226 546 197 q 519 274 546 257 q 444 290 493 290 l 340 290 l 340 436 l 444 436 q 546 496 546 436 q 524 547 546 525 q 458 569 501 569 l 361 569 q 272 541 300 569 q 243 451 243 513 l 83 451 q 160 653 83 585 q 368 722 238 722 l 436 722 z "},"и":{"ha":806,"x_min":111,"x_max":694,"o":"m 271 197 l 271 0 l 111 0 l 111 722 l 271 722 l 271 350 l 535 722 l 694 722 l 694 0 l 535 0 l 535 471 l 340 197 l 271 197 z "},"й":{"ha":806,"x_min":111,"x_max":694,"o":"m 271 197 l 271 0 l 111 0 l 111 722 l 271 722 l 271 350 l 535 722 l 694 722 l 694 0 l 535 0 l 535 471 l 340 197 l 271 197 m 363 958 q 374 890 363 918 q 404 861 386 861 q 434 890 422 861 q 446 958 446 918 l 585 958 q 533 840 585 889 q 404 792 481 792 q 276 840 328 792 q 224 958 224 889 l 363 958 z "},"к":{"ha":785,"x_min":125,"x_max":701,"o":"m 653 722 l 504 413 l 701 0 l 540 0 l 407 278 l 285 278 l 285 0 l 125 0 l 125 722 l 285 722 l 285 431 l 351 431 l 492 722 l 653 722 z "},"л":{"ha":924,"x_min":111,"x_max":799,"o":"m 111 153 l 139 153 q 210 172 185 153 q 244 233 235 192 q 257 349 254 275 l 269 722 l 799 722 l 799 0 l 639 0 l 639 569 l 424 569 l 417 356 q 347 85 410 171 q 146 0 283 0 l 111 0 l 111 153 z "},"м":{"ha":1042,"x_min":111,"x_max":931,"o":"m 271 569 l 271 0 l 111 0 l 111 722 l 354 722 l 521 153 l 688 722 l 931 722 l 931 0 l 771 0 l 771 569 l 604 0 l 438 0 l 271 569 z "},"н":{"ha":806,"x_min":111,"x_max":694,"o":"m 111 722 l 271 722 l 271 444 l 535 444 l 535 722 l 694 722 l 694 0 l 535 0 l 535 292 l 271 292 l 271 0 l 111 0 l 111 722 z "},"о":{"ha":903,"x_min":83,"x_max":819,"o":"m 451 153 q 556 181 508 153 q 632 256 604 208 q 660 361 660 304 q 632 466 660 418 q 556 542 604 514 q 451 569 508 569 q 347 542 394 569 q 271 466 299 514 q 243 361 243 418 q 271 256 243 304 q 347 181 299 208 q 451 153 394 153 m 83 361 q 133 546 83 461 q 267 680 182 631 q 451 729 351 729 q 636 680 551 729 q 770 546 721 631 q 819 361 819 461 q 770 176 819 261 q 636 42 721 92 q 451 -7 551 -7 q 267 42 351 -7 q 133 176 182 92 q 83 361 83 261 z "},"п":{"ha":833,"x_min":125,"x_max":708,"o":"m 125 722 l 708 722 l 708 0 l 549 0 l 549 569 l 285 569 l 285 0 l 125 0 l 125 722 z "},"р":{"ha":792,"x_min":125,"x_max":694,"o":"m 388 153 q 497 208 453 153 q 542 361 542 263 q 497 513 542 457 q 388 569 453 569 l 285 569 l 285 153 l 388 153 m 125 722 l 388 722 q 545 680 475 722 q 655 556 615 638 q 694 361 694 475 q 656 166 694 247 q 547 42 617 85 q 388 0 476 0 l 285 0 l 285 -278 l 125 -278 l 125 722 z "},"с":{"ha":639,"x_min":97,"x_max":542,"o":"m 542 0 l 404 0 q 244 43 314 0 q 136 168 175 86 q 97 365 97 250 q 138 558 97 478 q 247 681 178 639 q 404 722 317 722 l 542 722 l 542 569 l 404 569 q 294 513 339 569 q 250 361 250 457 q 294 208 250 263 q 404 153 339 153 l 542 153 l 542 0 z "},"т":{"ha":819,"x_min":111,"x_max":708,"o":"m 489 569 l 489 0 l 329 0 l 329 569 l 111 569 l 111 722 l 708 722 l 708 569 l 489 569 z "},"у":{"ha":858,"x_min":111,"x_max":747,"o":"m 747 722 l 500 10 l 500 -278 l 200 -278 l 200 -125 l 347 -125 l 347 15 l 111 722 l 274 722 l 422 246 l 579 722 l 747 722 z "},"ў":{"ha":858,"x_min":111,"x_max":747,"o":"m 747 722 l 500 10 l 500 -278 l 200 -278 l 200 -125 l 347 -125 l 347 15 l 111 722 l 274 722 l 422 246 l 579 722 l 747 722 m 389 958 q 401 890 389 918 q 431 861 413 861 q 460 890 449 861 q 472 958 472 918 l 611 958 q 559 840 611 889 q 431 792 507 792 q 302 840 354 792 q 250 958 250 889 l 389 958 z "},"ф":{"ha":1076,"x_min":83,"x_max":993,"o":"m 458 0 l 390 0 q 231 42 301 0 q 122 166 161 85 q 83 361 83 247 q 123 556 83 475 q 233 680 163 638 q 390 722 303 722 l 458 722 l 458 986 l 618 986 l 618 722 l 686 722 q 844 680 774 722 q 953 556 914 638 q 993 361 993 475 q 954 166 993 247 q 845 42 915 85 q 686 0 775 0 l 618 0 l 618 -278 l 458 -278 l 458 0 m 236 361 q 281 208 236 263 q 390 153 325 153 l 458 153 l 458 569 l 390 569 q 281 513 325 569 q 236 361 236 457 m 686 153 q 796 208 751 153 q 840 361 840 263 q 796 513 840 457 q 686 569 751 569 l 618 569 l 618 153 l 686 153 z "},"х":{"ha":769,"x_min":111,"x_max":658,"o":"m 658 722 l 485 361 l 658 0 l 497 0 l 385 235 l 272 0 l 111 0 l 285 361 l 111 722 l 272 722 l 385 488 l 497 722 l 658 722 z "},"ч":{"ha":736,"x_min":83,"x_max":625,"o":"m 465 238 l 321 238 q 201 269 256 238 q 115 353 146 300 q 83 472 83 407 l 83 722 l 243 722 l 243 472 q 266 414 243 438 q 321 390 289 390 l 465 390 l 465 722 l 625 722 l 625 0 l 465 0 l 465 238 z "},"ц":{"ha":924,"x_min":125,"x_max":854,"o":"m 854 -139 l 694 -139 l 694 0 l 125 0 l 125 722 l 285 722 l 285 153 l 549 153 l 549 722 l 708 722 l 708 153 l 854 153 l 854 -139 z "},"ш":{"ha":1146,"x_min":125,"x_max":1021,"o":"m 125 722 l 285 722 l 285 153 l 493 153 l 493 722 l 653 722 l 653 153 l 861 153 l 861 722 l 1021 722 l 1021 0 l 125 0 l 125 722 z "},"щ":{"ha":1236,"x_min":125,"x_max":1167,"o":"m 1007 -139 l 1007 0 l 125 0 l 125 722 l 285 722 l 285 153 l 493 153 l 493 722 l 653 722 l 653 153 l 861 153 l 861 722 l 1021 722 l 1021 153 l 1167 153 l 1167 -139 l 1007 -139 z "},"ь":{"ha":743,"x_min":111,"x_max":660,"o":"m 507 250 q 477 326 507 299 q 406 354 447 354 l 271 354 l 271 146 l 406 146 q 477 174 447 146 q 507 250 507 201 m 111 722 l 271 722 l 271 500 l 406 500 q 533 468 475 500 q 626 378 592 436 q 660 250 660 321 q 626 122 660 179 q 533 32 592 64 q 406 0 475 0 l 111 0 l 111 722 z "},"ы":{"ha":1021,"x_min":111,"x_max":910,"o":"m 479 250 q 449 326 479 299 q 378 354 419 354 l 271 354 l 271 146 l 378 146 q 449 174 419 146 q 479 250 479 201 m 111 722 l 271 722 l 271 500 l 378 500 q 506 468 447 500 q 598 378 564 436 q 632 250 632 321 q 598 122 632 179 q 506 32 564 64 q 378 0 447 0 l 111 0 l 111 722 m 750 722 l 910 722 l 910 0 l 750 0 l 750 722 z "},"ъ":{"ha":813,"x_min":69,"x_max":729,"o":"m 576 250 q 547 326 576 299 q 475 354 517 354 l 368 354 l 368 146 l 475 146 q 547 174 517 146 q 576 250 576 201 m 69 722 l 368 722 l 368 500 l 475 500 q 603 468 544 500 q 695 378 661 436 q 729 250 729 321 q 695 122 729 179 q 603 32 661 64 q 475 0 544 0 l 208 0 l 208 576 l 69 576 l 69 722 z "},"є":{"ha":881,"x_min":83,"x_max":797,"o":"m 83 361 q 133 546 83 461 q 267 680 182 631 q 451 729 351 729 q 663 661 568 729 q 797 486 758 593 l 618 486 q 545 547 589 525 q 451 569 501 569 q 331 531 385 569 q 254 431 276 492 l 508 431 l 508 292 l 254 292 q 331 192 276 231 q 451 153 385 153 q 545 175 501 153 q 618 236 589 197 l 797 236 q 663 61 758 129 q 451 -7 568 -7 q 267 42 351 -7 q 133 176 182 92 q 83 361 83 261 z "},"э":{"ha":881,"x_min":83,"x_max":797,"o":"m 797 361 q 748 176 797 261 q 614 42 699 92 q 429 -7 529 -7 q 217 61 313 -7 q 83 236 122 129 l 263 236 q 335 175 292 197 q 429 153 379 153 q 550 192 496 153 q 626 292 604 231 l 372 292 l 372 431 l 626 431 q 550 531 604 492 q 429 569 496 569 q 335 547 379 569 q 263 486 292 525 l 83 486 q 217 661 122 593 q 429 729 313 729 q 614 680 529 729 q 748 546 699 631 q 797 361 797 461 z "},"і":{"ha":410,"x_min":122,"x_max":289,"o":"m 125 722 l 285 722 l 285 0 l 125 0 l 125 722 m 122 890 q 147 950 122 926 q 206 974 171 974 q 265 950 242 974 q 289 890 289 926 q 265 831 289 856 q 206 807 242 807 q 147 831 171 807 q 122 890 122 856 z "},"ї":{"ha":411,"x_min":11,"x_max":400,"o":"m 125 722 l 285 722 l 285 0 l 125 0 l 125 722 m 317 807 q 258 831 282 807 q 233 890 233 856 q 258 950 233 926 q 317 974 282 974 q 376 950 353 974 q 400 890 400 926 q 376 831 400 856 q 317 807 353 807 m 11 890 q 35 950 11 926 q 94 974 60 974 q 154 950 131 974 q 178 890 178 926 q 154 831 178 856 q 94 807 131 807 q 35 831 60 807 q 11 890 11 856 z "},"ю":{"ha":1194,"x_min":111,"x_max":1111,"o":"m 764 153 q 858 181 815 153 q 926 256 901 208 q 951 361 951 304 q 926 466 951 418 q 858 542 901 514 q 764 569 815 569 q 669 542 713 569 q 601 466 626 514 q 576 361 576 418 q 601 256 576 304 q 669 181 626 208 q 764 153 713 153 m 111 722 l 271 722 l 271 444 l 425 444 q 491 591 442 526 q 611 692 540 656 q 764 729 682 729 q 940 680 860 729 q 1065 547 1019 631 q 1111 361 1111 463 q 1065 176 1111 260 q 940 42 1019 92 q 764 -7 860 -7 q 607 31 679 -7 q 486 138 535 69 q 422 292 438 206 l 271 292 l 271 0 l 111 0 l 111 722 z "},"я":{"ha":742,"x_min":97,"x_max":631,"o":"m 110 472 q 141 601 110 543 q 225 690 172 658 q 343 722 278 722 l 631 722 l 631 0 l 471 0 l 471 222 l 363 222 l 260 0 l 97 0 l 218 258 q 139 347 168 292 q 110 472 110 403 m 256 472 q 282 389 256 417 q 350 361 308 361 l 471 361 l 471 583 l 350 583 q 282 555 308 583 q 256 472 256 526 z "},"ꙮ":{"ha":1228,"x_min":111,"x_max":1117,"o":"m 613 344 q 690 376 657 344 q 722 449 722 407 q 690 526 722 493 q 613 558 657 558 q 539 526 569 558 q 508 449 508 493 q 539 375 508 406 q 613 344 569 344 m 111 450 q 159 580 111 525 q 279 646 207 635 q 264 722 264 683 q 290 822 264 776 q 362 893 317 867 q 461 919 407 919 q 547 900 507 919 q 614 847 586 881 q 681 900 642 881 q 767 919 721 919 q 866 893 821 919 q 938 822 911 867 q 964 722 964 776 q 949 646 964 683 q 1069 580 1021 635 q 1117 450 1117 525 q 1069 321 1117 375 q 949 256 1021 267 q 964 179 964 218 q 938 80 964 125 q 866 8 911 35 q 767 -18 821 -18 q 681 1 721 -18 q 614 54 642 21 q 547 1 586 21 q 461 -18 507 -18 q 362 8 407 -18 q 290 80 317 35 q 264 179 264 125 q 279 256 264 218 q 159 321 207 267 q 111 450 111 375 m 203 449 q 233 375 203 406 q 307 344 264 344 q 384 376 351 344 q 417 449 417 407 q 384 526 417 493 q 307 558 351 558 q 233 526 264 558 q 203 449 203 493 m 272 450 q 283 425 272 436 q 308 414 294 414 q 335 425 324 414 q 347 450 347 436 q 335 477 347 465 q 308 489 324 489 q 283 477 294 489 q 272 450 272 465 m 356 178 q 386 104 356 135 q 460 74 417 74 q 537 105 504 74 q 569 178 569 136 q 537 255 569 222 q 460 288 504 288 q 386 255 417 288 q 356 178 356 222 m 356 721 q 386 647 356 678 q 460 617 417 617 q 537 648 504 617 q 569 721 569 679 q 537 798 569 765 q 460 831 504 831 q 386 798 417 831 q 356 721 356 765 m 425 179 q 436 154 425 165 q 461 143 447 143 q 488 154 476 143 q 500 179 500 165 q 488 206 500 194 q 461 218 476 218 q 436 206 447 218 q 425 179 425 194 m 425 722 q 436 697 425 708 q 461 686 447 686 q 488 697 476 686 q 500 722 500 708 q 488 749 500 738 q 461 761 476 761 q 436 749 447 761 q 425 722 425 738 m 578 450 q 589 425 578 436 q 614 414 600 414 q 641 425 629 414 q 653 450 653 436 q 641 477 653 465 q 614 489 629 489 q 589 477 600 489 q 578 450 578 465 m 661 178 q 692 104 661 135 q 765 74 722 74 q 842 105 810 74 q 875 178 875 136 q 842 255 875 222 q 765 288 810 288 q 692 255 722 288 q 661 178 661 222 m 661 721 q 692 647 661 678 q 765 617 722 617 q 842 648 810 617 q 875 721 875 679 q 842 798 875 765 q 765 831 810 831 q 692 798 722 831 q 661 721 661 765 m 731 179 q 742 154 731 165 q 767 143 753 143 q 794 154 782 143 q 806 179 806 165 q 794 206 806 194 q 767 218 782 218 q 742 206 753 218 q 731 179 731 194 m 731 722 q 742 697 731 708 q 767 686 753 686 q 794 697 782 686 q 806 722 806 708 q 794 749 806 738 q 767 761 782 761 q 742 749 753 761 q 731 722 731 738 m 814 449 q 844 375 814 406 q 918 344 875 344 q 995 376 963 344 q 1028 449 1028 407 q 995 526 1028 493 q 918 558 963 558 q 844 526 875 558 q 814 449 814 493 m 883 450 q 894 425 883 436 q 919 414 906 414 q 947 425 935 414 q 958 450 958 436 q 947 477 958 465 q 919 489 935 489 q 894 477 906 489 q 883 450 883 465 z "},"ⵯ":{"ha":556,"x_min":69,"x_max":486,"o":"m 208 901 l 208 722 l 347 722 l 347 901 l 486 901 l 486 583 l 69 583 l 69 901 l 208 901 z "},"ⴰ":{"ha":497,"x_min":69,"x_max":428,"o":"m 249 -14 q 122 38 174 -14 q 69 165 69 90 q 122 292 69 240 q 249 344 174 344 q 376 292 324 344 q 428 165 428 240 q 376 38 428 90 q 249 -14 324 -14 m 188 165 q 206 122 188 140 q 249 104 224 104 q 294 122 275 104 q 313 165 313 140 q 294 210 313 192 q 249 229 275 229 q 206 210 224 229 q 188 165 188 192 z "},"ⴱ":{"ha":1167,"x_min":111,"x_max":1056,"o":"m 583 -22 q 347 41 456 -22 q 174 213 238 104 q 111 450 111 322 q 174 687 111 578 q 347 859 238 796 q 583 922 456 922 q 820 859 711 922 q 992 687 929 796 q 1056 450 1056 578 q 992 213 1056 322 q 820 41 929 104 q 583 -22 711 -22 m 281 371 q 391 203 307 269 q 583 138 475 138 q 775 203 690 138 q 886 371 860 269 l 281 371 m 886 531 q 775 698 858 633 q 583 763 692 763 q 392 698 475 763 q 281 531 308 633 l 886 531 z "},"ⴲ":{"ha":1167,"x_min":111,"x_max":1056,"o":"m 583 -22 q 347 41 456 -22 q 174 213 238 104 q 111 450 111 322 q 174 687 111 578 q 347 859 238 796 q 583 922 456 922 q 820 859 711 922 q 992 687 929 796 q 1056 450 1056 578 q 992 213 1056 322 q 820 41 929 104 q 583 -22 711 -22 m 281 371 q 362 228 301 289 q 504 147 422 168 l 504 371 l 281 371 m 504 531 l 504 753 q 363 672 422 732 q 281 531 303 613 l 504 531 m 664 149 q 804 229 744 169 q 886 371 864 289 l 664 371 l 664 149 m 886 531 q 805 672 864 613 q 664 753 746 731 l 664 531 l 886 531 z "},"ⴳ":{"ha":982,"x_min":69,"x_max":913,"o":"m 125 0 l 400 410 l 69 901 l 913 901 l 582 410 l 857 0 l 675 0 l 492 274 l 307 0 l 125 0 m 492 544 l 624 742 l 358 742 l 492 544 z "},"ⴴ":{"ha":982,"x_min":69,"x_max":913,"o":"m 857 903 l 582 493 l 913 1 l 69 1 l 400 493 l 125 903 l 307 903 l 492 629 l 675 903 l 857 903 m 624 161 l 492 358 l 358 161 l 624 161 z "},"ⴵ":{"ha":982,"x_min":69,"x_max":913,"o":"m 913 901 l 582 451 l 913 0 l 69 0 l 400 451 l 69 901 l 913 901 m 614 160 l 492 326 l 368 160 l 614 160 m 492 575 l 614 742 l 368 742 l 492 575 z "},"ⴶ":{"ha":917,"x_min":69,"x_max":847,"o":"m 375 903 l 542 903 l 542 0 l 375 0 l 375 903 m 69 806 q 100 879 69 849 q 174 910 131 910 q 247 879 217 910 q 278 806 278 849 q 247 732 278 763 q 174 701 217 701 q 100 732 131 701 q 69 806 69 763 m 639 806 q 669 879 639 849 q 743 910 700 910 q 817 879 786 910 q 847 806 847 849 q 817 732 847 763 q 743 701 786 701 q 669 732 700 701 q 639 806 639 763 z "},"ⴷ":{"ha":944,"x_min":69,"x_max":875,"o":"m 382 901 l 550 901 l 875 0 l 707 0 l 464 661 l 229 0 l 69 0 l 382 901 z "},"ⴸ":{"ha":944,"x_min":69,"x_max":875,"o":"m 563 1 l 394 1 l 69 903 l 238 903 l 481 242 l 715 903 l 875 903 l 563 1 z "},"ⴹ":{"ha":889,"x_min":139,"x_max":764,"o":"m 306 903 l 306 901 l 764 901 l 764 742 l 306 742 l 306 533 l 764 533 l 764 367 l 306 367 l 306 160 l 764 160 l 764 0 l 139 0 l 139 903 l 306 903 z "},"ⴺ":{"ha":889,"x_min":125,"x_max":750,"o":"m 125 0 l 125 160 l 583 160 l 583 367 l 125 367 l 125 533 l 583 533 l 583 742 l 125 742 l 125 901 l 583 901 l 583 903 l 750 903 l 750 0 l 125 0 z "},"ⴻ":{"ha":861,"x_min":83,"x_max":778,"o":"m 778 372 l 83 372 l 83 532 l 778 532 l 778 372 m 251 119 q 303 247 251 194 q 431 299 356 299 q 558 247 506 299 q 610 119 610 194 q 558 -8 610 44 q 431 -60 506 -60 q 303 -8 356 -60 q 251 119 251 44 m 251 783 q 303 910 251 858 q 431 963 356 963 q 558 910 506 963 q 610 783 610 858 q 558 656 610 708 q 431 604 506 604 q 303 656 356 604 q 251 783 251 708 m 369 119 q 388 76 369 94 q 431 58 406 58 q 476 76 457 58 q 494 119 494 94 q 476 165 494 146 q 431 183 457 183 q 388 165 406 183 q 369 119 369 146 m 369 783 q 388 740 369 758 q 431 722 406 722 q 476 740 457 722 q 494 783 494 758 q 476 828 494 810 q 431 847 457 847 q 388 828 406 847 q 369 783 369 810 z "},"ⴼ":{"ha":1000,"x_min":83,"x_max":917,"o":"m 83 901 l 250 901 l 250 903 l 417 903 l 417 533 l 583 533 l 583 903 l 750 903 l 750 901 l 917 901 l 917 735 l 750 735 l 750 167 l 917 167 l 917 0 l 583 0 l 583 367 l 417 367 l 417 0 l 83 0 l 83 167 l 250 167 l 250 735 l 83 735 l 83 901 z "},"ⴽ":{"ha":976,"x_min":139,"x_max":907,"o":"m 618 450 l 907 0 l 725 0 l 528 308 l 329 0 l 139 0 l 139 903 l 306 903 l 306 901 l 907 901 l 618 450 m 614 742 l 306 742 l 306 260 l 614 742 z "},"ⴾ":{"ha":639,"x_min":83,"x_max":569,"o":"m 188 701 q 114 732 144 701 q 83 806 83 763 q 114 879 83 849 q 188 910 144 910 q 261 879 231 910 q 292 806 292 849 q 261 732 292 763 q 188 701 231 701 m 83 97 q 114 171 83 140 q 188 201 144 201 q 261 171 231 201 q 292 97 292 140 q 261 24 292 54 q 188 -7 231 -7 q 114 24 144 -7 q 83 97 83 54 m 361 458 q 392 532 361 501 q 465 563 422 563 q 539 532 508 563 q 569 458 569 501 q 539 385 569 415 q 465 354 508 354 q 392 385 422 354 q 361 458 361 415 z "},"ⴿ":{"ha":976,"x_min":139,"x_max":907,"o":"m 306 0 l 139 0 l 139 903 l 329 903 l 528 594 l 725 903 l 907 903 l 618 453 l 907 1 l 306 1 l 306 0 m 614 161 l 306 643 l 306 161 l 614 161 z "},"ⵀ":{"ha":1167,"x_min":111,"x_max":1056,"o":"m 583 -22 q 347 41 456 -22 q 174 213 238 104 q 111 450 111 322 q 174 687 111 578 q 347 859 238 796 q 583 922 456 922 q 820 859 711 922 q 992 687 929 796 q 1056 450 1056 578 q 992 213 1056 322 q 820 41 929 104 q 583 -22 711 -22 m 271 450 q 335 260 271 343 q 500 149 399 176 l 500 751 q 335 640 399 724 q 271 450 271 557 m 667 149 q 831 260 767 176 q 896 450 896 343 q 832 640 896 557 q 667 751 768 724 l 667 149 z "},"ⵁ":{"ha":1194,"x_min":125,"x_max":1069,"o":"m 210 181 q 125 450 125 300 q 188 687 125 578 q 360 859 251 796 q 597 922 469 922 q 867 838 747 922 l 949 919 l 1067 803 l 985 721 q 1069 450 1069 599 q 1006 213 1069 322 q 834 41 943 104 q 597 -22 725 -22 q 326 63 449 -22 l 246 -18 l 128 99 l 210 181 m 292 450 q 331 301 292 368 l 746 717 q 597 756 679 756 q 444 715 514 756 q 333 603 374 674 q 292 450 292 533 m 447 183 q 597 144 517 144 q 751 185 681 144 q 862 297 821 226 q 903 450 903 367 q 864 600 903 531 l 447 183 z "},"ⵂ":{"ha":486,"x_min":139,"x_max":347,"o":"m 243 826 q 169 857 200 826 q 139 931 139 888 q 169 1004 139 974 q 243 1035 200 1035 q 317 1004 286 1035 q 347 931 347 974 q 317 857 347 888 q 243 826 286 826 m 139 97 q 169 171 139 140 q 243 201 200 201 q 317 171 286 201 q 347 97 347 140 q 317 24 347 54 q 243 -7 286 -7 q 169 24 200 -7 q 139 97 139 54 m 139 375 q 169 449 139 418 q 243 479 200 479 q 317 449 286 479 q 347 375 347 418 q 317 301 347 332 q 243 271 286 271 q 169 301 200 271 q 139 375 139 332 m 139 653 q 169 726 139 696 q 243 757 200 757 q 317 726 286 757 q 347 653 347 696 q 317 579 347 610 q 243 549 286 549 q 169 579 200 549 q 139 653 139 610 z "},"ⵃ":{"ha":885,"x_min":56,"x_max":815,"o":"m 633 901 l 815 901 l 526 450 l 815 0 l 633 0 l 436 308 l 238 0 l 56 0 l 633 901 z "},"ⵄ":{"ha":917,"x_min":139,"x_max":778,"o":"m 139 532 l 375 532 l 375 901 l 542 901 l 542 532 l 778 532 l 778 0 l 611 0 l 611 372 l 306 372 l 306 0 l 139 0 l 139 532 z "},"ⵅ":{"ha":982,"x_min":69,"x_max":913,"o":"m 568 660 l 731 901 l 913 901 l 582 410 l 857 0 l 675 0 l 492 274 l 307 0 l 125 0 l 400 410 l 69 901 l 251 901 l 415 657 l 415 901 l 568 901 l 568 660 z "},"ⵆ":{"ha":1014,"x_min":125,"x_max":889,"o":"m 229 646 q 156 676 186 646 q 125 750 125 707 q 156 824 125 793 q 229 854 186 854 q 303 824 272 854 q 333 750 333 793 q 303 676 333 707 q 229 646 272 646 m 125 167 q 156 240 125 210 q 229 271 186 271 q 303 240 272 271 q 333 167 333 210 q 303 93 333 124 q 229 63 272 63 q 156 93 186 63 q 125 167 125 124 m 681 167 q 711 240 681 210 q 785 271 742 271 q 858 240 828 271 q 889 167 889 210 q 858 93 889 124 q 785 63 828 63 q 711 93 742 63 q 681 167 681 124 m 681 750 q 711 824 681 793 q 785 854 742 854 q 858 824 828 854 q 889 750 889 793 q 858 676 889 707 q 785 646 828 646 q 711 676 742 646 q 681 750 681 707 z "},"ⵇ":{"ha":976,"x_min":139,"x_max":907,"o":"m 893 0 l 139 0 l 139 903 l 306 903 l 306 901 l 907 901 l 432 160 l 893 160 l 893 0 m 614 742 l 306 742 l 306 260 l 614 742 z "},"ⵈ":{"ha":1014,"x_min":125,"x_max":889,"o":"m 229 354 q 156 385 186 354 q 125 458 125 415 q 156 532 125 501 q 229 563 186 563 q 303 532 272 563 q 333 458 333 501 q 303 385 333 415 q 229 354 272 354 m 403 458 q 433 532 403 501 q 507 563 464 563 q 581 532 550 563 q 611 458 611 501 q 581 385 611 415 q 507 354 550 354 q 433 385 464 354 q 403 458 403 415 m 681 458 q 711 532 681 501 q 785 563 742 563 q 858 532 828 563 q 889 458 889 501 q 858 385 889 415 q 785 354 828 354 q 711 385 742 354 q 681 458 681 415 z "},"ⵉ":{"ha":833,"x_min":139,"x_max":694,"o":"m 139 314 l 528 451 l 139 588 l 139 790 l 694 957 l 694 790 l 333 682 l 694 556 l 694 346 l 333 219 l 694 111 l 694 -56 l 139 111 l 139 314 z "},"ⵊ":{"ha":694,"x_min":69,"x_max":625,"o":"m 69 167 l 264 167 l 264 735 l 69 735 l 69 901 l 264 901 l 264 903 l 431 903 l 431 901 l 625 901 l 625 735 l 431 735 l 431 167 l 625 167 l 625 0 l 69 0 l 69 167 z "},"ⵋ":{"ha":875,"x_min":69,"x_max":806,"o":"m 69 0 l 69 167 q 219 202 154 167 q 319 302 283 238 q 354 451 354 367 q 319 599 354 535 q 219 699 283 664 q 69 735 154 735 l 69 901 l 83 901 q 288 858 197 901 q 438 733 379 814 q 587 858 496 814 q 792 901 678 901 l 806 901 l 806 735 q 656 699 721 735 q 556 599 592 664 q 521 451 521 535 q 556 302 521 367 q 656 202 592 238 q 806 167 721 167 l 806 0 l 792 0 q 587 44 678 0 q 438 168 496 88 q 288 44 379 88 q 83 0 197 0 l 69 0 z "},"ⵌ":{"ha":1125,"x_min":111,"x_max":1014,"o":"m 269 160 l 111 160 l 111 326 l 269 326 l 269 576 l 111 576 l 111 743 l 269 743 l 269 903 l 436 903 l 436 743 l 686 743 l 686 903 l 853 903 l 853 743 l 1014 743 l 1014 576 l 853 576 l 853 326 l 1014 326 l 1014 160 l 853 160 l 853 0 l 686 0 l 686 160 l 436 160 l 436 0 l 269 0 l 269 160 m 686 326 l 686 576 l 436 576 l 436 326 l 686 326 z "},"ⵍ":{"ha":847,"x_min":139,"x_max":708,"o":"m 139 903 l 306 903 l 306 374 l 542 901 l 542 903 l 708 903 l 708 0 l 542 0 l 542 528 l 306 0 l 139 0 l 139 903 z "},"ⵎ":{"ha":889,"x_min":139,"x_max":750,"o":"m 306 903 l 306 901 l 750 901 l 750 735 l 306 735 l 306 167 l 750 167 l 750 0 l 139 0 l 139 903 l 306 903 z "},"ⵏ":{"ha":444,"x_min":139,"x_max":306,"o":"m 139 903 l 306 903 l 306 0 l 139 0 l 139 903 z "},"ⵐ":{"ha":1000,"x_min":111,"x_max":889,"o":"m 111 374 l 417 374 l 417 526 l 111 526 l 111 686 l 417 686 l 417 903 l 583 903 l 583 686 l 889 686 l 889 526 l 583 526 l 583 374 l 889 374 l 889 214 l 583 214 l 583 0 l 417 0 l 417 214 l 111 214 l 111 374 z "},"ⵑ":{"ha":514,"x_min":139,"x_max":375,"o":"m 174 972 l 340 972 l 340 0 l 174 0 l 174 972 m 139 -167 q 174 -83 139 -118 q 257 -49 208 -49 q 340 -83 306 -49 q 375 -167 375 -118 q 340 -250 375 -215 q 257 -285 306 -285 q 174 -250 208 -285 q 139 -167 139 -215 z "},"ⵒ":{"ha":917,"x_min":139,"x_max":778,"o":"m 153 901 l 778 901 l 511 586 q 642 528 588 572 q 725 421 697 483 q 753 289 753 358 q 717 142 753 211 q 611 29 681 72 q 446 -14 542 -14 q 281 29 350 -14 q 175 142 211 72 q 139 289 139 211 q 158 397 139 344 q 213 492 176 450 l 425 742 l 153 742 l 153 901 m 306 289 q 342 193 306 233 q 446 153 379 153 q 549 193 513 153 q 586 289 586 233 q 549 385 586 344 q 446 425 513 425 q 342 385 379 425 q 306 289 306 344 z "},"ⵓ":{"ha":526,"x_min":83,"x_max":443,"o":"m 264 -14 q 137 38 189 -14 q 85 165 85 90 q 137 292 85 240 q 264 344 189 344 q 391 292 339 344 q 443 165 443 240 q 391 38 443 90 q 264 -14 339 -14 m 83 736 q 135 863 83 811 q 263 915 188 915 q 390 863 338 915 q 442 736 442 811 q 390 609 442 661 q 263 557 338 557 q 135 609 188 557 q 83 736 83 661 m 201 736 q 219 693 201 711 q 263 675 238 675 q 308 693 289 675 q 326 736 326 711 q 308 781 326 763 q 263 800 289 800 q 219 781 238 800 q 201 736 201 763 m 203 165 q 221 122 203 140 q 264 104 239 104 q 309 122 290 104 q 328 165 328 140 q 309 210 328 192 q 264 229 290 229 q 221 210 239 229 q 203 165 203 192 z "},"ⵔ":{"ha":1167,"x_min":111,"x_max":1056,"o":"m 583 -22 q 347 41 456 -22 q 174 213 238 104 q 111 450 111 322 q 174 687 111 578 q 347 859 238 796 q 583 922 456 922 q 820 859 711 922 q 992 687 929 796 q 1056 450 1056 578 q 992 213 1056 322 q 820 41 929 104 q 583 -22 711 -22 m 285 450 q 325 300 285 368 q 433 192 365 232 q 583 151 501 151 q 733 192 664 151 q 842 301 801 232 q 882 450 882 369 q 842 601 882 532 q 733 709 801 669 q 583 749 665 749 q 433 708 501 749 q 325 600 365 668 q 285 450 285 532 z "},"ⵕ":{"ha":1178,"x_min":111,"x_max":1067,"o":"m 688 478 l 850 315 q 882 450 882 376 q 842 601 882 532 q 733 709 801 669 q 583 749 665 749 q 433 708 501 749 q 325 600 365 668 q 285 450 285 532 q 325 300 285 368 q 433 192 365 232 q 583 151 501 151 q 736 194 667 151 l 571 360 l 688 478 m 111 450 q 174 687 111 578 q 347 859 238 796 q 583 922 456 922 q 820 859 711 922 q 992 687 929 796 q 1056 450 1056 578 q 976 189 1056 308 l 1067 99 l 949 -18 l 863 68 q 583 -22 738 -22 q 347 41 456 -22 q 174 213 238 104 q 111 450 111 322 z "},"ⵖ":{"ha":917,"x_min":139,"x_max":778,"o":"m 306 903 l 306 531 l 611 531 l 611 903 l 778 903 l 778 371 l 542 371 l 542 1 l 375 1 l 375 371 l 139 371 l 139 903 l 306 903 z "},"ⵗ":{"ha":486,"x_min":139,"x_max":347,"o":"m 243 701 q 169 732 200 701 q 139 806 139 763 q 169 879 139 849 q 243 910 200 910 q 317 879 286 910 q 347 806 347 849 q 317 732 347 763 q 243 701 286 701 m 139 97 q 169 171 139 140 q 243 201 200 201 q 317 171 286 201 q 347 97 347 140 q 317 24 347 54 q 243 -7 286 -7 q 169 24 200 -7 q 139 97 139 54 m 139 458 q 169 532 139 501 q 243 563 200 563 q 317 532 286 563 q 347 458 347 501 q 317 385 347 415 q 243 354 286 354 q 169 385 200 354 q 139 458 139 415 z "},"ⵘ":{"ha":1014,"x_min":125,"x_max":889,"o":"m 229 646 q 156 676 186 646 q 125 750 125 707 q 156 824 125 793 q 229 854 186 854 q 303 824 272 854 q 333 750 333 793 q 303 676 333 707 q 229 646 272 646 m 125 167 q 156 240 125 210 q 229 271 186 271 q 303 240 272 271 q 333 167 333 210 q 303 93 333 124 q 229 63 272 63 q 156 93 186 63 q 125 167 125 124 m 403 458 q 433 532 403 501 q 507 563 464 563 q 581 532 550 563 q 611 458 611 501 q 581 385 611 415 q 507 354 550 354 q 433 385 464 354 q 403 458 403 415 m 681 167 q 711 240 681 210 q 785 271 742 271 q 858 240 828 271 q 889 167 889 210 q 858 93 889 124 q 785 63 828 63 q 711 93 742 63 q 681 167 681 124 m 681 750 q 711 824 681 793 q 785 854 742 854 q 858 824 828 854 q 889 750 889 793 q 858 676 889 707 q 785 646 828 646 q 711 676 742 646 q 681 750 681 707 z "},"ⵙ":{"ha":1167,"x_min":111,"x_max":1056,"o":"m 583 332 q 500 367 535 332 q 465 450 465 401 q 500 533 465 499 q 583 568 535 568 q 667 533 632 568 q 701 450 701 499 q 667 367 701 401 q 583 332 632 332 m 111 450 q 174 687 111 578 q 347 859 238 796 q 583 922 456 922 q 820 859 711 922 q 992 687 929 796 q 1056 450 1056 578 q 992 213 1056 322 q 820 41 929 104 q 583 -22 711 -22 q 347 41 456 -22 q 174 213 238 104 q 111 450 111 322 m 278 450 q 319 297 278 367 q 430 185 360 226 q 583 144 500 144 q 737 185 667 144 q 848 297 807 226 q 889 450 889 367 q 848 603 889 533 q 737 715 807 674 q 583 756 667 756 q 430 715 500 756 q 319 603 360 674 q 278 450 278 533 z "},"ⵚ":{"ha":1178,"x_min":111,"x_max":1067,"o":"m 736 708 q 583 751 667 751 q 433 711 501 751 q 325 603 365 671 q 285 453 285 535 q 325 303 285 371 q 433 194 365 235 q 583 154 501 154 q 733 194 665 154 q 842 302 801 233 q 882 453 882 371 q 850 588 882 526 l 688 425 l 571 543 l 736 708 m 111 453 q 174 690 111 581 q 347 862 238 799 q 583 925 456 925 q 863 835 738 925 l 949 921 l 1067 804 l 976 714 q 1056 453 1056 596 q 992 216 1056 325 q 820 44 929 107 q 583 -19 711 -19 q 347 44 456 -19 q 174 216 238 107 q 111 453 111 325 z "},"ⵛ":{"ha":1033,"x_min":111,"x_max":964,"o":"m 111 450 q 174 687 111 578 q 347 859 238 796 q 583 922 456 922 q 883 826 757 922 q 913 803 903 813 q 964 676 964 751 q 912 549 964 601 q 785 497 860 497 q 658 549 710 497 q 606 676 606 601 q 622 753 606 719 q 583 756 594 756 q 434 714 503 756 q 325 602 365 672 q 285 450 285 532 q 325 298 285 368 q 434 186 365 228 q 583 144 503 144 q 622 147 594 144 q 606 224 606 181 q 658 351 606 299 q 785 403 710 403 q 912 351 860 403 q 964 224 964 299 q 913 97 964 149 q 879 71 894 79 q 740 2 818 26 q 583 -22 663 -22 q 347 41 456 -22 q 174 213 238 104 q 111 450 111 322 m 724 224 q 742 181 724 199 q 785 163 760 163 q 830 181 811 163 q 849 224 849 199 q 830 269 849 250 q 785 288 811 288 q 742 269 760 288 q 724 224 724 250 m 724 676 q 742 633 724 651 q 785 615 760 615 q 830 633 811 615 q 849 676 849 651 q 830 722 849 703 q 785 740 811 740 q 742 722 760 740 q 724 676 724 703 z "},"ⵜ":{"ha":694,"x_min":69,"x_max":625,"o":"m 69 533 l 264 533 l 264 903 l 431 903 l 431 533 l 625 533 l 625 367 l 431 367 l 431 0 l 264 0 l 264 367 l 69 367 l 69 533 z "},"ⵝ":{"ha":899,"x_min":69,"x_max":829,"o":"m 450 308 l 251 0 l 69 0 l 358 451 l 69 901 l 251 901 l 450 593 l 647 901 l 829 901 l 540 451 l 829 0 l 647 0 l 450 308 z "},"ⵞ":{"ha":1103,"x_min":111,"x_max":964,"o":"m 646 394 l 535 394 l 535 283 l 424 282 l 424 394 l 290 394 q 344 268 303 325 q 449 178 386 211 q 583 144 513 144 q 622 147 594 144 q 606 224 606 181 q 658 351 606 299 q 785 403 710 403 q 912 351 860 403 q 964 224 964 299 q 913 97 964 149 q 879 71 894 79 q 740 2 818 26 q 583 -22 663 -22 q 347 41 456 -22 q 174 213 238 104 q 111 450 111 322 q 174 687 111 578 q 347 859 238 796 q 583 922 456 922 q 883 826 757 922 q 913 803 903 813 q 964 676 964 751 q 912 549 964 601 q 785 497 860 497 q 658 549 710 497 q 606 676 606 601 q 622 753 606 719 q 583 756 594 756 q 449 722 513 756 q 344 632 386 689 q 290 506 303 575 l 424 506 l 424 617 l 535 617 l 535 506 l 646 506 l 646 394 m 724 224 q 742 181 724 199 q 785 163 760 163 q 830 181 811 163 q 849 224 849 199 q 830 269 849 250 q 785 288 811 288 q 742 269 760 288 q 724 224 724 250 m 724 676 q 742 633 724 651 q 785 615 760 615 q 830 633 811 615 q 849 676 849 651 q 830 722 849 703 q 785 740 811 740 q 742 722 760 740 q 724 676 724 703 z "},"ⵟ":{"ha":833,"x_min":139,"x_max":764,"o":"m 306 903 l 306 901 l 764 901 l 764 735 l 306 735 l 306 533 l 417 533 l 417 644 l 583 644 l 583 533 l 694 533 l 694 367 l 583 367 l 583 256 l 417 256 l 417 367 l 306 367 l 306 167 l 764 167 l 764 0 l 139 0 l 139 903 l 306 903 z "},"ⵠ":{"ha":889,"x_min":69,"x_max":819,"o":"m 339 903 l 563 903 l 819 0 l 69 0 l 339 903 m 615 160 l 453 749 l 283 160 l 615 160 z "},"ⵡ":{"ha":903,"x_min":139,"x_max":764,"o":"m 139 903 l 306 903 l 306 167 l 597 167 l 597 903 l 764 903 l 764 0 l 139 0 l 139 903 z "},"ⵢ":{"ha":833,"x_min":139,"x_max":694,"o":"m 139 136 l 581 432 l 139 588 l 139 790 l 694 957 l 694 790 l 333 682 l 694 556 l 694 317 l 139 -56 l 139 136 z "},"ⵣ":{"ha":1100,"x_min":83,"x_max":1017,"o":"m 260 901 q 333 764 278 822 q 467 683 389 706 l 467 903 l 633 903 l 633 683 q 767 765 711 707 q 840 901 822 824 l 1017 901 q 949 719 1003 803 q 814 579 896 635 q 633 506 732 524 l 633 396 q 814 322 732 378 q 949 183 896 267 q 1017 0 1003 99 l 840 0 q 767 136 822 78 q 633 218 711 194 l 633 0 l 467 0 l 467 218 q 333 138 389 196 q 260 0 278 79 l 83 0 q 151 183 97 99 q 286 322 204 267 q 467 396 368 378 l 467 506 q 286 579 368 524 q 151 719 204 635 q 83 901 97 803 l 260 901 z "},"ⵤ":{"ha":706,"x_min":139,"x_max":664,"o":"m 139 901 l 301 901 l 664 411 l 478 411 l 301 649 l 301 0 l 139 0 l 139 901 z "},"ⵥ":{"ha":1069,"x_min":83,"x_max":986,"o":"m 882 403 l 618 403 l 618 326 q 848 214 749 303 q 986 0 947 125 l 799 0 q 724 92 771 54 q 618 149 676 131 l 618 0 l 451 0 l 451 149 q 344 92 392 131 q 271 0 297 54 l 83 0 q 222 214 122 125 q 451 326 321 303 l 451 403 l 188 403 l 188 500 l 451 500 l 451 575 q 222 688 321 599 q 83 901 122 776 l 271 901 q 344 809 297 847 q 451 753 392 771 l 451 903 l 618 903 l 618 753 q 724 809 676 771 q 799 901 771 847 l 986 901 q 848 688 947 776 q 618 575 749 599 l 618 500 l 882 500 l 882 403 z "},"ⵦ":{"ha":901,"x_min":69,"x_max":832,"o":"m 69 367 l 69 533 l 832 853 l 832 679 l 285 451 l 832 219 l 832 47 l 69 367 z "},"ⵧ":{"ha":1042,"x_min":69,"x_max":972,"o":"m 69 531 l 472 531 l 472 371 l 69 371 l 69 531 m 569 531 l 972 531 l 972 371 l 569 371 l 569 531 z "}," ":{"ha":139,"x_min":0,"x_max":0,"o":""},"⵰":{"ha":694,"x_min":-69,"x_max":558,"o":"m 551 901 l 375 901 l 375 390 q 335 153 375 250 q 197 4 294 57 q -69 -49 99 -49 l -69 -219 q 409 -61 260 -221 q 556 390 558 99 l 551 901 z "},".":{"ha":375,"x_min":69,"x_max":306,"o":"m 188 -7 q 104 28 139 -7 q 69 111 69 63 q 104 194 69 160 q 188 229 139 229 q 271 194 236 229 q 306 111 306 160 q 271 28 306 63 q 188 -7 236 -7 z "},",":{"ha":347,"x_min":-28,"x_max":278,"o":"m 114 0 l 114 169 l 278 169 l 278 0 l 135 -278 l -28 -278 l 114 0 z "},":":{"ha":514,"x_min":139,"x_max":375,"o":"m 257 -7 q 174 28 208 -7 q 139 111 139 63 q 174 194 139 160 q 257 229 208 229 q 340 194 306 229 q 375 111 375 160 q 340 28 375 63 q 257 -7 306 -7 m 139 458 q 174 542 139 507 q 257 576 208 576 q 340 542 306 576 q 375 458 375 507 q 340 375 375 410 q 257 340 306 340 q 174 375 208 340 q 139 458 139 410 z "},";":{"ha":514,"x_min":35,"x_max":375,"o":"m 175 0 l 175 169 l 339 169 l 339 0 l 197 -278 l 35 -278 l 175 0 m 139 458 q 174 542 139 507 q 257 576 208 576 q 340 542 306 576 q 375 458 375 507 q 340 375 375 410 q 257 340 306 340 q 174 375 208 340 q 139 458 139 410 z "},"…":{"ha":958,"x_min":56,"x_max":903,"o":"m 174 -7 q 90 28 125 -7 q 56 111 56 63 q 90 194 56 160 q 174 229 125 229 q 257 194 222 229 q 292 111 292 160 q 257 28 292 63 q 174 -7 222 -7 m 361 111 q 396 194 361 160 q 479 229 431 229 q 563 194 528 229 q 597 111 597 160 q 563 28 597 63 q 479 -7 528 -7 q 396 28 431 -7 q 361 111 361 63 m 667 111 q 701 194 667 160 q 785 229 736 229 q 868 194 833 229 q 903 111 903 160 q 868 28 903 63 q 785 -7 833 -7 q 701 28 736 -7 q 667 111 667 63 z "},"!":{"ha":514,"x_min":139,"x_max":375,"o":"m 174 974 l 340 974 l 340 296 l 174 296 l 174 974 m 139 111 q 174 194 139 160 q 257 229 208 229 q 340 194 306 229 q 375 111 375 160 q 340 28 375 63 q 257 -7 306 -7 q 174 28 208 -7 q 139 111 139 63 z "},"¡":{"ha":514,"x_min":139,"x_max":375,"o":"m 340 -71 l 174 -71 l 174 607 l 340 607 l 340 -71 m 139 792 q 174 875 139 840 q 257 910 208 910 q 340 875 306 910 q 375 792 375 840 q 340 708 375 743 q 257 674 306 674 q 174 708 208 674 q 139 792 139 743 z "},"?":{"ha":799,"x_min":139,"x_max":674,"o":"m 507 675 q 470 774 507 735 q 375 814 433 814 l 139 814 l 139 974 l 375 974 q 531 936 464 974 q 636 831 599 899 q 674 675 674 764 q 636 519 674 586 q 531 414 599 451 q 375 376 464 376 l 372 376 l 372 296 l 208 296 l 208 536 l 375 536 q 470 576 433 536 q 507 675 507 615 m 172 111 q 207 194 172 160 q 290 229 242 229 q 374 194 339 229 q 408 111 408 160 q 374 28 408 63 q 290 -7 339 -7 q 207 28 242 -7 q 172 111 172 63 z "},"¿":{"ha":743,"x_min":69,"x_max":604,"o":"m 236 226 q 273 127 236 167 q 368 88 310 88 l 604 88 l 604 -72 l 368 -72 q 212 -35 279 -72 q 107 70 144 3 q 69 226 69 138 q 107 383 69 315 q 212 488 144 450 q 368 525 279 525 l 371 525 l 371 606 l 535 606 l 535 365 l 368 365 q 273 326 310 365 q 236 226 236 286 m 335 790 q 369 874 335 839 q 453 908 404 908 q 536 874 501 908 q 571 790 571 839 q 536 707 571 742 q 453 672 501 672 q 369 707 404 672 q 335 790 335 742 z "},"·":{"ha":375,"x_min":69,"x_max":306,"o":"m 188 340 q 104 375 139 340 q 69 458 69 410 q 104 542 69 507 q 188 576 139 576 q 271 542 236 576 q 306 458 306 507 q 271 375 306 410 q 188 340 236 340 z "},"•":{"ha":493,"x_min":69,"x_max":424,"o":"m 247 282 q 158 306 199 282 q 93 370 117 329 q 69 458 69 411 q 122 584 69 532 q 247 636 174 636 q 335 613 294 636 q 400 548 376 589 q 424 458 424 507 q 400 370 424 411 q 335 306 376 329 q 247 282 294 282 z "},"*":{"ha":717,"x_min":125,"x_max":592,"o":"m 400 985 l 400 853 l 493 946 l 553 888 l 460 794 l 590 794 l 592 711 l 460 711 l 553 618 l 493 557 l 400 650 l 400 519 l 317 519 l 317 651 l 224 558 l 164 617 l 258 711 l 126 711 l 125 794 l 256 794 l 164 886 l 224 947 l 317 854 l 317 985 l 400 985 z "},"#":{"ha":1069,"x_min":125,"x_max":944,"o":"m 208 700 l 354 700 l 417 901 l 583 901 l 521 700 l 701 700 l 764 901 l 931 901 l 868 700 l 944 700 l 944 533 l 817 533 l 767 368 l 861 368 l 861 201 l 715 201 l 653 0 l 486 0 l 549 201 l 368 201 l 306 0 l 139 0 l 201 201 l 125 201 l 125 368 l 253 368 l 303 533 l 208 533 l 208 700 m 600 368 l 650 533 l 469 533 l 419 368 l 600 368 z "},"/":{"ha":694,"x_min":125,"x_max":569,"o":"m 403 901 l 569 901 l 292 0 l 125 0 l 403 901 z "},"\\":{"ha":694,"x_min":125,"x_max":569,"o":"m 403 0 l 125 901 l 292 901 l 569 0 l 403 0 z "},"-":{"ha":736,"x_min":139,"x_max":597,"o":"m 139 472 l 597 472 l 597 306 l 139 306 l 139 472 z "},"­":{"ha":736,"x_min":139,"x_max":597,"o":"m 139 472 l 597 472 l 597 306 l 139 306 l 139 472 z "},"–":{"ha":882,"x_min":139,"x_max":743,"o":"m 139 472 l 743 472 l 743 306 l 139 306 l 139 472 z "},"—":{"ha":1021,"x_min":139,"x_max":882,"o":"m 139 472 l 882 472 l 882 306 l 139 306 l 139 472 z "},"_":{"ha":993,"x_min":125,"x_max":868,"o":"m 125 56 l 868 56 l 868 -111 l 125 -111 l 125 56 z "},"(":{"ha":526,"x_min":139,"x_max":401,"o":"m 139 450 q 228 901 139 685 l 401 901 q 313 450 313 685 q 401 0 313 217 l 228 0 q 139 450 139 217 z "},")":{"ha":513,"x_min":111,"x_max":374,"o":"m 374 450 q 285 0 374 217 l 111 0 q 200 450 200 217 q 111 901 200 685 l 285 901 q 374 450 374 685 z "},"{":{"ha":714,"x_min":125,"x_max":589,"o":"m 533 742 q 479 718 500 742 q 458 658 458 694 l 458 533 l 292 533 l 292 658 q 358 835 292 768 q 533 901 425 901 l 589 901 l 589 742 l 533 742 m 125 533 l 292 533 l 292 367 l 125 367 l 125 533 m 292 367 l 458 367 l 458 243 q 479 183 458 207 q 533 160 500 158 l 589 160 l 589 0 l 533 0 q 358 67 425 0 q 292 243 292 133 l 292 367 z "},"}":{"ha":781,"x_min":192,"x_max":656,"o":"m 192 742 l 192 901 l 247 901 q 422 835 356 901 q 489 658 489 768 l 489 533 l 322 533 l 322 658 q 301 718 322 694 q 247 742 281 742 l 192 742 m 192 160 l 247 160 q 301 183 281 158 q 322 243 322 207 l 322 367 l 489 367 l 489 243 q 422 67 489 133 q 247 0 356 0 l 192 0 l 192 160 m 489 533 l 656 533 l 656 367 l 489 367 l 489 533 z "},"[":{"ha":639,"x_min":139,"x_max":500,"o":"m 500 1040 l 500 881 l 306 881 l 306 19 l 500 19 l 500 -140 l 139 -140 l 139 1040 l 500 1040 z "},"]":{"ha":639,"x_min":139,"x_max":500,"o":"m 139 -140 l 139 19 l 333 19 l 333 881 l 139 881 l 139 1040 l 500 1040 l 500 -140 l 139 -140 z "},"‚":{"ha":446,"x_min":72,"x_max":379,"o":"m 213 68 l 379 68 l 239 -251 l 72 -251 l 213 68 z "},"„":{"ha":718,"x_min":69,"x_max":649,"o":"m 210 68 l 376 68 l 236 -251 l 69 -251 l 210 68 m 482 68 l 649 68 l 508 -251 l 342 -251 l 482 68 z "},"“":{"ha":718,"x_min":69,"x_max":649,"o":"m 210 901 l 376 901 l 236 582 l 69 582 l 210 901 m 482 901 l 649 901 l 508 582 l 342 582 l 482 901 z "},"”":{"ha":724,"x_min":69,"x_max":654,"o":"m 210 901 l 376 901 l 236 582 l 69 582 l 210 901 m 488 901 l 654 901 l 514 582 l 347 582 l 488 901 z "},"‘":{"ha":446,"x_min":58,"x_max":365,"o":"m 199 901 l 365 901 l 225 582 l 58 582 l 199 901 z "},"’":{"ha":446,"x_min":69,"x_max":376,"o":"m 210 901 l 376 901 l 236 582 l 69 582 l 210 901 z "},"«":{"ha":857,"x_min":125,"x_max":732,"o":"m 560 181 l 417 451 l 560 722 l 732 722 l 589 451 l 732 181 l 560 181 m 268 722 l 440 722 l 297 451 l 440 181 l 268 181 l 125 451 l 268 722 z "},"»":{"ha":857,"x_min":125,"x_max":732,"o":"m 268 451 l 125 722 l 297 722 l 440 451 l 297 181 l 125 181 l 268 451 m 560 451 l 417 722 l 589 722 l 732 451 l 589 181 l 417 181 l 560 451 z "},"‹":{"ha":565,"x_min":125,"x_max":440,"o":"m 268 181 l 125 451 l 268 722 l 440 722 l 297 451 l 440 181 l 268 181 z "},"›":{"ha":565,"x_min":125,"x_max":440,"o":"m 268 451 l 125 722 l 297 722 l 440 451 l 297 181 l 125 181 l 268 451 z "},"\"":{"ha":632,"x_min":125,"x_max":493,"o":"m 125 901 l 271 901 l 271 590 l 125 590 l 125 901 m 347 901 l 493 901 l 493 590 l 347 590 l 347 901 z "},"'":{"ha":396,"x_min":125,"x_max":271,"o":"m 125 901 l 271 901 l 271 590 l 125 590 l 125 901 z "},"@":{"ha":1656,"x_min":139,"x_max":1517,"o":"m 746 799 l 904 799 l 1074 283 q 1269 356 1203 288 q 1336 528 1336 424 q 1283 711 1336 622 q 1116 858 1229 800 q 835 915 1003 915 q 558 849 675 915 q 381 665 442 783 q 319 390 319 546 q 392 161 319 260 q 597 8 465 63 q 901 -46 729 -46 l 901 -219 q 502 -145 675 -221 q 234 69 329 -69 q 139 390 139 208 q 223 754 139 596 q 464 1001 307 913 q 835 1089 621 1089 q 1211 1004 1057 1089 q 1441 788 1365 919 q 1517 518 1517 657 q 1473 326 1517 414 q 1341 183 1429 238 q 1126 124 1253 128 l 1167 0 l 1006 0 l 964 124 l 526 124 l 746 799 m 911 283 l 825 540 l 742 283 l 911 283 z "},"&":{"ha":917,"x_min":69,"x_max":847,"o":"m 361 0 q 208 36 275 0 q 106 139 142 72 q 69 292 69 206 q 102 438 69 374 q 194 539 135 501 q 161 661 161 594 q 194 783 161 728 q 282 869 226 838 q 403 901 338 901 l 556 901 l 556 903 l 722 903 l 722 583 l 847 583 l 847 424 l 722 424 l 722 160 l 847 160 l 847 0 l 361 0 m 236 292 q 271 197 236 235 q 361 160 306 160 l 556 160 l 556 424 l 361 424 q 271 386 306 424 q 236 292 236 349 m 328 661 q 348 607 328 629 q 399 583 368 585 l 556 583 l 556 742 l 403 742 q 350 717 372 742 q 328 661 328 692 z "},"°":{"ha":525,"x_min":83,"x_max":442,"o":"m 263 557 q 135 609 188 557 q 83 736 83 661 q 135 863 83 811 q 263 915 188 915 q 390 863 338 915 q 442 736 442 811 q 390 609 442 661 q 263 557 338 557 m 201 736 q 219 693 201 711 q 263 675 238 675 q 308 693 289 675 q 326 736 326 711 q 308 781 326 763 q 263 800 289 800 q 219 781 238 800 q 201 736 201 763 z "},"|":{"ha":431,"x_min":139,"x_max":292,"o":"m 139 1042 l 292 1042 l 292 -139 l 139 -139 l 139 1042 z "},"¦":{"ha":431,"x_min":139,"x_max":292,"o":"m 292 396 l 292 -139 l 139 -139 l 139 396 l 292 396 m 139 1042 l 292 1042 l 292 507 l 139 507 l 139 1042 z "},"†":{"ha":672,"x_min":125,"x_max":547,"o":"m 294 722 l 126 722 l 125 808 l 294 808 l 294 985 l 378 985 l 378 808 l 547 808 l 547 722 l 378 722 l 378 344 l 294 344 l 294 722 z "},"‡":{"ha":672,"x_min":125,"x_max":547,"o":"m 294 486 l 126 486 l 125 572 l 294 572 l 294 757 l 126 757 l 125 843 l 294 843 l 294 985 l 378 985 l 378 843 l 547 843 l 547 757 l 378 757 l 378 572 l 547 572 l 547 486 l 378 486 l 378 344 l 294 344 l 294 486 z "},"¢":{"ha":764,"x_min":111,"x_max":653,"o":"m 653 90 l 522 90 l 522 0 l 425 0 l 425 90 l 418 90 q 258 133 328 90 q 150 258 189 176 q 111 456 111 340 q 151 649 111 568 q 261 771 192 729 q 418 813 331 813 l 425 813 l 425 903 l 522 903 l 522 813 l 653 813 l 653 660 l 522 660 l 522 243 l 653 243 l 653 90 m 264 451 q 308 298 264 353 q 418 243 353 243 l 425 243 l 425 660 l 418 660 q 308 603 353 660 q 264 451 264 547 z "},"$":{"ha":779,"x_min":83,"x_max":696,"o":"m 164 160 l 383 160 q 490 198 450 160 q 529 300 529 236 q 492 395 529 360 q 393 432 454 431 l 393 310 l 383 310 q 219 349 288 310 q 117 455 151 389 q 83 599 83 521 q 113 736 83 671 q 201 846 142 801 q 342 900 260 890 l 342 1026 l 439 1026 l 439 903 l 546 903 l 546 743 l 396 743 q 290 704 329 743 q 250 601 250 665 q 288 506 250 542 q 386 469 325 471 l 386 592 l 396 592 q 560 552 492 592 q 662 447 628 513 q 696 303 696 381 q 667 165 696 231 q 579 56 638 100 q 439 3 521 13 l 439 -125 l 342 -125 l 342 0 l 164 0 l 164 160 z "},"€":{"ha":854,"x_min":69,"x_max":715,"o":"m 667 313 l 307 313 q 407 200 340 240 q 563 160 474 160 l 715 160 l 715 0 l 549 0 q 277 84 389 0 q 128 313 165 168 l 69 313 l 69 410 l 113 410 q 111 451 111 424 q 113 492 111 479 l 69 492 l 69 589 l 128 589 q 277 819 165 735 q 549 903 389 903 l 715 903 l 715 743 l 563 743 q 407 702 474 743 q 307 589 340 661 l 667 589 l 667 492 l 281 492 q 278 451 278 467 q 281 410 278 438 l 667 410 l 667 313 z "},"£":{"ha":951,"x_min":69,"x_max":826,"o":"m 111 167 l 181 167 l 181 353 l 69 353 l 69 450 l 181 450 l 181 618 q 218 774 181 707 q 323 879 256 842 q 479 917 390 917 q 635 879 568 917 q 740 774 703 842 q 778 618 778 707 l 778 549 l 611 549 l 611 618 q 574 717 611 678 q 479 757 538 757 q 384 717 421 757 q 347 618 347 678 l 347 450 l 542 450 l 542 353 l 347 353 l 347 167 l 660 167 l 660 299 l 826 299 l 826 0 l 111 0 l 111 167 z "},"¥":{"ha":833,"x_min":113,"x_max":721,"o":"m 333 143 l 124 143 l 124 240 l 333 240 l 333 322 l 124 322 l 124 419 l 333 419 l 333 450 l 113 901 l 282 901 l 417 626 l 551 901 l 721 901 l 500 450 l 500 419 l 708 419 l 708 322 l 500 322 l 500 240 l 708 240 l 708 143 l 500 143 l 500 0 l 333 0 l 333 143 z "},"+":{"ha":875,"x_min":139,"x_max":736,"o":"m 139 472 l 354 472 l 354 688 l 521 688 l 521 472 l 736 472 l 736 306 l 521 306 l 521 90 l 354 90 l 354 306 l 139 306 l 139 472 z "},"−":{"ha":694,"x_min":139,"x_max":556,"o":"m 139 472 l 556 472 l 556 306 l 139 306 l 139 472 z "},"×":{"ha":808,"x_min":139,"x_max":669,"o":"m 669 546 l 513 389 l 669 232 l 561 124 l 404 281 l 247 124 l 139 232 l 296 389 l 139 546 l 247 654 l 404 497 l 561 654 l 669 546 z "},"=":{"ha":736,"x_min":139,"x_max":597,"o":"m 139 333 l 597 333 l 597 167 l 139 167 l 139 333 m 139 611 l 597 611 l 597 444 l 139 444 l 139 611 z "},"^":{"ha":819,"x_min":69,"x_max":750,"o":"m 317 901 l 503 901 l 750 492 l 571 492 l 410 757 l 249 492 l 69 492 l 317 901 z "},"%":{"ha":1178,"x_min":111,"x_max":1067,"o":"m 788 901 l 972 901 l 390 0 l 192 0 l 788 901 m 111 736 q 163 863 111 811 q 290 915 215 915 q 417 863 365 915 q 469 736 469 811 q 417 609 469 661 q 290 557 365 557 q 163 609 215 557 q 111 736 111 661 m 229 736 q 247 693 229 711 q 290 675 265 675 q 335 693 317 675 q 354 736 354 711 q 335 781 354 763 q 290 800 317 800 q 247 781 265 800 q 229 736 229 763 m 708 165 q 760 292 708 240 q 888 344 813 344 q 1015 292 963 344 q 1067 165 1067 240 q 1015 38 1067 90 q 888 -14 963 -14 q 760 38 813 -14 q 708 165 708 90 m 826 165 q 844 122 826 140 q 888 104 863 104 q 933 122 914 104 q 951 165 951 140 q 933 210 951 192 q 888 229 914 229 q 844 210 863 229 q 826 165 826 192 z "},"◊":{"ha":858,"x_min":125,"x_max":733,"o":"m 125 449 l 343 901 l 515 901 l 733 449 l 515 0 l 343 0 l 125 449 m 429 171 l 564 449 l 429 728 l 294 449 l 429 171 z "},"⵿":{"ha":0,"x_min":-799,"x_max":799,"o":"m -694 -257 q -768 -226 -737 -257 q -799 -153 -799 -196 q -768 -79 -799 -110 q -694 -49 -737 -49 q -621 -79 -651 -49 q -590 -153 -590 -110 q -621 -226 -590 -196 q -694 -257 -651 -257 m -521 -153 q -490 -79 -521 -110 q -417 -49 -460 -49 q -343 -79 -374 -49 q -312 -153 -312 -110 q -343 -226 -312 -196 q -417 -257 -374 -257 q -490 -226 -460 -257 q -521 -153 -521 -196 m -243 -153 q -212 -79 -243 -110 q -139 -49 -182 -49 q -65 -79 -96 -49 q -35 -153 -35 -110 q -65 -226 -35 -196 q -139 -257 -96 -257 q -212 -226 -182 -257 q -243 -153 -243 -196 m 35 -153 q 65 -79 35 -110 q 139 -49 96 -49 q 213 -79 182 -49 q 243 -153 243 -110 q 213 -226 243 -196 q 139 -257 182 -257 q 65 -226 96 -257 q 35 -153 35 -196 m 313 -153 q 343 -79 313 -110 q 417 -49 374 -49 q 490 -79 460 -49 q 521 -153 521 -110 q 490 -226 521 -196 q 417 -257 460 -257 q 343 -226 374 -257 q 313 -153 313 -196 m 590 -153 q 621 -79 590 -110 q 694 -49 651 -49 q 768 -79 738 -49 q 799 -153 799 -110 q 768 -226 799 -196 q 694 -257 738 -257 q 621 -226 651 -257 q 590 -153 590 -196 z "},"̈":{"ha":0,"x_min":125,"x_max":514,"o":"m 431 988 q 372 1012 396 988 q 347 1071 347 1036 q 372 1131 347 1107 q 431 1154 396 1154 q 490 1131 467 1154 q 514 1071 514 1107 q 490 1012 514 1036 q 431 988 467 988 m 125 1071 q 149 1131 125 1107 q 208 1154 174 1154 q 268 1131 244 1154 q 292 1071 292 1107 q 268 1012 292 1036 q 208 988 244 988 q 149 1012 174 988 q 125 1071 125 1036 z "},"̇":{"ha":0,"x_min":125,"x_max":292,"o":"m 208 988 q 149 1012 174 988 q 125 1071 125 1036 q 149 1131 125 1107 q 208 1154 174 1154 q 268 1131 244 1154 q 292 1071 292 1107 q 268 1012 292 1036 q 208 988 244 988 z "},"̀":{"ha":0,"x_min":125,"x_max":361,"o":"m 201 986 l 125 1125 l 285 1125 l 361 986 l 201 986 z "},"́":{"ha":0,"x_min":125,"x_max":361,"o":"m 201 1125 l 361 1125 l 285 986 l 125 986 l 201 1125 z "},"̋":{"ha":0,"x_min":125,"x_max":583,"o":"m 453 1236 l 583 1236 l 506 986 l 375 986 l 453 1236 m 203 1236 l 333 1236 l 256 986 l 125 986 l 203 1236 z "},"̂":{"ha":0,"x_min":125,"x_max":472,"o":"m 286 1111 l 311 1111 l 472 988 l 313 988 l 299 1000 l 285 988 l 125 988 l 286 1111 z "},"̌":{"ha":0,"x_min":125,"x_max":472,"o":"m 311 1000 l 286 1000 l 125 1124 l 285 1124 l 299 1111 l 313 1124 l 472 1124 l 311 1000 z "},"̆":{"ha":0,"x_min":125,"x_max":400,"o":"m 235 1113 q 243 1093 235 1101 q 263 1085 251 1085 q 282 1093 274 1085 q 290 1113 290 1101 l 400 1113 q 362 1010 400 1049 q 263 972 324 972 q 163 1010 201 972 q 125 1113 125 1049 l 235 1113 z "},"̊":{"ha":0,"x_min":125,"x_max":364,"o":"m 244 969 q 160 1004 194 969 q 125 1089 125 1039 q 160 1174 125 1139 q 244 1208 194 1208 q 329 1174 294 1208 q 364 1089 364 1139 q 329 1004 364 1039 q 244 969 294 969 m 196 1089 q 210 1055 196 1069 q 244 1040 225 1040 q 278 1055 264 1040 q 293 1089 293 1069 q 278 1123 293 1108 q 244 1138 264 1138 q 210 1123 225 1138 q 196 1089 196 1108 z "},"̃":{"ha":0,"x_min":125,"x_max":526,"o":"m 125 988 q 164 1090 125 1047 q 258 1132 203 1132 q 297 1124 281 1132 q 331 1103 313 1117 q 362 1084 349 1090 q 392 1078 375 1078 q 419 1091 408 1078 q 429 1125 429 1104 l 526 1125 q 488 1023 526 1065 q 392 981 449 981 q 346 990 365 981 q 303 1014 326 999 q 258 1035 274 1035 q 232 1021 242 1035 q 222 988 222 1007 l 125 988 z "},"̄":{"ha":0,"x_min":125,"x_max":583,"o":"m 125 1125 l 583 1125 l 583 1014 l 125 1014 l 125 1125 z "},"̒":{"ha":0,"x_min":139,"x_max":354,"o":"m 354 1281 l 278 1128 l 278 983 l 139 983 l 139 1128 l 215 1281 l 354 1281 z "},"̦":{"ha":0,"x_min":125,"x_max":342,"o":"m 225 -78 l 342 -78 l 242 -292 l 125 -292 l 225 -78 z "},"̧":{"ha":0,"x_min":125,"x_max":265,"o":"m 125 -229 q 144 -221 136 -229 q 153 -201 153 -212 q 144 -182 153 -190 q 125 -174 136 -174 l 125 -64 q 227 -102 189 -64 q 265 -201 265 -140 q 227 -301 265 -262 q 125 -339 189 -339 l 125 -229 z "},"̨":{"ha":0,"x_min":125,"x_max":458,"o":"m 258 6 l 372 0 l 294 -167 l 458 -167 l 458 -278 l 125 -278 l 258 6 z "},"¨":{"ha":639,"x_min":125,"x_max":514,"o":"m 431 988 q 372 1012 396 988 q 347 1071 347 1036 q 372 1131 347 1107 q 431 1154 396 1154 q 490 1131 467 1154 q 514 1071 514 1107 q 490 1012 514 1036 q 431 988 467 988 m 125 1071 q 149 1131 125 1107 q 208 1154 174 1154 q 268 1131 244 1154 q 292 1071 292 1107 q 268 1012 292 1036 q 208 988 244 988 q 149 1012 174 988 q 125 1071 125 1036 z "},"˙":{"ha":417,"x_min":125,"x_max":292,"o":"m 208 988 q 149 1012 174 988 q 125 1071 125 1036 q 149 1131 125 1107 q 208 1154 174 1154 q 268 1131 244 1154 q 292 1071 292 1107 q 268 1012 292 1036 q 208 988 244 988 z "},"`":{"ha":488,"x_min":125,"x_max":361,"o":"m 201 986 l 125 1125 l 285 1125 l 361 986 l 201 986 z "},"´":{"ha":488,"x_min":125,"x_max":361,"o":"m 201 1125 l 361 1125 l 285 986 l 125 986 l 201 1125 z "},"˝":{"ha":708,"x_min":125,"x_max":583,"o":"m 453 1236 l 583 1236 l 506 986 l 375 986 l 453 1236 m 203 1236 l 333 1236 l 256 986 l 125 986 l 203 1236 z "},"ˆ":{"ha":597,"x_min":125,"x_max":472,"o":"m 286 1111 l 311 1111 l 472 988 l 313 988 l 299 1000 l 285 988 l 125 988 l 286 1111 z "},"ˇ":{"ha":597,"x_min":111,"x_max":458,"o":"m 297 1000 l 272 1000 l 111 1124 l 271 1124 l 285 1111 l 299 1124 l 458 1124 l 297 1000 z "},"˘":{"ha":525,"x_min":125,"x_max":400,"o":"m 235 1113 q 243 1093 235 1101 q 263 1085 251 1085 q 282 1093 274 1085 q 290 1113 290 1101 l 400 1113 q 362 1010 400 1049 q 263 972 324 972 q 163 1010 201 972 q 125 1113 125 1049 l 235 1113 z "},"˚":{"ha":489,"x_min":125,"x_max":364,"o":"m 244 969 q 160 1004 194 969 q 125 1089 125 1039 q 160 1174 125 1139 q 244 1208 194 1208 q 329 1174 294 1208 q 364 1089 364 1139 q 329 1004 364 1039 q 244 969 294 969 m 196 1089 q 210 1055 196 1069 q 244 1040 225 1040 q 278 1055 264 1040 q 293 1089 293 1069 q 278 1123 293 1108 q 244 1138 264 1138 q 210 1123 225 1138 q 196 1089 196 1108 z "},"˜":{"ha":651,"x_min":125,"x_max":526,"o":"m 125 988 q 164 1090 125 1047 q 258 1132 203 1132 q 297 1124 281 1132 q 331 1103 313 1117 q 362 1084 349 1090 q 392 1078 375 1078 q 419 1091 408 1078 q 429 1125 429 1104 l 526 1125 q 488 1023 526 1065 q 392 981 449 981 q 346 990 365 981 q 303 1014 326 999 q 258 1035 274 1035 q 232 1021 242 1035 q 222 988 222 1007 l 125 988 z "},"¯":{"ha":708,"x_min":125,"x_max":583,"o":"m 125 1125 l 583 1125 l 583 1014 l 125 1014 l 125 1125 z "},"¸":{"ha":390,"x_min":125,"x_max":265,"o":"m 125 -229 q 144 -221 136 -229 q 153 -201 153 -212 q 144 -182 153 -190 q 125 -174 136 -174 l 125 -64 q 227 -102 189 -64 q 265 -201 265 -140 q 227 -301 265 -262 q 125 -339 189 -339 l 125 -229 z "},"˛":{"ha":583,"x_min":125,"x_max":458,"o":"m 258 6 l 372 0 l 294 -167 l 458 -167 l 458 -278 l 125 -278 l 258 6 z "},"ʼ":{"ha":446,"x_min":69,"x_max":376,"o":"m 210 901 l 376 901 l 236 582 l 69 582 l 210 901 z "}}}
